G04 #@! TF.GenerationSoftware,KiCad,Pcbnew,(5.1.2)-1*
G04 #@! TF.CreationDate,2020-03-02T19:29:20-06:00*
G04 #@! TF.ProjectId,NanoBreakoutBoard_Rev1_2020,4e616e6f-4272-4656-916b-6f7574426f61,rev?*
G04 #@! TF.SameCoordinates,Original*
G04 #@! TF.FileFunction,Legend,Bot*
G04 #@! TF.FilePolarity,Positive*
%FSLAX46Y46*%
G04 Gerber Fmt 4.6, Leading zero omitted, Abs format (unit mm)*
G04 Created by KiCad (PCBNEW (5.1.2)-1) date 2020-03-02 19:29:20*
%MOMM*%
%LPD*%
G04 APERTURE LIST*
%ADD10C,0.150000*%
%ADD11C,0.010000*%
G04 APERTURE END LIST*
D10*
X154187380Y-104934761D02*
X153187380Y-104934761D01*
X154187380Y-105506190D01*
X153187380Y-105506190D01*
X154187380Y-106410952D02*
X153663571Y-106410952D01*
X153568333Y-106363333D01*
X153520714Y-106268095D01*
X153520714Y-106077619D01*
X153568333Y-105982380D01*
X154139761Y-106410952D02*
X154187380Y-106315714D01*
X154187380Y-106077619D01*
X154139761Y-105982380D01*
X154044523Y-105934761D01*
X153949285Y-105934761D01*
X153854047Y-105982380D01*
X153806428Y-106077619D01*
X153806428Y-106315714D01*
X153758809Y-106410952D01*
X153520714Y-106887142D02*
X154187380Y-106887142D01*
X153615952Y-106887142D02*
X153568333Y-106934761D01*
X153520714Y-107030000D01*
X153520714Y-107172857D01*
X153568333Y-107268095D01*
X153663571Y-107315714D01*
X154187380Y-107315714D01*
X154187380Y-107934761D02*
X154139761Y-107839523D01*
X154092142Y-107791904D01*
X153996904Y-107744285D01*
X153711190Y-107744285D01*
X153615952Y-107791904D01*
X153568333Y-107839523D01*
X153520714Y-107934761D01*
X153520714Y-108077619D01*
X153568333Y-108172857D01*
X153615952Y-108220476D01*
X153711190Y-108268095D01*
X153996904Y-108268095D01*
X154092142Y-108220476D01*
X154139761Y-108172857D01*
X154187380Y-108077619D01*
X154187380Y-107934761D01*
X153663571Y-109791904D02*
X153711190Y-109934761D01*
X153758809Y-109982380D01*
X153854047Y-110030000D01*
X153996904Y-110030000D01*
X154092142Y-109982380D01*
X154139761Y-109934761D01*
X154187380Y-109839523D01*
X154187380Y-109458571D01*
X153187380Y-109458571D01*
X153187380Y-109791904D01*
X153235000Y-109887142D01*
X153282619Y-109934761D01*
X153377857Y-109982380D01*
X153473095Y-109982380D01*
X153568333Y-109934761D01*
X153615952Y-109887142D01*
X153663571Y-109791904D01*
X153663571Y-109458571D01*
X154187380Y-110458571D02*
X153520714Y-110458571D01*
X153711190Y-110458571D02*
X153615952Y-110506190D01*
X153568333Y-110553809D01*
X153520714Y-110649047D01*
X153520714Y-110744285D01*
X154139761Y-111458571D02*
X154187380Y-111363333D01*
X154187380Y-111172857D01*
X154139761Y-111077619D01*
X154044523Y-111030000D01*
X153663571Y-111030000D01*
X153568333Y-111077619D01*
X153520714Y-111172857D01*
X153520714Y-111363333D01*
X153568333Y-111458571D01*
X153663571Y-111506190D01*
X153758809Y-111506190D01*
X153854047Y-111030000D01*
X154187380Y-112363333D02*
X153663571Y-112363333D01*
X153568333Y-112315714D01*
X153520714Y-112220476D01*
X153520714Y-112030000D01*
X153568333Y-111934761D01*
X154139761Y-112363333D02*
X154187380Y-112268095D01*
X154187380Y-112030000D01*
X154139761Y-111934761D01*
X154044523Y-111887142D01*
X153949285Y-111887142D01*
X153854047Y-111934761D01*
X153806428Y-112030000D01*
X153806428Y-112268095D01*
X153758809Y-112363333D01*
X154187380Y-112839523D02*
X153187380Y-112839523D01*
X153806428Y-112934761D02*
X154187380Y-113220476D01*
X153520714Y-113220476D02*
X153901666Y-112839523D01*
X154187380Y-113791904D02*
X154139761Y-113696666D01*
X154092142Y-113649047D01*
X153996904Y-113601428D01*
X153711190Y-113601428D01*
X153615952Y-113649047D01*
X153568333Y-113696666D01*
X153520714Y-113791904D01*
X153520714Y-113934761D01*
X153568333Y-114030000D01*
X153615952Y-114077619D01*
X153711190Y-114125238D01*
X153996904Y-114125238D01*
X154092142Y-114077619D01*
X154139761Y-114030000D01*
X154187380Y-113934761D01*
X154187380Y-113791904D01*
X153520714Y-114982380D02*
X154187380Y-114982380D01*
X153520714Y-114553809D02*
X154044523Y-114553809D01*
X154139761Y-114601428D01*
X154187380Y-114696666D01*
X154187380Y-114839523D01*
X154139761Y-114934761D01*
X154092142Y-114982380D01*
X153520714Y-115315714D02*
X153520714Y-115696666D01*
X153187380Y-115458571D02*
X154044523Y-115458571D01*
X154139761Y-115506190D01*
X154187380Y-115601428D01*
X154187380Y-115696666D01*
X154139761Y-116077619D02*
X154187380Y-116077619D01*
X154282619Y-116030000D01*
X154330238Y-115982380D01*
X154187380Y-117839523D02*
X153711190Y-117506190D01*
X154187380Y-117268095D02*
X153187380Y-117268095D01*
X153187380Y-117649047D01*
X153235000Y-117744285D01*
X153282619Y-117791904D01*
X153377857Y-117839523D01*
X153520714Y-117839523D01*
X153615952Y-117791904D01*
X153663571Y-117744285D01*
X153711190Y-117649047D01*
X153711190Y-117268095D01*
X154139761Y-118649047D02*
X154187380Y-118553809D01*
X154187380Y-118363333D01*
X154139761Y-118268095D01*
X154044523Y-118220476D01*
X153663571Y-118220476D01*
X153568333Y-118268095D01*
X153520714Y-118363333D01*
X153520714Y-118553809D01*
X153568333Y-118649047D01*
X153663571Y-118696666D01*
X153758809Y-118696666D01*
X153854047Y-118220476D01*
X153520714Y-119030000D02*
X154187380Y-119268095D01*
X153520714Y-119506190D01*
X154187380Y-121172857D02*
X154187380Y-120601428D01*
X154187380Y-120887142D02*
X153187380Y-120887142D01*
X153330238Y-120791904D01*
X153425476Y-120696666D01*
X153473095Y-120601428D01*
X155837380Y-103910952D02*
X154837380Y-103910952D01*
X155551666Y-104244285D01*
X154837380Y-104577619D01*
X155837380Y-104577619D01*
X155837380Y-105482380D02*
X155313571Y-105482380D01*
X155218333Y-105434761D01*
X155170714Y-105339523D01*
X155170714Y-105149047D01*
X155218333Y-105053809D01*
X155789761Y-105482380D02*
X155837380Y-105387142D01*
X155837380Y-105149047D01*
X155789761Y-105053809D01*
X155694523Y-105006190D01*
X155599285Y-105006190D01*
X155504047Y-105053809D01*
X155456428Y-105149047D01*
X155456428Y-105387142D01*
X155408809Y-105482380D01*
X155837380Y-105958571D02*
X155170714Y-105958571D01*
X155361190Y-105958571D02*
X155265952Y-106006190D01*
X155218333Y-106053809D01*
X155170714Y-106149047D01*
X155170714Y-106244285D01*
X155789761Y-106530000D02*
X155837380Y-106625238D01*
X155837380Y-106815714D01*
X155789761Y-106910952D01*
X155694523Y-106958571D01*
X155646904Y-106958571D01*
X155551666Y-106910952D01*
X155504047Y-106815714D01*
X155504047Y-106672857D01*
X155456428Y-106577619D01*
X155361190Y-106530000D01*
X155313571Y-106530000D01*
X155218333Y-106577619D01*
X155170714Y-106672857D01*
X155170714Y-106815714D01*
X155218333Y-106910952D01*
X155837380Y-108720476D02*
X155361190Y-108387142D01*
X155837380Y-108149047D02*
X154837380Y-108149047D01*
X154837380Y-108530000D01*
X154885000Y-108625238D01*
X154932619Y-108672857D01*
X155027857Y-108720476D01*
X155170714Y-108720476D01*
X155265952Y-108672857D01*
X155313571Y-108625238D01*
X155361190Y-108530000D01*
X155361190Y-108149047D01*
X155837380Y-109291904D02*
X155789761Y-109196666D01*
X155742142Y-109149047D01*
X155646904Y-109101428D01*
X155361190Y-109101428D01*
X155265952Y-109149047D01*
X155218333Y-109196666D01*
X155170714Y-109291904D01*
X155170714Y-109434761D01*
X155218333Y-109530000D01*
X155265952Y-109577619D01*
X155361190Y-109625238D01*
X155646904Y-109625238D01*
X155742142Y-109577619D01*
X155789761Y-109530000D01*
X155837380Y-109434761D01*
X155837380Y-109291904D01*
X155170714Y-109958571D02*
X155837380Y-110196666D01*
X155170714Y-110434761D01*
X155789761Y-111196666D02*
X155837380Y-111101428D01*
X155837380Y-110910952D01*
X155789761Y-110815714D01*
X155694523Y-110768095D01*
X155313571Y-110768095D01*
X155218333Y-110815714D01*
X155170714Y-110910952D01*
X155170714Y-111101428D01*
X155218333Y-111196666D01*
X155313571Y-111244285D01*
X155408809Y-111244285D01*
X155504047Y-110768095D01*
X155837380Y-111672857D02*
X155170714Y-111672857D01*
X155361190Y-111672857D02*
X155265952Y-111720476D01*
X155218333Y-111768095D01*
X155170714Y-111863333D01*
X155170714Y-111958571D01*
X155837380Y-113053809D02*
X154837380Y-113053809D01*
X154837380Y-113291904D01*
X154885000Y-113434761D01*
X154980238Y-113530000D01*
X155075476Y-113577619D01*
X155265952Y-113625238D01*
X155408809Y-113625238D01*
X155599285Y-113577619D01*
X155694523Y-113530000D01*
X155789761Y-113434761D01*
X155837380Y-113291904D01*
X155837380Y-113053809D01*
X155789761Y-114434761D02*
X155837380Y-114339523D01*
X155837380Y-114149047D01*
X155789761Y-114053809D01*
X155694523Y-114006190D01*
X155313571Y-114006190D01*
X155218333Y-114053809D01*
X155170714Y-114149047D01*
X155170714Y-114339523D01*
X155218333Y-114434761D01*
X155313571Y-114482380D01*
X155408809Y-114482380D01*
X155504047Y-114006190D01*
X155789761Y-114863333D02*
X155837380Y-114958571D01*
X155837380Y-115149047D01*
X155789761Y-115244285D01*
X155694523Y-115291904D01*
X155646904Y-115291904D01*
X155551666Y-115244285D01*
X155504047Y-115149047D01*
X155504047Y-115006190D01*
X155456428Y-114910952D01*
X155361190Y-114863333D01*
X155313571Y-114863333D01*
X155218333Y-114910952D01*
X155170714Y-115006190D01*
X155170714Y-115149047D01*
X155218333Y-115244285D01*
X155837380Y-115720476D02*
X155170714Y-115720476D01*
X154837380Y-115720476D02*
X154885000Y-115672857D01*
X154932619Y-115720476D01*
X154885000Y-115768095D01*
X154837380Y-115720476D01*
X154932619Y-115720476D01*
X155170714Y-116625238D02*
X155980238Y-116625238D01*
X156075476Y-116577619D01*
X156123095Y-116530000D01*
X156170714Y-116434761D01*
X156170714Y-116291904D01*
X156123095Y-116196666D01*
X155789761Y-116625238D02*
X155837380Y-116530000D01*
X155837380Y-116339523D01*
X155789761Y-116244285D01*
X155742142Y-116196666D01*
X155646904Y-116149047D01*
X155361190Y-116149047D01*
X155265952Y-116196666D01*
X155218333Y-116244285D01*
X155170714Y-116339523D01*
X155170714Y-116530000D01*
X155218333Y-116625238D01*
X155170714Y-117101428D02*
X155837380Y-117101428D01*
X155265952Y-117101428D02*
X155218333Y-117149047D01*
X155170714Y-117244285D01*
X155170714Y-117387142D01*
X155218333Y-117482380D01*
X155313571Y-117530000D01*
X155837380Y-117530000D01*
X154837380Y-118625238D02*
X154837380Y-119196666D01*
X155837380Y-118910952D02*
X154837380Y-118910952D01*
X155789761Y-119910952D02*
X155837380Y-119815714D01*
X155837380Y-119625238D01*
X155789761Y-119530000D01*
X155694523Y-119482380D01*
X155313571Y-119482380D01*
X155218333Y-119530000D01*
X155170714Y-119625238D01*
X155170714Y-119815714D01*
X155218333Y-119910952D01*
X155313571Y-119958571D01*
X155408809Y-119958571D01*
X155504047Y-119482380D01*
X155837380Y-120815714D02*
X155313571Y-120815714D01*
X155218333Y-120768095D01*
X155170714Y-120672857D01*
X155170714Y-120482380D01*
X155218333Y-120387142D01*
X155789761Y-120815714D02*
X155837380Y-120720476D01*
X155837380Y-120482380D01*
X155789761Y-120387142D01*
X155694523Y-120339523D01*
X155599285Y-120339523D01*
X155504047Y-120387142D01*
X155456428Y-120482380D01*
X155456428Y-120720476D01*
X155408809Y-120815714D01*
X155837380Y-121291904D02*
X155170714Y-121291904D01*
X155265952Y-121291904D02*
X155218333Y-121339523D01*
X155170714Y-121434761D01*
X155170714Y-121577619D01*
X155218333Y-121672857D01*
X155313571Y-121720476D01*
X155837380Y-121720476D01*
X155313571Y-121720476D02*
X155218333Y-121768095D01*
X155170714Y-121863333D01*
X155170714Y-122006190D01*
X155218333Y-122101428D01*
X155313571Y-122149047D01*
X155837380Y-122149047D01*
X157487380Y-105815714D02*
X156487380Y-105815714D01*
X157201666Y-106149047D01*
X156487380Y-106482380D01*
X157487380Y-106482380D01*
X157487380Y-106958571D02*
X156820714Y-106958571D01*
X156487380Y-106958571D02*
X156535000Y-106910952D01*
X156582619Y-106958571D01*
X156535000Y-107006190D01*
X156487380Y-106958571D01*
X156582619Y-106958571D01*
X157439761Y-107387142D02*
X157487380Y-107482380D01*
X157487380Y-107672857D01*
X157439761Y-107768095D01*
X157344523Y-107815714D01*
X157296904Y-107815714D01*
X157201666Y-107768095D01*
X157154047Y-107672857D01*
X157154047Y-107530000D01*
X157106428Y-107434761D01*
X157011190Y-107387142D01*
X156963571Y-107387142D01*
X156868333Y-107434761D01*
X156820714Y-107530000D01*
X156820714Y-107672857D01*
X156868333Y-107768095D01*
X157439761Y-108196666D02*
X157487380Y-108291904D01*
X157487380Y-108482380D01*
X157439761Y-108577619D01*
X157344523Y-108625238D01*
X157296904Y-108625238D01*
X157201666Y-108577619D01*
X157154047Y-108482380D01*
X157154047Y-108339523D01*
X157106428Y-108244285D01*
X157011190Y-108196666D01*
X156963571Y-108196666D01*
X156868333Y-108244285D01*
X156820714Y-108339523D01*
X156820714Y-108482380D01*
X156868333Y-108577619D01*
X157487380Y-109196666D02*
X157439761Y-109101428D01*
X157392142Y-109053809D01*
X157296904Y-109006190D01*
X157011190Y-109006190D01*
X156915952Y-109053809D01*
X156868333Y-109101428D01*
X156820714Y-109196666D01*
X156820714Y-109339523D01*
X156868333Y-109434761D01*
X156915952Y-109482380D01*
X157011190Y-109530000D01*
X157296904Y-109530000D01*
X157392142Y-109482380D01*
X157439761Y-109434761D01*
X157487380Y-109339523D01*
X157487380Y-109196666D01*
X156820714Y-110387142D02*
X157487380Y-110387142D01*
X156820714Y-109958571D02*
X157344523Y-109958571D01*
X157439761Y-110006190D01*
X157487380Y-110101428D01*
X157487380Y-110244285D01*
X157439761Y-110339523D01*
X157392142Y-110387142D01*
X157487380Y-110863333D02*
X156820714Y-110863333D01*
X157011190Y-110863333D02*
X156915952Y-110910952D01*
X156868333Y-110958571D01*
X156820714Y-111053809D01*
X156820714Y-111149047D01*
X157487380Y-111482380D02*
X156820714Y-111482380D01*
X156487380Y-111482380D02*
X156535000Y-111434761D01*
X156582619Y-111482380D01*
X156535000Y-111530000D01*
X156487380Y-111482380D01*
X156582619Y-111482380D01*
X157439761Y-112672857D02*
X157487380Y-112815714D01*
X157487380Y-113053809D01*
X157439761Y-113149047D01*
X157392142Y-113196666D01*
X157296904Y-113244285D01*
X157201666Y-113244285D01*
X157106428Y-113196666D01*
X157058809Y-113149047D01*
X157011190Y-113053809D01*
X156963571Y-112863333D01*
X156915952Y-112768095D01*
X156868333Y-112720476D01*
X156773095Y-112672857D01*
X156677857Y-112672857D01*
X156582619Y-112720476D01*
X156535000Y-112768095D01*
X156487380Y-112863333D01*
X156487380Y-113101428D01*
X156535000Y-113244285D01*
X157487380Y-114482380D02*
X157487380Y-114434761D01*
X157439761Y-114339523D01*
X157296904Y-114196666D01*
X157011190Y-113958571D01*
X156868333Y-113863333D01*
X156725476Y-113815714D01*
X156630238Y-113815714D01*
X156535000Y-113863333D01*
X156487380Y-113958571D01*
X156487380Y-114006190D01*
X156535000Y-114101428D01*
X156630238Y-114149047D01*
X156677857Y-114149047D01*
X156773095Y-114101428D01*
X156820714Y-114053809D01*
X157011190Y-113768095D01*
X157058809Y-113720476D01*
X157154047Y-113672857D01*
X157296904Y-113672857D01*
X157392142Y-113720476D01*
X157439761Y-113768095D01*
X157487380Y-113863333D01*
X157487380Y-114006190D01*
X157439761Y-114101428D01*
X157392142Y-114149047D01*
X157201666Y-114291904D01*
X157058809Y-114339523D01*
X156963571Y-114339523D01*
X156487380Y-114768095D02*
X156487380Y-115339523D01*
X157487380Y-115053809D02*
X156487380Y-115053809D01*
X157439761Y-115720476D02*
X157487380Y-115720476D01*
X157582619Y-115672857D01*
X157630238Y-115625238D01*
X156582619Y-116863333D02*
X156535000Y-116910952D01*
X156487380Y-117006190D01*
X156487380Y-117244285D01*
X156535000Y-117339523D01*
X156582619Y-117387142D01*
X156677857Y-117434761D01*
X156773095Y-117434761D01*
X156915952Y-117387142D01*
X157487380Y-116815714D01*
X157487380Y-117434761D01*
X156487380Y-118053809D02*
X156487380Y-118149047D01*
X156535000Y-118244285D01*
X156582619Y-118291904D01*
X156677857Y-118339523D01*
X156868333Y-118387142D01*
X157106428Y-118387142D01*
X157296904Y-118339523D01*
X157392142Y-118291904D01*
X157439761Y-118244285D01*
X157487380Y-118149047D01*
X157487380Y-118053809D01*
X157439761Y-117958571D01*
X157392142Y-117910952D01*
X157296904Y-117863333D01*
X157106428Y-117815714D01*
X156868333Y-117815714D01*
X156677857Y-117863333D01*
X156582619Y-117910952D01*
X156535000Y-117958571D01*
X156487380Y-118053809D01*
X156582619Y-118768095D02*
X156535000Y-118815714D01*
X156487380Y-118910952D01*
X156487380Y-119149047D01*
X156535000Y-119244285D01*
X156582619Y-119291904D01*
X156677857Y-119339523D01*
X156773095Y-119339523D01*
X156915952Y-119291904D01*
X157487380Y-118720476D01*
X157487380Y-119339523D01*
X156487380Y-119958571D02*
X156487380Y-120053809D01*
X156535000Y-120149047D01*
X156582619Y-120196666D01*
X156677857Y-120244285D01*
X156868333Y-120291904D01*
X157106428Y-120291904D01*
X157296904Y-120244285D01*
X157392142Y-120196666D01*
X157439761Y-120149047D01*
X157487380Y-120053809D01*
X157487380Y-119958571D01*
X157439761Y-119863333D01*
X157392142Y-119815714D01*
X157296904Y-119768095D01*
X157106428Y-119720476D01*
X156868333Y-119720476D01*
X156677857Y-119768095D01*
X156582619Y-119815714D01*
X156535000Y-119863333D01*
X156487380Y-119958571D01*
X158851666Y-106815714D02*
X158851666Y-107291904D01*
X159137380Y-106720476D02*
X158137380Y-107053809D01*
X159137380Y-107387142D01*
X158470714Y-108149047D02*
X159137380Y-108149047D01*
X158470714Y-107720476D02*
X158994523Y-107720476D01*
X159089761Y-107768095D01*
X159137380Y-107863333D01*
X159137380Y-108006190D01*
X159089761Y-108101428D01*
X159042142Y-108149047D01*
X159089761Y-108577619D02*
X159137380Y-108672857D01*
X159137380Y-108863333D01*
X159089761Y-108958571D01*
X158994523Y-109006190D01*
X158946904Y-109006190D01*
X158851666Y-108958571D01*
X158804047Y-108863333D01*
X158804047Y-108720476D01*
X158756428Y-108625238D01*
X158661190Y-108577619D01*
X158613571Y-108577619D01*
X158518333Y-108625238D01*
X158470714Y-108720476D01*
X158470714Y-108863333D01*
X158518333Y-108958571D01*
X158470714Y-109291904D02*
X158470714Y-109672857D01*
X158137380Y-109434761D02*
X158994523Y-109434761D01*
X159089761Y-109482380D01*
X159137380Y-109577619D01*
X159137380Y-109672857D01*
X159137380Y-110006190D02*
X158470714Y-110006190D01*
X158137380Y-110006190D02*
X158185000Y-109958571D01*
X158232619Y-110006190D01*
X158185000Y-110053809D01*
X158137380Y-110006190D01*
X158232619Y-110006190D01*
X158470714Y-110482380D02*
X159137380Y-110482380D01*
X158565952Y-110482380D02*
X158518333Y-110530000D01*
X158470714Y-110625238D01*
X158470714Y-110768095D01*
X158518333Y-110863333D01*
X158613571Y-110910952D01*
X159137380Y-110910952D01*
X159042142Y-112720476D02*
X159089761Y-112672857D01*
X159137380Y-112530000D01*
X159137380Y-112434761D01*
X159089761Y-112291904D01*
X158994523Y-112196666D01*
X158899285Y-112149047D01*
X158708809Y-112101428D01*
X158565952Y-112101428D01*
X158375476Y-112149047D01*
X158280238Y-112196666D01*
X158185000Y-112291904D01*
X158137380Y-112434761D01*
X158137380Y-112530000D01*
X158185000Y-112672857D01*
X158232619Y-112720476D01*
X159137380Y-113149047D02*
X158137380Y-113149047D01*
X159137380Y-113577619D02*
X158613571Y-113577619D01*
X158518333Y-113530000D01*
X158470714Y-113434761D01*
X158470714Y-113291904D01*
X158518333Y-113196666D01*
X158565952Y-113149047D01*
X159137380Y-114053809D02*
X158470714Y-114053809D01*
X158661190Y-114053809D02*
X158565952Y-114101428D01*
X158518333Y-114149047D01*
X158470714Y-114244285D01*
X158470714Y-114339523D01*
X159137380Y-114672857D02*
X158470714Y-114672857D01*
X158137380Y-114672857D02*
X158185000Y-114625238D01*
X158232619Y-114672857D01*
X158185000Y-114720476D01*
X158137380Y-114672857D01*
X158232619Y-114672857D01*
X159089761Y-115101428D02*
X159137380Y-115196666D01*
X159137380Y-115387142D01*
X159089761Y-115482380D01*
X158994523Y-115530000D01*
X158946904Y-115530000D01*
X158851666Y-115482380D01*
X158804047Y-115387142D01*
X158804047Y-115244285D01*
X158756428Y-115149047D01*
X158661190Y-115101428D01*
X158613571Y-115101428D01*
X158518333Y-115149047D01*
X158470714Y-115244285D01*
X158470714Y-115387142D01*
X158518333Y-115482380D01*
X158470714Y-115815714D02*
X158470714Y-116196666D01*
X158137380Y-115958571D02*
X158994523Y-115958571D01*
X159089761Y-116006190D01*
X159137380Y-116101428D01*
X159137380Y-116196666D01*
X159137380Y-116530000D02*
X158470714Y-116530000D01*
X158565952Y-116530000D02*
X158518333Y-116577619D01*
X158470714Y-116672857D01*
X158470714Y-116815714D01*
X158518333Y-116910952D01*
X158613571Y-116958571D01*
X159137380Y-116958571D01*
X158613571Y-116958571D02*
X158518333Y-117006190D01*
X158470714Y-117101428D01*
X158470714Y-117244285D01*
X158518333Y-117339523D01*
X158613571Y-117387142D01*
X159137380Y-117387142D01*
X159137380Y-118291904D02*
X158613571Y-118291904D01*
X158518333Y-118244285D01*
X158470714Y-118149047D01*
X158470714Y-117958571D01*
X158518333Y-117863333D01*
X159089761Y-118291904D02*
X159137380Y-118196666D01*
X159137380Y-117958571D01*
X159089761Y-117863333D01*
X158994523Y-117815714D01*
X158899285Y-117815714D01*
X158804047Y-117863333D01*
X158756428Y-117958571D01*
X158756428Y-118196666D01*
X158708809Y-118291904D01*
X158470714Y-118768095D02*
X159137380Y-118768095D01*
X158565952Y-118768095D02*
X158518333Y-118815714D01*
X158470714Y-118910952D01*
X158470714Y-119053809D01*
X158518333Y-119149047D01*
X158613571Y-119196666D01*
X159137380Y-119196666D01*
D11*
G36*
X150180769Y-132870611D02*
G01*
X150190247Y-132936325D01*
X150205802Y-132989830D01*
X150209335Y-132997991D01*
X150224513Y-133030743D01*
X150219418Y-133000625D01*
X150207662Y-132895801D01*
X150208445Y-132797617D01*
X150221718Y-132710532D01*
X150222611Y-132706937D01*
X150255983Y-132605457D01*
X150305990Y-132499707D01*
X150372926Y-132389329D01*
X150457084Y-132273959D01*
X150558758Y-132153239D01*
X150678241Y-132026807D01*
X150815827Y-131894302D01*
X150971810Y-131755364D01*
X151053484Y-131686131D01*
X151130949Y-131621990D01*
X151206490Y-131560712D01*
X151281494Y-131501339D01*
X151357349Y-131442908D01*
X151435443Y-131384460D01*
X151517164Y-131325035D01*
X151603901Y-131263672D01*
X151697042Y-131199412D01*
X151797974Y-131131293D01*
X151908086Y-131058356D01*
X152028766Y-130979640D01*
X152161402Y-130894185D01*
X152307382Y-130801032D01*
X152468094Y-130699218D01*
X152603803Y-130613657D01*
X152918436Y-130418545D01*
X153230350Y-130230882D01*
X153534508Y-130053685D01*
X153612775Y-130009089D01*
X153683489Y-129968787D01*
X153764819Y-129922095D01*
X153850107Y-129872858D01*
X153932695Y-129824919D01*
X154004674Y-129782857D01*
X154076491Y-129740962D01*
X154156024Y-129695005D01*
X154237086Y-129648534D01*
X154313487Y-129605095D01*
X154379041Y-129568235D01*
X154381156Y-129567056D01*
X154438093Y-129535267D01*
X154491926Y-129505110D01*
X154539088Y-129478591D01*
X154576012Y-129457717D01*
X154599129Y-129444493D01*
X154599844Y-129444077D01*
X154643198Y-129418822D01*
X154539607Y-129379847D01*
X154488375Y-129359404D01*
X154429534Y-129333989D01*
X154365588Y-129304877D01*
X154299037Y-129273341D01*
X154232382Y-129240658D01*
X154168126Y-129208103D01*
X154108768Y-129176949D01*
X154056811Y-129148473D01*
X154014756Y-129123950D01*
X153985104Y-129104654D01*
X153970357Y-129091860D01*
X153969178Y-129089081D01*
X153977572Y-129082335D01*
X154000847Y-129067854D01*
X154036146Y-129047309D01*
X154080609Y-129022370D01*
X154122281Y-128999609D01*
X154190074Y-128962856D01*
X154262307Y-128923446D01*
X154336820Y-128882579D01*
X154411458Y-128841455D01*
X154484062Y-128801274D01*
X154552475Y-128763236D01*
X154614539Y-128728542D01*
X154668098Y-128698392D01*
X154710993Y-128673986D01*
X154741067Y-128656524D01*
X154756163Y-128647207D01*
X154757281Y-128646350D01*
X154752874Y-128645653D01*
X154733080Y-128650990D01*
X154701314Y-128661345D01*
X154671945Y-128671701D01*
X154602839Y-128696852D01*
X154526605Y-128724809D01*
X154445372Y-128754773D01*
X154361267Y-128785946D01*
X154276420Y-128817528D01*
X154192958Y-128848720D01*
X154113010Y-128878723D01*
X154038705Y-128906739D01*
X153972170Y-128931966D01*
X153915535Y-128953608D01*
X153870927Y-128970864D01*
X153840475Y-128982936D01*
X153826307Y-128989024D01*
X153825613Y-128989455D01*
X153829539Y-128997923D01*
X153847113Y-129013805D01*
X153874842Y-129034061D01*
X153883340Y-129039705D01*
X153914290Y-129060646D01*
X153937329Y-129077714D01*
X153948390Y-129087855D01*
X153948812Y-129088899D01*
X153940266Y-129095255D01*
X153916483Y-129109546D01*
X153879993Y-129130341D01*
X153833322Y-129156212D01*
X153778996Y-129185730D01*
X153751148Y-129200664D01*
X153685663Y-129235835D01*
X153607853Y-129277945D01*
X153522931Y-129324151D01*
X153436110Y-129371615D01*
X153352602Y-129417494D01*
X153302166Y-129445343D01*
X153229007Y-129485768D01*
X153142862Y-129533255D01*
X153048376Y-129585250D01*
X152950191Y-129639202D01*
X152852949Y-129692558D01*
X152761295Y-129742766D01*
X152729297Y-129760269D01*
X152581700Y-129841620D01*
X152439022Y-129921524D01*
X152302716Y-129999118D01*
X152174233Y-130073536D01*
X152055026Y-130143911D01*
X151946547Y-130209379D01*
X151850248Y-130269074D01*
X151767581Y-130322131D01*
X151699998Y-130367683D01*
X151652561Y-130402089D01*
X151594448Y-130450284D01*
X151552666Y-130493268D01*
X151527611Y-130530327D01*
X151519683Y-130560750D01*
X151529278Y-130583825D01*
X151545105Y-130594547D01*
X151571923Y-130604486D01*
X151587690Y-130606196D01*
X151589795Y-130600540D01*
X151575630Y-130588379D01*
X151571557Y-130585813D01*
X151548026Y-130566440D01*
X151541450Y-130548440D01*
X151541492Y-130548202D01*
X151553535Y-130529334D01*
X151583608Y-130503203D01*
X151631147Y-130470126D01*
X151695588Y-130430420D01*
X151776369Y-130384404D01*
X151872925Y-130332393D01*
X151984694Y-130274707D01*
X152111113Y-130211662D01*
X152251616Y-130143576D01*
X152302617Y-130119278D01*
X152353608Y-130095348D01*
X152416769Y-130066141D01*
X152490448Y-130032391D01*
X152572993Y-129994833D01*
X152662752Y-129954202D01*
X152758073Y-129911233D01*
X152857302Y-129866660D01*
X152958789Y-129821220D01*
X153060880Y-129775646D01*
X153161923Y-129730674D01*
X153260266Y-129687038D01*
X153354257Y-129645474D01*
X153442244Y-129606715D01*
X153522573Y-129571499D01*
X153593594Y-129540558D01*
X153653653Y-129514628D01*
X153701099Y-129494444D01*
X153734279Y-129480741D01*
X153751541Y-129474254D01*
X153753666Y-129473874D01*
X153746482Y-129480020D01*
X153724835Y-129495760D01*
X153690958Y-129519536D01*
X153647087Y-129549791D01*
X153595456Y-129584968D01*
X153555006Y-129612285D01*
X153487757Y-129657822D01*
X153408848Y-129711733D01*
X153320245Y-129772643D01*
X153223915Y-129839175D01*
X153121824Y-129909953D01*
X153015937Y-129983602D01*
X152908222Y-130058745D01*
X152800642Y-130134006D01*
X152695166Y-130208009D01*
X152593758Y-130279378D01*
X152498385Y-130346736D01*
X152411013Y-130408709D01*
X152333608Y-130463919D01*
X152268135Y-130510991D01*
X152216562Y-130548548D01*
X152202222Y-130559143D01*
X151958530Y-130742410D01*
X151732455Y-130917183D01*
X151523603Y-131083843D01*
X151331578Y-131242766D01*
X151155985Y-131394334D01*
X150996429Y-131538924D01*
X150852515Y-131676915D01*
X150723847Y-131808686D01*
X150610031Y-131934617D01*
X150510671Y-132055087D01*
X150425373Y-132170473D01*
X150353741Y-132281156D01*
X150295379Y-132387514D01*
X150295032Y-132388214D01*
X150257195Y-132467495D01*
X150228791Y-132534971D01*
X150208175Y-132595587D01*
X150193703Y-132654283D01*
X150183731Y-132716003D01*
X150182429Y-132726606D01*
X150177964Y-132798700D01*
X150180769Y-132870611D01*
X150180769Y-132870611D01*
G37*
X150180769Y-132870611D02*
X150190247Y-132936325D01*
X150205802Y-132989830D01*
X150209335Y-132997991D01*
X150224513Y-133030743D01*
X150219418Y-133000625D01*
X150207662Y-132895801D01*
X150208445Y-132797617D01*
X150221718Y-132710532D01*
X150222611Y-132706937D01*
X150255983Y-132605457D01*
X150305990Y-132499707D01*
X150372926Y-132389329D01*
X150457084Y-132273959D01*
X150558758Y-132153239D01*
X150678241Y-132026807D01*
X150815827Y-131894302D01*
X150971810Y-131755364D01*
X151053484Y-131686131D01*
X151130949Y-131621990D01*
X151206490Y-131560712D01*
X151281494Y-131501339D01*
X151357349Y-131442908D01*
X151435443Y-131384460D01*
X151517164Y-131325035D01*
X151603901Y-131263672D01*
X151697042Y-131199412D01*
X151797974Y-131131293D01*
X151908086Y-131058356D01*
X152028766Y-130979640D01*
X152161402Y-130894185D01*
X152307382Y-130801032D01*
X152468094Y-130699218D01*
X152603803Y-130613657D01*
X152918436Y-130418545D01*
X153230350Y-130230882D01*
X153534508Y-130053685D01*
X153612775Y-130009089D01*
X153683489Y-129968787D01*
X153764819Y-129922095D01*
X153850107Y-129872858D01*
X153932695Y-129824919D01*
X154004674Y-129782857D01*
X154076491Y-129740962D01*
X154156024Y-129695005D01*
X154237086Y-129648534D01*
X154313487Y-129605095D01*
X154379041Y-129568235D01*
X154381156Y-129567056D01*
X154438093Y-129535267D01*
X154491926Y-129505110D01*
X154539088Y-129478591D01*
X154576012Y-129457717D01*
X154599129Y-129444493D01*
X154599844Y-129444077D01*
X154643198Y-129418822D01*
X154539607Y-129379847D01*
X154488375Y-129359404D01*
X154429534Y-129333989D01*
X154365588Y-129304877D01*
X154299037Y-129273341D01*
X154232382Y-129240658D01*
X154168126Y-129208103D01*
X154108768Y-129176949D01*
X154056811Y-129148473D01*
X154014756Y-129123950D01*
X153985104Y-129104654D01*
X153970357Y-129091860D01*
X153969178Y-129089081D01*
X153977572Y-129082335D01*
X154000847Y-129067854D01*
X154036146Y-129047309D01*
X154080609Y-129022370D01*
X154122281Y-128999609D01*
X154190074Y-128962856D01*
X154262307Y-128923446D01*
X154336820Y-128882579D01*
X154411458Y-128841455D01*
X154484062Y-128801274D01*
X154552475Y-128763236D01*
X154614539Y-128728542D01*
X154668098Y-128698392D01*
X154710993Y-128673986D01*
X154741067Y-128656524D01*
X154756163Y-128647207D01*
X154757281Y-128646350D01*
X154752874Y-128645653D01*
X154733080Y-128650990D01*
X154701314Y-128661345D01*
X154671945Y-128671701D01*
X154602839Y-128696852D01*
X154526605Y-128724809D01*
X154445372Y-128754773D01*
X154361267Y-128785946D01*
X154276420Y-128817528D01*
X154192958Y-128848720D01*
X154113010Y-128878723D01*
X154038705Y-128906739D01*
X153972170Y-128931966D01*
X153915535Y-128953608D01*
X153870927Y-128970864D01*
X153840475Y-128982936D01*
X153826307Y-128989024D01*
X153825613Y-128989455D01*
X153829539Y-128997923D01*
X153847113Y-129013805D01*
X153874842Y-129034061D01*
X153883340Y-129039705D01*
X153914290Y-129060646D01*
X153937329Y-129077714D01*
X153948390Y-129087855D01*
X153948812Y-129088899D01*
X153940266Y-129095255D01*
X153916483Y-129109546D01*
X153879993Y-129130341D01*
X153833322Y-129156212D01*
X153778996Y-129185730D01*
X153751148Y-129200664D01*
X153685663Y-129235835D01*
X153607853Y-129277945D01*
X153522931Y-129324151D01*
X153436110Y-129371615D01*
X153352602Y-129417494D01*
X153302166Y-129445343D01*
X153229007Y-129485768D01*
X153142862Y-129533255D01*
X153048376Y-129585250D01*
X152950191Y-129639202D01*
X152852949Y-129692558D01*
X152761295Y-129742766D01*
X152729297Y-129760269D01*
X152581700Y-129841620D01*
X152439022Y-129921524D01*
X152302716Y-129999118D01*
X152174233Y-130073536D01*
X152055026Y-130143911D01*
X151946547Y-130209379D01*
X151850248Y-130269074D01*
X151767581Y-130322131D01*
X151699998Y-130367683D01*
X151652561Y-130402089D01*
X151594448Y-130450284D01*
X151552666Y-130493268D01*
X151527611Y-130530327D01*
X151519683Y-130560750D01*
X151529278Y-130583825D01*
X151545105Y-130594547D01*
X151571923Y-130604486D01*
X151587690Y-130606196D01*
X151589795Y-130600540D01*
X151575630Y-130588379D01*
X151571557Y-130585813D01*
X151548026Y-130566440D01*
X151541450Y-130548440D01*
X151541492Y-130548202D01*
X151553535Y-130529334D01*
X151583608Y-130503203D01*
X151631147Y-130470126D01*
X151695588Y-130430420D01*
X151776369Y-130384404D01*
X151872925Y-130332393D01*
X151984694Y-130274707D01*
X152111113Y-130211662D01*
X152251616Y-130143576D01*
X152302617Y-130119278D01*
X152353608Y-130095348D01*
X152416769Y-130066141D01*
X152490448Y-130032391D01*
X152572993Y-129994833D01*
X152662752Y-129954202D01*
X152758073Y-129911233D01*
X152857302Y-129866660D01*
X152958789Y-129821220D01*
X153060880Y-129775646D01*
X153161923Y-129730674D01*
X153260266Y-129687038D01*
X153354257Y-129645474D01*
X153442244Y-129606715D01*
X153522573Y-129571499D01*
X153593594Y-129540558D01*
X153653653Y-129514628D01*
X153701099Y-129494444D01*
X153734279Y-129480741D01*
X153751541Y-129474254D01*
X153753666Y-129473874D01*
X153746482Y-129480020D01*
X153724835Y-129495760D01*
X153690958Y-129519536D01*
X153647087Y-129549791D01*
X153595456Y-129584968D01*
X153555006Y-129612285D01*
X153487757Y-129657822D01*
X153408848Y-129711733D01*
X153320245Y-129772643D01*
X153223915Y-129839175D01*
X153121824Y-129909953D01*
X153015937Y-129983602D01*
X152908222Y-130058745D01*
X152800642Y-130134006D01*
X152695166Y-130208009D01*
X152593758Y-130279378D01*
X152498385Y-130346736D01*
X152411013Y-130408709D01*
X152333608Y-130463919D01*
X152268135Y-130510991D01*
X152216562Y-130548548D01*
X152202222Y-130559143D01*
X151958530Y-130742410D01*
X151732455Y-130917183D01*
X151523603Y-131083843D01*
X151331578Y-131242766D01*
X151155985Y-131394334D01*
X150996429Y-131538924D01*
X150852515Y-131676915D01*
X150723847Y-131808686D01*
X150610031Y-131934617D01*
X150510671Y-132055087D01*
X150425373Y-132170473D01*
X150353741Y-132281156D01*
X150295379Y-132387514D01*
X150295032Y-132388214D01*
X150257195Y-132467495D01*
X150228791Y-132534971D01*
X150208175Y-132595587D01*
X150193703Y-132654283D01*
X150183731Y-132716003D01*
X150182429Y-132726606D01*
X150177964Y-132798700D01*
X150180769Y-132870611D01*
G36*
X154777360Y-128638451D02*
G01*
X154782380Y-128633431D01*
X154777360Y-128628411D01*
X154772340Y-128633431D01*
X154777360Y-128638451D01*
X154777360Y-128638451D01*
G37*
X154777360Y-128638451D02*
X154782380Y-128633431D01*
X154777360Y-128628411D01*
X154772340Y-128633431D01*
X154777360Y-128638451D01*
G36*
X152419025Y-129580354D02*
G01*
X152431126Y-129575097D01*
X152456867Y-129558000D01*
X152470756Y-129548190D01*
X152497842Y-129529840D01*
X152527573Y-129511861D01*
X152562325Y-129493125D01*
X152604477Y-129472503D01*
X152656406Y-129448868D01*
X152720489Y-129421091D01*
X152799105Y-129388043D01*
X152870244Y-129358622D01*
X152931670Y-129333600D01*
X153008444Y-129302740D01*
X153097161Y-129267379D01*
X153194415Y-129228855D01*
X153296801Y-129188506D01*
X153400915Y-129147670D01*
X153503352Y-129107686D01*
X153600706Y-129069891D01*
X153689572Y-129035623D01*
X153766545Y-129006220D01*
X153781988Y-129000369D01*
X153810648Y-128989532D01*
X153733539Y-128933220D01*
X153701301Y-128908322D01*
X153677500Y-128887298D01*
X153665255Y-128873057D01*
X153664721Y-128869006D01*
X153674970Y-128863388D01*
X153701788Y-128849808D01*
X153743649Y-128829013D01*
X153799028Y-128801749D01*
X153866401Y-128768761D01*
X153944243Y-128730796D01*
X154031029Y-128688599D01*
X154125233Y-128642917D01*
X154225332Y-128594495D01*
X154265344Y-128575172D01*
X154495675Y-128463921D01*
X154709119Y-128360687D01*
X154906925Y-128264860D01*
X155090337Y-128175831D01*
X155260603Y-128092990D01*
X155418968Y-128015727D01*
X155566678Y-127943434D01*
X155704980Y-127875500D01*
X155835120Y-127811316D01*
X155958344Y-127750273D01*
X156075899Y-127691761D01*
X156189030Y-127635170D01*
X156253170Y-127602958D01*
X156340492Y-127559299D01*
X156415559Y-127522018D01*
X156480093Y-127489790D01*
X156535820Y-127461287D01*
X156584462Y-127435185D01*
X156627744Y-127410158D01*
X156667388Y-127384879D01*
X156705118Y-127358022D01*
X156742659Y-127328263D01*
X156781733Y-127294274D01*
X156824065Y-127254730D01*
X156871378Y-127208305D01*
X156925396Y-127153674D01*
X156987842Y-127089510D01*
X157060440Y-127014487D01*
X157144913Y-126927280D01*
X157184491Y-126886554D01*
X157256369Y-126813095D01*
X157327443Y-126741228D01*
X157395806Y-126672826D01*
X157459553Y-126609766D01*
X157516777Y-126553923D01*
X157565572Y-126507171D01*
X157604031Y-126471386D01*
X157627693Y-126450557D01*
X157694302Y-126393906D01*
X157773063Y-126325212D01*
X157861789Y-126246482D01*
X157958292Y-126159725D01*
X158060383Y-126066952D01*
X158165873Y-125970170D01*
X158272576Y-125871390D01*
X158378303Y-125772620D01*
X158480865Y-125675869D01*
X158578074Y-125583146D01*
X158667743Y-125496461D01*
X158682276Y-125482277D01*
X158731495Y-125434303D01*
X158775708Y-125391468D01*
X158812984Y-125355624D01*
X158841390Y-125328621D01*
X158858992Y-125312311D01*
X158864010Y-125308216D01*
X158868406Y-125320556D01*
X158876450Y-125348514D01*
X158887143Y-125388177D01*
X158899487Y-125435627D01*
X158912484Y-125486951D01*
X158925137Y-125538232D01*
X158936446Y-125585556D01*
X158945415Y-125625007D01*
X158948646Y-125640248D01*
X158960804Y-125704725D01*
X158967207Y-125751584D01*
X158967973Y-125782406D01*
X158963219Y-125798773D01*
X158960583Y-125801197D01*
X158951119Y-125810789D01*
X158932312Y-125832492D01*
X158907264Y-125862665D01*
X158889490Y-125884616D01*
X158826677Y-125962917D01*
X158976133Y-125804457D01*
X158982227Y-125838509D01*
X158990957Y-125898866D01*
X158998029Y-125971208D01*
X159003462Y-126052794D01*
X159007277Y-126140882D01*
X159009494Y-126232733D01*
X159010133Y-126325604D01*
X159009214Y-126416756D01*
X159006757Y-126503446D01*
X159002782Y-126582934D01*
X158997310Y-126652479D01*
X158990359Y-126709339D01*
X158981951Y-126750774D01*
X158975418Y-126768727D01*
X158963573Y-126780207D01*
X158936044Y-126800525D01*
X158894607Y-126828600D01*
X158841034Y-126863347D01*
X158777098Y-126903685D01*
X158704575Y-126948531D01*
X158625236Y-126996802D01*
X158540857Y-127047416D01*
X158453210Y-127099290D01*
X158364069Y-127151340D01*
X158275208Y-127202486D01*
X158188401Y-127251643D01*
X158140601Y-127278313D01*
X158065587Y-127320634D01*
X157987270Y-127366086D01*
X157910062Y-127412021D01*
X157838374Y-127455788D01*
X157776618Y-127494738D01*
X157739020Y-127519502D01*
X157682446Y-127556553D01*
X157613712Y-127599582D01*
X157538417Y-127645202D01*
X157462161Y-127690025D01*
X157390546Y-127730663D01*
X157383199Y-127734729D01*
X157295052Y-127784622D01*
X157213585Y-127833686D01*
X157133318Y-127885448D01*
X157048778Y-127943438D01*
X156956519Y-128009701D01*
X156758263Y-128151597D01*
X156562387Y-128285685D01*
X156364061Y-128415082D01*
X156158452Y-128542904D01*
X155940732Y-128672269D01*
X155836530Y-128732383D01*
X155774546Y-128768454D01*
X155721042Y-128801279D01*
X155671826Y-128833815D01*
X155622706Y-128869021D01*
X155569488Y-128909857D01*
X155507981Y-128959280D01*
X155465068Y-128994523D01*
X155406066Y-129043164D01*
X155347214Y-129091546D01*
X155291860Y-129136927D01*
X155243355Y-129176562D01*
X155205046Y-129207709D01*
X155188981Y-129220674D01*
X155150543Y-129251876D01*
X155102481Y-129291381D01*
X155050473Y-129334496D01*
X155000201Y-129376528D01*
X154991940Y-129383477D01*
X154950501Y-129417700D01*
X154913815Y-129446739D01*
X154884870Y-129468326D01*
X154866651Y-129480192D01*
X154862508Y-129481771D01*
X154847432Y-129479093D01*
X154820033Y-129472201D01*
X154786213Y-129462810D01*
X154751871Y-129452635D01*
X154722911Y-129443392D01*
X154705231Y-129436794D01*
X154702690Y-129435329D01*
X154706755Y-129426563D01*
X154721674Y-129407725D01*
X154742848Y-129384364D01*
X154763726Y-129361194D01*
X154770645Y-129350348D01*
X154763214Y-129352451D01*
X154762301Y-129353004D01*
X154737895Y-129367041D01*
X154705840Y-129384309D01*
X154692666Y-129391121D01*
X154666914Y-129404822D01*
X154656914Y-129413224D01*
X154660376Y-129419840D01*
X154670170Y-129425604D01*
X154678384Y-129431007D01*
X154681199Y-129437831D01*
X154677001Y-129448657D01*
X154664177Y-129466065D01*
X154641111Y-129492635D01*
X154606192Y-129530950D01*
X154600271Y-129537391D01*
X154496673Y-129651022D01*
X154406322Y-129752253D01*
X154327970Y-129842579D01*
X154260370Y-129923496D01*
X154202275Y-129996500D01*
X154152437Y-130063087D01*
X154109609Y-130124751D01*
X154106577Y-130129321D01*
X154055970Y-130211052D01*
X154019945Y-130280989D01*
X153998626Y-130338784D01*
X153992137Y-130384090D01*
X154000601Y-130416559D01*
X154003296Y-130420467D01*
X154012683Y-130431184D01*
X154017267Y-130429189D01*
X154018836Y-130411573D01*
X154019057Y-130394824D01*
X154025695Y-130350065D01*
X154046938Y-130305657D01*
X154048182Y-130303679D01*
X154073027Y-130268515D01*
X154108953Y-130222972D01*
X154152724Y-130170749D01*
X154201107Y-130115548D01*
X154250865Y-130061067D01*
X154298764Y-130011009D01*
X154336646Y-129973708D01*
X154369668Y-129942729D01*
X154412004Y-129903486D01*
X154461385Y-129858037D01*
X154515541Y-129808444D01*
X154572203Y-129756765D01*
X154629101Y-129705062D01*
X154683966Y-129655394D01*
X154734528Y-129609821D01*
X154778518Y-129570403D01*
X154813666Y-129539200D01*
X154837702Y-129518272D01*
X154845970Y-129511407D01*
X154874101Y-129489279D01*
X154996403Y-129516433D01*
X155102631Y-129538739D01*
X155199850Y-129556083D01*
X155293735Y-129569121D01*
X155389962Y-129578510D01*
X155494207Y-129584907D01*
X155612146Y-129588967D01*
X155626675Y-129589309D01*
X155789888Y-129590568D01*
X155938876Y-129586193D01*
X156078830Y-129575664D01*
X156214942Y-129558461D01*
X156352404Y-129534064D01*
X156495041Y-129502284D01*
X156739762Y-129432789D01*
X156977227Y-129344933D01*
X157206470Y-129239423D01*
X157426526Y-129116968D01*
X157636433Y-128978273D01*
X157835224Y-128824045D01*
X158021935Y-128654992D01*
X158195601Y-128471821D01*
X158355259Y-128275239D01*
X158499943Y-128065953D01*
X158537801Y-128004905D01*
X158653464Y-127796556D01*
X158754640Y-127578609D01*
X158840073Y-127354404D01*
X158908505Y-127127279D01*
X158958676Y-126900575D01*
X158962905Y-126876514D01*
X158973648Y-126823739D01*
X158984727Y-126789687D01*
X158996210Y-126773262D01*
X159009197Y-126764155D01*
X159036248Y-126745393D01*
X159074878Y-126718693D01*
X159122602Y-126685771D01*
X159176934Y-126648344D01*
X159219850Y-126618813D01*
X159376266Y-126508638D01*
X159515379Y-126404994D01*
X159638447Y-126306751D01*
X159746726Y-126212779D01*
X159841474Y-126121947D01*
X159923947Y-126033125D01*
X159995404Y-125945182D01*
X160042730Y-125878812D01*
X160078445Y-125820318D01*
X160113842Y-125752978D01*
X160145965Y-125683181D01*
X160171856Y-125617315D01*
X160187591Y-125565843D01*
X160202208Y-125483512D01*
X160208709Y-125394421D01*
X160206792Y-125307323D01*
X160198657Y-125243152D01*
X160165910Y-125124179D01*
X160113740Y-125010155D01*
X160042223Y-124901234D01*
X160011949Y-124863530D01*
X159989286Y-124834427D01*
X159977522Y-124810738D01*
X159973231Y-124783805D01*
X159972815Y-124764662D01*
X159964929Y-124630121D01*
X159942158Y-124493604D01*
X159933346Y-124461137D01*
X159933346Y-125203084D01*
X159942064Y-125216983D01*
X159946139Y-125230032D01*
X159948330Y-125249074D01*
X159949403Y-125282010D01*
X159949200Y-125322677D01*
X159948867Y-125335447D01*
X159944639Y-125394011D01*
X159934911Y-125442335D01*
X159920401Y-125483819D01*
X159889416Y-125551682D01*
X159853932Y-125612414D01*
X159810231Y-125671431D01*
X159754593Y-125734146D01*
X159733172Y-125756380D01*
X159700486Y-125789191D01*
X159675051Y-125813578D01*
X159658852Y-125827736D01*
X159653874Y-125829856D01*
X159655173Y-125827384D01*
X159719621Y-125723616D01*
X159771015Y-125633955D01*
X159809793Y-125557637D01*
X159811489Y-125553984D01*
X159834581Y-125500107D01*
X159858180Y-125438402D01*
X159880408Y-125374451D01*
X159899389Y-125313835D01*
X159913245Y-125262136D01*
X159918782Y-125234927D01*
X159925379Y-125209102D01*
X159933346Y-125203084D01*
X159933346Y-124461137D01*
X159905825Y-124359737D01*
X159857258Y-124233144D01*
X159797782Y-124118453D01*
X159779001Y-124088563D01*
X159758886Y-124053991D01*
X159743252Y-124020010D01*
X159736995Y-124000190D01*
X159729229Y-123974049D01*
X159715201Y-123937308D01*
X159697733Y-123897274D01*
X159694989Y-123891435D01*
X159645914Y-123811123D01*
X159645792Y-123810993D01*
X159645792Y-124788669D01*
X159653751Y-124791999D01*
X159664513Y-124801384D01*
X159666871Y-124803598D01*
X159679256Y-124816158D01*
X159686914Y-124828640D01*
X159689960Y-124844927D01*
X159688512Y-124868900D01*
X159682688Y-124904443D01*
X159672604Y-124955438D01*
X159671603Y-124960370D01*
X159662455Y-125001396D01*
X159650687Y-125048398D01*
X159637374Y-125097741D01*
X159623590Y-125145793D01*
X159610410Y-125188919D01*
X159598909Y-125223485D01*
X159590161Y-125245859D01*
X159585241Y-125252406D01*
X159585234Y-125252398D01*
X159585192Y-125241540D01*
X159588240Y-125215731D01*
X159593770Y-125179757D01*
X159596392Y-125164435D01*
X159603056Y-125120636D01*
X159610162Y-125064173D01*
X159616848Y-125002417D01*
X159622133Y-124944253D01*
X159627179Y-124882417D01*
X159631329Y-124838267D01*
X159635320Y-124809477D01*
X159639895Y-124793719D01*
X159645792Y-124788669D01*
X159645792Y-123810993D01*
X159580567Y-123741487D01*
X159500088Y-123683197D01*
X159405614Y-123636928D01*
X159298284Y-123603349D01*
X159179236Y-123583134D01*
X159171307Y-123582317D01*
X159128136Y-123575253D01*
X159076945Y-123562847D01*
X159028170Y-123547660D01*
X159024079Y-123546179D01*
X158903128Y-123506882D01*
X158883526Y-123501826D01*
X158883526Y-123697464D01*
X158955336Y-123701844D01*
X158999065Y-123706281D01*
X159034917Y-123715317D01*
X159072429Y-123731842D01*
X159095889Y-123744426D01*
X159234070Y-123829855D01*
X159354106Y-123922609D01*
X159456786Y-124023325D01*
X159492741Y-124065447D01*
X159541540Y-124125684D01*
X159535318Y-124190941D01*
X159531561Y-124224933D01*
X159527824Y-124250013D01*
X159525065Y-124260381D01*
X159522362Y-124262532D01*
X159518798Y-124260616D01*
X159512137Y-124251476D01*
X159500146Y-124231958D01*
X159480588Y-124198903D01*
X159475897Y-124190941D01*
X159401962Y-124081216D01*
X159315508Y-123982691D01*
X159214746Y-123893763D01*
X159097886Y-123812828D01*
X158981142Y-123747366D01*
X158883526Y-123697464D01*
X158883526Y-123501826D01*
X158764671Y-123471168D01*
X158611038Y-123439519D01*
X158444562Y-123412418D01*
X158276135Y-123391271D01*
X158223569Y-123386658D01*
X158159612Y-123382788D01*
X158087310Y-123379681D01*
X158009708Y-123377360D01*
X157929852Y-123375845D01*
X157850788Y-123375158D01*
X157775562Y-123375320D01*
X157707219Y-123376352D01*
X157648806Y-123378276D01*
X157603367Y-123381113D01*
X157573949Y-123384885D01*
X157568348Y-123386314D01*
X157553161Y-123391848D01*
X157552391Y-123394923D01*
X157568069Y-123396402D01*
X157593447Y-123397013D01*
X157673211Y-123400272D01*
X157767932Y-123407297D01*
X157872968Y-123417494D01*
X157983675Y-123430270D01*
X158095411Y-123445030D01*
X158203534Y-123461181D01*
X158303399Y-123478129D01*
X158390365Y-123495281D01*
X158426886Y-123503585D01*
X158488030Y-123518925D01*
X158548333Y-123535183D01*
X158604813Y-123551431D01*
X158654483Y-123566742D01*
X158694360Y-123580185D01*
X158721459Y-123590833D01*
X158732795Y-123597756D01*
X158732829Y-123598778D01*
X158716577Y-123607999D01*
X158684652Y-123612609D01*
X158640920Y-123612614D01*
X158589250Y-123608021D01*
X158533507Y-123598838D01*
X158531326Y-123598392D01*
X158456500Y-123583849D01*
X158384880Y-123572032D01*
X158313058Y-123562660D01*
X158237627Y-123555455D01*
X158155177Y-123550137D01*
X158062301Y-123546426D01*
X157955588Y-123544042D01*
X157854475Y-123542875D01*
X157658956Y-123541310D01*
X157658956Y-123599100D01*
X157697967Y-123600065D01*
X157746540Y-123602056D01*
X157801191Y-123604900D01*
X157858434Y-123608423D01*
X157914784Y-123612448D01*
X157966755Y-123616802D01*
X157995028Y-123619567D01*
X158042152Y-123625144D01*
X158096187Y-123632554D01*
X158153193Y-123641138D01*
X158209228Y-123650237D01*
X158260349Y-123659191D01*
X158302616Y-123667341D01*
X158332086Y-123674029D01*
X158343820Y-123677894D01*
X158339742Y-123683315D01*
X158319633Y-123693257D01*
X158286660Y-123706364D01*
X158243990Y-123721276D01*
X158238405Y-123723110D01*
X158171050Y-123745697D01*
X158114489Y-123765895D01*
X158070646Y-123782941D01*
X158041443Y-123796070D01*
X158028805Y-123804519D01*
X158028786Y-123806386D01*
X158039656Y-123806048D01*
X158066247Y-123802049D01*
X158104672Y-123795051D01*
X158151042Y-123785717D01*
X158155514Y-123784777D01*
X158218810Y-123771958D01*
X158290433Y-123758305D01*
X158359785Y-123745804D01*
X158397791Y-123739372D01*
X158517591Y-123719827D01*
X158605183Y-123750335D01*
X158672352Y-123775863D01*
X158746006Y-123807430D01*
X158820616Y-123842376D01*
X158890649Y-123878045D01*
X158950572Y-123911777D01*
X158980304Y-123930609D01*
X159043710Y-123978483D01*
X159109028Y-124036581D01*
X159169937Y-124098813D01*
X159220117Y-124159094D01*
X159226224Y-124167446D01*
X159246204Y-124197831D01*
X159268218Y-124235249D01*
X159290237Y-124275690D01*
X159310235Y-124315144D01*
X159326183Y-124349603D01*
X159336054Y-124375055D01*
X159337821Y-124387493D01*
X159337626Y-124387737D01*
X159327188Y-124385889D01*
X159303359Y-124377208D01*
X159270890Y-124363460D01*
X159264103Y-124360405D01*
X159195892Y-124330765D01*
X159114243Y-124297422D01*
X159024917Y-124262559D01*
X158933672Y-124228359D01*
X158846268Y-124197006D01*
X158768465Y-124170680D01*
X158737953Y-124161005D01*
X158682029Y-124144274D01*
X158618822Y-124126222D01*
X158551489Y-124107662D01*
X158483185Y-124089406D01*
X158417066Y-124072266D01*
X158356286Y-124057055D01*
X158304002Y-124044585D01*
X158263370Y-124035669D01*
X158237544Y-124031118D01*
X158231821Y-124030705D01*
X158235668Y-124034366D01*
X158256189Y-124044576D01*
X158291399Y-124060474D01*
X158339311Y-124081196D01*
X158397941Y-124105879D01*
X158465301Y-124133659D01*
X158517083Y-124154688D01*
X158625436Y-124198776D01*
X158718463Y-124237540D01*
X158799671Y-124272616D01*
X158872567Y-124305643D01*
X158940659Y-124338257D01*
X159007454Y-124372096D01*
X159076459Y-124408797D01*
X159151181Y-124449999D01*
X159159140Y-124454450D01*
X159230135Y-124494493D01*
X159285301Y-124526433D01*
X159326534Y-124551597D01*
X159355731Y-124571313D01*
X159374788Y-124586908D01*
X159385604Y-124599710D01*
X159390074Y-124611047D01*
X159390522Y-124616397D01*
X159385174Y-124634593D01*
X159370741Y-124664575D01*
X159349636Y-124701669D01*
X159332063Y-124729551D01*
X159303906Y-124770474D01*
X159267100Y-124821156D01*
X159225858Y-124875935D01*
X159184393Y-124929148D01*
X159172516Y-124943989D01*
X159164633Y-124953612D01*
X159164633Y-125536238D01*
X159169653Y-125541257D01*
X159164633Y-125546277D01*
X159159613Y-125541257D01*
X159164633Y-125536238D01*
X159164633Y-124953612D01*
X159156145Y-124963974D01*
X159156145Y-125556317D01*
X159154243Y-125563991D01*
X159139534Y-125586931D01*
X159112106Y-125625011D01*
X159072046Y-125678107D01*
X159051337Y-125705033D01*
X159024481Y-125738843D01*
X159002167Y-125765148D01*
X158987107Y-125780858D01*
X158982163Y-125783794D01*
X158986416Y-125774951D01*
X159000606Y-125753924D01*
X159022082Y-125724177D01*
X159048196Y-125689171D01*
X159076300Y-125652370D01*
X159103746Y-125617236D01*
X159127885Y-125587232D01*
X159146068Y-125565822D01*
X159155647Y-125556467D01*
X159156145Y-125556317D01*
X159156145Y-124963974D01*
X159137119Y-124987201D01*
X159097302Y-125034645D01*
X159055099Y-125084022D01*
X159012547Y-125133033D01*
X158971681Y-125179379D01*
X158934537Y-125220763D01*
X158903151Y-125254884D01*
X158879558Y-125279444D01*
X158865794Y-125292145D01*
X158863191Y-125293293D01*
X158858791Y-125283251D01*
X158848955Y-125258082D01*
X158835119Y-125221530D01*
X158818716Y-125177337D01*
X158817885Y-125175079D01*
X158721659Y-124941246D01*
X158608228Y-124715522D01*
X158478596Y-124499262D01*
X158333764Y-124293822D01*
X158174735Y-124100558D01*
X158002509Y-123920825D01*
X157818090Y-123755979D01*
X157701372Y-123664310D01*
X157668100Y-123638959D01*
X157641929Y-123618050D01*
X157626361Y-123604436D01*
X157623566Y-123600952D01*
X157632994Y-123599338D01*
X157658956Y-123599100D01*
X157658956Y-123541310D01*
X157528190Y-123540263D01*
X157417755Y-123473137D01*
X157197020Y-123350614D01*
X156967400Y-123246006D01*
X156728785Y-123159274D01*
X156481064Y-123090383D01*
X156224124Y-123039295D01*
X156047360Y-123015074D01*
X155991450Y-123010394D01*
X155920085Y-123006923D01*
X155837853Y-123004662D01*
X155749343Y-123003611D01*
X155659142Y-123003770D01*
X155571838Y-123005139D01*
X155492019Y-123007718D01*
X155424274Y-123011507D01*
X155384751Y-123015074D01*
X155121095Y-123054469D01*
X154866193Y-123111930D01*
X154620003Y-123187476D01*
X154382476Y-123281126D01*
X154153568Y-123392897D01*
X153933234Y-123522810D01*
X153721427Y-123670882D01*
X153647913Y-123728111D01*
X153587023Y-123779221D01*
X153517573Y-123841479D01*
X153443922Y-123910662D01*
X153370432Y-123982548D01*
X153301463Y-124052915D01*
X153241376Y-124117540D01*
X153216556Y-124145763D01*
X153056277Y-124347679D01*
X152913032Y-124559979D01*
X152787151Y-124781903D01*
X152678966Y-125012689D01*
X152588810Y-125251575D01*
X152517014Y-125497800D01*
X152463910Y-125750602D01*
X152437835Y-125932799D01*
X152431075Y-126007512D01*
X152426082Y-126096570D01*
X152422896Y-126194761D01*
X152421557Y-126296874D01*
X152422107Y-126397697D01*
X152424584Y-126492019D01*
X152429030Y-126574628D01*
X152432564Y-126615487D01*
X152468969Y-126875481D01*
X152523731Y-127127394D01*
X152596937Y-127371439D01*
X152688676Y-127607830D01*
X152799037Y-127836782D01*
X152928107Y-128058508D01*
X153075976Y-128273222D01*
X153164589Y-128387463D01*
X153201702Y-128431285D01*
X153248734Y-128483555D01*
X153302680Y-128541226D01*
X153360536Y-128601251D01*
X153419294Y-128660584D01*
X153475951Y-128716179D01*
X153527500Y-128764989D01*
X153570936Y-128803968D01*
X153595431Y-128824182D01*
X153621891Y-128845422D01*
X153640627Y-128861755D01*
X153647399Y-128869360D01*
X153638841Y-128874913D01*
X153614423Y-128888348D01*
X153576244Y-128908570D01*
X153526406Y-128934484D01*
X153467006Y-128964997D01*
X153400147Y-128999011D01*
X153354146Y-129022248D01*
X153212593Y-129094294D01*
X153079358Y-129163583D01*
X152955480Y-129229514D01*
X152841997Y-129291487D01*
X152739948Y-129348901D01*
X152650372Y-129401157D01*
X152574308Y-129447654D01*
X152512795Y-129487791D01*
X152466872Y-129520969D01*
X152437578Y-129546586D01*
X152429296Y-129556668D01*
X152418953Y-129574102D01*
X152419025Y-129580354D01*
X152419025Y-129580354D01*
G37*
X152419025Y-129580354D02*
X152431126Y-129575097D01*
X152456867Y-129558000D01*
X152470756Y-129548190D01*
X152497842Y-129529840D01*
X152527573Y-129511861D01*
X152562325Y-129493125D01*
X152604477Y-129472503D01*
X152656406Y-129448868D01*
X152720489Y-129421091D01*
X152799105Y-129388043D01*
X152870244Y-129358622D01*
X152931670Y-129333600D01*
X153008444Y-129302740D01*
X153097161Y-129267379D01*
X153194415Y-129228855D01*
X153296801Y-129188506D01*
X153400915Y-129147670D01*
X153503352Y-129107686D01*
X153600706Y-129069891D01*
X153689572Y-129035623D01*
X153766545Y-129006220D01*
X153781988Y-129000369D01*
X153810648Y-128989532D01*
X153733539Y-128933220D01*
X153701301Y-128908322D01*
X153677500Y-128887298D01*
X153665255Y-128873057D01*
X153664721Y-128869006D01*
X153674970Y-128863388D01*
X153701788Y-128849808D01*
X153743649Y-128829013D01*
X153799028Y-128801749D01*
X153866401Y-128768761D01*
X153944243Y-128730796D01*
X154031029Y-128688599D01*
X154125233Y-128642917D01*
X154225332Y-128594495D01*
X154265344Y-128575172D01*
X154495675Y-128463921D01*
X154709119Y-128360687D01*
X154906925Y-128264860D01*
X155090337Y-128175831D01*
X155260603Y-128092990D01*
X155418968Y-128015727D01*
X155566678Y-127943434D01*
X155704980Y-127875500D01*
X155835120Y-127811316D01*
X155958344Y-127750273D01*
X156075899Y-127691761D01*
X156189030Y-127635170D01*
X156253170Y-127602958D01*
X156340492Y-127559299D01*
X156415559Y-127522018D01*
X156480093Y-127489790D01*
X156535820Y-127461287D01*
X156584462Y-127435185D01*
X156627744Y-127410158D01*
X156667388Y-127384879D01*
X156705118Y-127358022D01*
X156742659Y-127328263D01*
X156781733Y-127294274D01*
X156824065Y-127254730D01*
X156871378Y-127208305D01*
X156925396Y-127153674D01*
X156987842Y-127089510D01*
X157060440Y-127014487D01*
X157144913Y-126927280D01*
X157184491Y-126886554D01*
X157256369Y-126813095D01*
X157327443Y-126741228D01*
X157395806Y-126672826D01*
X157459553Y-126609766D01*
X157516777Y-126553923D01*
X157565572Y-126507171D01*
X157604031Y-126471386D01*
X157627693Y-126450557D01*
X157694302Y-126393906D01*
X157773063Y-126325212D01*
X157861789Y-126246482D01*
X157958292Y-126159725D01*
X158060383Y-126066952D01*
X158165873Y-125970170D01*
X158272576Y-125871390D01*
X158378303Y-125772620D01*
X158480865Y-125675869D01*
X158578074Y-125583146D01*
X158667743Y-125496461D01*
X158682276Y-125482277D01*
X158731495Y-125434303D01*
X158775708Y-125391468D01*
X158812984Y-125355624D01*
X158841390Y-125328621D01*
X158858992Y-125312311D01*
X158864010Y-125308216D01*
X158868406Y-125320556D01*
X158876450Y-125348514D01*
X158887143Y-125388177D01*
X158899487Y-125435627D01*
X158912484Y-125486951D01*
X158925137Y-125538232D01*
X158936446Y-125585556D01*
X158945415Y-125625007D01*
X158948646Y-125640248D01*
X158960804Y-125704725D01*
X158967207Y-125751584D01*
X158967973Y-125782406D01*
X158963219Y-125798773D01*
X158960583Y-125801197D01*
X158951119Y-125810789D01*
X158932312Y-125832492D01*
X158907264Y-125862665D01*
X158889490Y-125884616D01*
X158826677Y-125962917D01*
X158976133Y-125804457D01*
X158982227Y-125838509D01*
X158990957Y-125898866D01*
X158998029Y-125971208D01*
X159003462Y-126052794D01*
X159007277Y-126140882D01*
X159009494Y-126232733D01*
X159010133Y-126325604D01*
X159009214Y-126416756D01*
X159006757Y-126503446D01*
X159002782Y-126582934D01*
X158997310Y-126652479D01*
X158990359Y-126709339D01*
X158981951Y-126750774D01*
X158975418Y-126768727D01*
X158963573Y-126780207D01*
X158936044Y-126800525D01*
X158894607Y-126828600D01*
X158841034Y-126863347D01*
X158777098Y-126903685D01*
X158704575Y-126948531D01*
X158625236Y-126996802D01*
X158540857Y-127047416D01*
X158453210Y-127099290D01*
X158364069Y-127151340D01*
X158275208Y-127202486D01*
X158188401Y-127251643D01*
X158140601Y-127278313D01*
X158065587Y-127320634D01*
X157987270Y-127366086D01*
X157910062Y-127412021D01*
X157838374Y-127455788D01*
X157776618Y-127494738D01*
X157739020Y-127519502D01*
X157682446Y-127556553D01*
X157613712Y-127599582D01*
X157538417Y-127645202D01*
X157462161Y-127690025D01*
X157390546Y-127730663D01*
X157383199Y-127734729D01*
X157295052Y-127784622D01*
X157213585Y-127833686D01*
X157133318Y-127885448D01*
X157048778Y-127943438D01*
X156956519Y-128009701D01*
X156758263Y-128151597D01*
X156562387Y-128285685D01*
X156364061Y-128415082D01*
X156158452Y-128542904D01*
X155940732Y-128672269D01*
X155836530Y-128732383D01*
X155774546Y-128768454D01*
X155721042Y-128801279D01*
X155671826Y-128833815D01*
X155622706Y-128869021D01*
X155569488Y-128909857D01*
X155507981Y-128959280D01*
X155465068Y-128994523D01*
X155406066Y-129043164D01*
X155347214Y-129091546D01*
X155291860Y-129136927D01*
X155243355Y-129176562D01*
X155205046Y-129207709D01*
X155188981Y-129220674D01*
X155150543Y-129251876D01*
X155102481Y-129291381D01*
X155050473Y-129334496D01*
X155000201Y-129376528D01*
X154991940Y-129383477D01*
X154950501Y-129417700D01*
X154913815Y-129446739D01*
X154884870Y-129468326D01*
X154866651Y-129480192D01*
X154862508Y-129481771D01*
X154847432Y-129479093D01*
X154820033Y-129472201D01*
X154786213Y-129462810D01*
X154751871Y-129452635D01*
X154722911Y-129443392D01*
X154705231Y-129436794D01*
X154702690Y-129435329D01*
X154706755Y-129426563D01*
X154721674Y-129407725D01*
X154742848Y-129384364D01*
X154763726Y-129361194D01*
X154770645Y-129350348D01*
X154763214Y-129352451D01*
X154762301Y-129353004D01*
X154737895Y-129367041D01*
X154705840Y-129384309D01*
X154692666Y-129391121D01*
X154666914Y-129404822D01*
X154656914Y-129413224D01*
X154660376Y-129419840D01*
X154670170Y-129425604D01*
X154678384Y-129431007D01*
X154681199Y-129437831D01*
X154677001Y-129448657D01*
X154664177Y-129466065D01*
X154641111Y-129492635D01*
X154606192Y-129530950D01*
X154600271Y-129537391D01*
X154496673Y-129651022D01*
X154406322Y-129752253D01*
X154327970Y-129842579D01*
X154260370Y-129923496D01*
X154202275Y-129996500D01*
X154152437Y-130063087D01*
X154109609Y-130124751D01*
X154106577Y-130129321D01*
X154055970Y-130211052D01*
X154019945Y-130280989D01*
X153998626Y-130338784D01*
X153992137Y-130384090D01*
X154000601Y-130416559D01*
X154003296Y-130420467D01*
X154012683Y-130431184D01*
X154017267Y-130429189D01*
X154018836Y-130411573D01*
X154019057Y-130394824D01*
X154025695Y-130350065D01*
X154046938Y-130305657D01*
X154048182Y-130303679D01*
X154073027Y-130268515D01*
X154108953Y-130222972D01*
X154152724Y-130170749D01*
X154201107Y-130115548D01*
X154250865Y-130061067D01*
X154298764Y-130011009D01*
X154336646Y-129973708D01*
X154369668Y-129942729D01*
X154412004Y-129903486D01*
X154461385Y-129858037D01*
X154515541Y-129808444D01*
X154572203Y-129756765D01*
X154629101Y-129705062D01*
X154683966Y-129655394D01*
X154734528Y-129609821D01*
X154778518Y-129570403D01*
X154813666Y-129539200D01*
X154837702Y-129518272D01*
X154845970Y-129511407D01*
X154874101Y-129489279D01*
X154996403Y-129516433D01*
X155102631Y-129538739D01*
X155199850Y-129556083D01*
X155293735Y-129569121D01*
X155389962Y-129578510D01*
X155494207Y-129584907D01*
X155612146Y-129588967D01*
X155626675Y-129589309D01*
X155789888Y-129590568D01*
X155938876Y-129586193D01*
X156078830Y-129575664D01*
X156214942Y-129558461D01*
X156352404Y-129534064D01*
X156495041Y-129502284D01*
X156739762Y-129432789D01*
X156977227Y-129344933D01*
X157206470Y-129239423D01*
X157426526Y-129116968D01*
X157636433Y-128978273D01*
X157835224Y-128824045D01*
X158021935Y-128654992D01*
X158195601Y-128471821D01*
X158355259Y-128275239D01*
X158499943Y-128065953D01*
X158537801Y-128004905D01*
X158653464Y-127796556D01*
X158754640Y-127578609D01*
X158840073Y-127354404D01*
X158908505Y-127127279D01*
X158958676Y-126900575D01*
X158962905Y-126876514D01*
X158973648Y-126823739D01*
X158984727Y-126789687D01*
X158996210Y-126773262D01*
X159009197Y-126764155D01*
X159036248Y-126745393D01*
X159074878Y-126718693D01*
X159122602Y-126685771D01*
X159176934Y-126648344D01*
X159219850Y-126618813D01*
X159376266Y-126508638D01*
X159515379Y-126404994D01*
X159638447Y-126306751D01*
X159746726Y-126212779D01*
X159841474Y-126121947D01*
X159923947Y-126033125D01*
X159995404Y-125945182D01*
X160042730Y-125878812D01*
X160078445Y-125820318D01*
X160113842Y-125752978D01*
X160145965Y-125683181D01*
X160171856Y-125617315D01*
X160187591Y-125565843D01*
X160202208Y-125483512D01*
X160208709Y-125394421D01*
X160206792Y-125307323D01*
X160198657Y-125243152D01*
X160165910Y-125124179D01*
X160113740Y-125010155D01*
X160042223Y-124901234D01*
X160011949Y-124863530D01*
X159989286Y-124834427D01*
X159977522Y-124810738D01*
X159973231Y-124783805D01*
X159972815Y-124764662D01*
X159964929Y-124630121D01*
X159942158Y-124493604D01*
X159933346Y-124461137D01*
X159933346Y-125203084D01*
X159942064Y-125216983D01*
X159946139Y-125230032D01*
X159948330Y-125249074D01*
X159949403Y-125282010D01*
X159949200Y-125322677D01*
X159948867Y-125335447D01*
X159944639Y-125394011D01*
X159934911Y-125442335D01*
X159920401Y-125483819D01*
X159889416Y-125551682D01*
X159853932Y-125612414D01*
X159810231Y-125671431D01*
X159754593Y-125734146D01*
X159733172Y-125756380D01*
X159700486Y-125789191D01*
X159675051Y-125813578D01*
X159658852Y-125827736D01*
X159653874Y-125829856D01*
X159655173Y-125827384D01*
X159719621Y-125723616D01*
X159771015Y-125633955D01*
X159809793Y-125557637D01*
X159811489Y-125553984D01*
X159834581Y-125500107D01*
X159858180Y-125438402D01*
X159880408Y-125374451D01*
X159899389Y-125313835D01*
X159913245Y-125262136D01*
X159918782Y-125234927D01*
X159925379Y-125209102D01*
X159933346Y-125203084D01*
X159933346Y-124461137D01*
X159905825Y-124359737D01*
X159857258Y-124233144D01*
X159797782Y-124118453D01*
X159779001Y-124088563D01*
X159758886Y-124053991D01*
X159743252Y-124020010D01*
X159736995Y-124000190D01*
X159729229Y-123974049D01*
X159715201Y-123937308D01*
X159697733Y-123897274D01*
X159694989Y-123891435D01*
X159645914Y-123811123D01*
X159645792Y-123810993D01*
X159645792Y-124788669D01*
X159653751Y-124791999D01*
X159664513Y-124801384D01*
X159666871Y-124803598D01*
X159679256Y-124816158D01*
X159686914Y-124828640D01*
X159689960Y-124844927D01*
X159688512Y-124868900D01*
X159682688Y-124904443D01*
X159672604Y-124955438D01*
X159671603Y-124960370D01*
X159662455Y-125001396D01*
X159650687Y-125048398D01*
X159637374Y-125097741D01*
X159623590Y-125145793D01*
X159610410Y-125188919D01*
X159598909Y-125223485D01*
X159590161Y-125245859D01*
X159585241Y-125252406D01*
X159585234Y-125252398D01*
X159585192Y-125241540D01*
X159588240Y-125215731D01*
X159593770Y-125179757D01*
X159596392Y-125164435D01*
X159603056Y-125120636D01*
X159610162Y-125064173D01*
X159616848Y-125002417D01*
X159622133Y-124944253D01*
X159627179Y-124882417D01*
X159631329Y-124838267D01*
X159635320Y-124809477D01*
X159639895Y-124793719D01*
X159645792Y-124788669D01*
X159645792Y-123810993D01*
X159580567Y-123741487D01*
X159500088Y-123683197D01*
X159405614Y-123636928D01*
X159298284Y-123603349D01*
X159179236Y-123583134D01*
X159171307Y-123582317D01*
X159128136Y-123575253D01*
X159076945Y-123562847D01*
X159028170Y-123547660D01*
X159024079Y-123546179D01*
X158903128Y-123506882D01*
X158883526Y-123501826D01*
X158883526Y-123697464D01*
X158955336Y-123701844D01*
X158999065Y-123706281D01*
X159034917Y-123715317D01*
X159072429Y-123731842D01*
X159095889Y-123744426D01*
X159234070Y-123829855D01*
X159354106Y-123922609D01*
X159456786Y-124023325D01*
X159492741Y-124065447D01*
X159541540Y-124125684D01*
X159535318Y-124190941D01*
X159531561Y-124224933D01*
X159527824Y-124250013D01*
X159525065Y-124260381D01*
X159522362Y-124262532D01*
X159518798Y-124260616D01*
X159512137Y-124251476D01*
X159500146Y-124231958D01*
X159480588Y-124198903D01*
X159475897Y-124190941D01*
X159401962Y-124081216D01*
X159315508Y-123982691D01*
X159214746Y-123893763D01*
X159097886Y-123812828D01*
X158981142Y-123747366D01*
X158883526Y-123697464D01*
X158883526Y-123501826D01*
X158764671Y-123471168D01*
X158611038Y-123439519D01*
X158444562Y-123412418D01*
X158276135Y-123391271D01*
X158223569Y-123386658D01*
X158159612Y-123382788D01*
X158087310Y-123379681D01*
X158009708Y-123377360D01*
X157929852Y-123375845D01*
X157850788Y-123375158D01*
X157775562Y-123375320D01*
X157707219Y-123376352D01*
X157648806Y-123378276D01*
X157603367Y-123381113D01*
X157573949Y-123384885D01*
X157568348Y-123386314D01*
X157553161Y-123391848D01*
X157552391Y-123394923D01*
X157568069Y-123396402D01*
X157593447Y-123397013D01*
X157673211Y-123400272D01*
X157767932Y-123407297D01*
X157872968Y-123417494D01*
X157983675Y-123430270D01*
X158095411Y-123445030D01*
X158203534Y-123461181D01*
X158303399Y-123478129D01*
X158390365Y-123495281D01*
X158426886Y-123503585D01*
X158488030Y-123518925D01*
X158548333Y-123535183D01*
X158604813Y-123551431D01*
X158654483Y-123566742D01*
X158694360Y-123580185D01*
X158721459Y-123590833D01*
X158732795Y-123597756D01*
X158732829Y-123598778D01*
X158716577Y-123607999D01*
X158684652Y-123612609D01*
X158640920Y-123612614D01*
X158589250Y-123608021D01*
X158533507Y-123598838D01*
X158531326Y-123598392D01*
X158456500Y-123583849D01*
X158384880Y-123572032D01*
X158313058Y-123562660D01*
X158237627Y-123555455D01*
X158155177Y-123550137D01*
X158062301Y-123546426D01*
X157955588Y-123544042D01*
X157854475Y-123542875D01*
X157658956Y-123541310D01*
X157658956Y-123599100D01*
X157697967Y-123600065D01*
X157746540Y-123602056D01*
X157801191Y-123604900D01*
X157858434Y-123608423D01*
X157914784Y-123612448D01*
X157966755Y-123616802D01*
X157995028Y-123619567D01*
X158042152Y-123625144D01*
X158096187Y-123632554D01*
X158153193Y-123641138D01*
X158209228Y-123650237D01*
X158260349Y-123659191D01*
X158302616Y-123667341D01*
X158332086Y-123674029D01*
X158343820Y-123677894D01*
X158339742Y-123683315D01*
X158319633Y-123693257D01*
X158286660Y-123706364D01*
X158243990Y-123721276D01*
X158238405Y-123723110D01*
X158171050Y-123745697D01*
X158114489Y-123765895D01*
X158070646Y-123782941D01*
X158041443Y-123796070D01*
X158028805Y-123804519D01*
X158028786Y-123806386D01*
X158039656Y-123806048D01*
X158066247Y-123802049D01*
X158104672Y-123795051D01*
X158151042Y-123785717D01*
X158155514Y-123784777D01*
X158218810Y-123771958D01*
X158290433Y-123758305D01*
X158359785Y-123745804D01*
X158397791Y-123739372D01*
X158517591Y-123719827D01*
X158605183Y-123750335D01*
X158672352Y-123775863D01*
X158746006Y-123807430D01*
X158820616Y-123842376D01*
X158890649Y-123878045D01*
X158950572Y-123911777D01*
X158980304Y-123930609D01*
X159043710Y-123978483D01*
X159109028Y-124036581D01*
X159169937Y-124098813D01*
X159220117Y-124159094D01*
X159226224Y-124167446D01*
X159246204Y-124197831D01*
X159268218Y-124235249D01*
X159290237Y-124275690D01*
X159310235Y-124315144D01*
X159326183Y-124349603D01*
X159336054Y-124375055D01*
X159337821Y-124387493D01*
X159337626Y-124387737D01*
X159327188Y-124385889D01*
X159303359Y-124377208D01*
X159270890Y-124363460D01*
X159264103Y-124360405D01*
X159195892Y-124330765D01*
X159114243Y-124297422D01*
X159024917Y-124262559D01*
X158933672Y-124228359D01*
X158846268Y-124197006D01*
X158768465Y-124170680D01*
X158737953Y-124161005D01*
X158682029Y-124144274D01*
X158618822Y-124126222D01*
X158551489Y-124107662D01*
X158483185Y-124089406D01*
X158417066Y-124072266D01*
X158356286Y-124057055D01*
X158304002Y-124044585D01*
X158263370Y-124035669D01*
X158237544Y-124031118D01*
X158231821Y-124030705D01*
X158235668Y-124034366D01*
X158256189Y-124044576D01*
X158291399Y-124060474D01*
X158339311Y-124081196D01*
X158397941Y-124105879D01*
X158465301Y-124133659D01*
X158517083Y-124154688D01*
X158625436Y-124198776D01*
X158718463Y-124237540D01*
X158799671Y-124272616D01*
X158872567Y-124305643D01*
X158940659Y-124338257D01*
X159007454Y-124372096D01*
X159076459Y-124408797D01*
X159151181Y-124449999D01*
X159159140Y-124454450D01*
X159230135Y-124494493D01*
X159285301Y-124526433D01*
X159326534Y-124551597D01*
X159355731Y-124571313D01*
X159374788Y-124586908D01*
X159385604Y-124599710D01*
X159390074Y-124611047D01*
X159390522Y-124616397D01*
X159385174Y-124634593D01*
X159370741Y-124664575D01*
X159349636Y-124701669D01*
X159332063Y-124729551D01*
X159303906Y-124770474D01*
X159267100Y-124821156D01*
X159225858Y-124875935D01*
X159184393Y-124929148D01*
X159172516Y-124943989D01*
X159164633Y-124953612D01*
X159164633Y-125536238D01*
X159169653Y-125541257D01*
X159164633Y-125546277D01*
X159159613Y-125541257D01*
X159164633Y-125536238D01*
X159164633Y-124953612D01*
X159156145Y-124963974D01*
X159156145Y-125556317D01*
X159154243Y-125563991D01*
X159139534Y-125586931D01*
X159112106Y-125625011D01*
X159072046Y-125678107D01*
X159051337Y-125705033D01*
X159024481Y-125738843D01*
X159002167Y-125765148D01*
X158987107Y-125780858D01*
X158982163Y-125783794D01*
X158986416Y-125774951D01*
X159000606Y-125753924D01*
X159022082Y-125724177D01*
X159048196Y-125689171D01*
X159076300Y-125652370D01*
X159103746Y-125617236D01*
X159127885Y-125587232D01*
X159146068Y-125565822D01*
X159155647Y-125556467D01*
X159156145Y-125556317D01*
X159156145Y-124963974D01*
X159137119Y-124987201D01*
X159097302Y-125034645D01*
X159055099Y-125084022D01*
X159012547Y-125133033D01*
X158971681Y-125179379D01*
X158934537Y-125220763D01*
X158903151Y-125254884D01*
X158879558Y-125279444D01*
X158865794Y-125292145D01*
X158863191Y-125293293D01*
X158858791Y-125283251D01*
X158848955Y-125258082D01*
X158835119Y-125221530D01*
X158818716Y-125177337D01*
X158817885Y-125175079D01*
X158721659Y-124941246D01*
X158608228Y-124715522D01*
X158478596Y-124499262D01*
X158333764Y-124293822D01*
X158174735Y-124100558D01*
X158002509Y-123920825D01*
X157818090Y-123755979D01*
X157701372Y-123664310D01*
X157668100Y-123638959D01*
X157641929Y-123618050D01*
X157626361Y-123604436D01*
X157623566Y-123600952D01*
X157632994Y-123599338D01*
X157658956Y-123599100D01*
X157658956Y-123541310D01*
X157528190Y-123540263D01*
X157417755Y-123473137D01*
X157197020Y-123350614D01*
X156967400Y-123246006D01*
X156728785Y-123159274D01*
X156481064Y-123090383D01*
X156224124Y-123039295D01*
X156047360Y-123015074D01*
X155991450Y-123010394D01*
X155920085Y-123006923D01*
X155837853Y-123004662D01*
X155749343Y-123003611D01*
X155659142Y-123003770D01*
X155571838Y-123005139D01*
X155492019Y-123007718D01*
X155424274Y-123011507D01*
X155384751Y-123015074D01*
X155121095Y-123054469D01*
X154866193Y-123111930D01*
X154620003Y-123187476D01*
X154382476Y-123281126D01*
X154153568Y-123392897D01*
X153933234Y-123522810D01*
X153721427Y-123670882D01*
X153647913Y-123728111D01*
X153587023Y-123779221D01*
X153517573Y-123841479D01*
X153443922Y-123910662D01*
X153370432Y-123982548D01*
X153301463Y-124052915D01*
X153241376Y-124117540D01*
X153216556Y-124145763D01*
X153056277Y-124347679D01*
X152913032Y-124559979D01*
X152787151Y-124781903D01*
X152678966Y-125012689D01*
X152588810Y-125251575D01*
X152517014Y-125497800D01*
X152463910Y-125750602D01*
X152437835Y-125932799D01*
X152431075Y-126007512D01*
X152426082Y-126096570D01*
X152422896Y-126194761D01*
X152421557Y-126296874D01*
X152422107Y-126397697D01*
X152424584Y-126492019D01*
X152429030Y-126574628D01*
X152432564Y-126615487D01*
X152468969Y-126875481D01*
X152523731Y-127127394D01*
X152596937Y-127371439D01*
X152688676Y-127607830D01*
X152799037Y-127836782D01*
X152928107Y-128058508D01*
X153075976Y-128273222D01*
X153164589Y-128387463D01*
X153201702Y-128431285D01*
X153248734Y-128483555D01*
X153302680Y-128541226D01*
X153360536Y-128601251D01*
X153419294Y-128660584D01*
X153475951Y-128716179D01*
X153527500Y-128764989D01*
X153570936Y-128803968D01*
X153595431Y-128824182D01*
X153621891Y-128845422D01*
X153640627Y-128861755D01*
X153647399Y-128869360D01*
X153638841Y-128874913D01*
X153614423Y-128888348D01*
X153576244Y-128908570D01*
X153526406Y-128934484D01*
X153467006Y-128964997D01*
X153400147Y-128999011D01*
X153354146Y-129022248D01*
X153212593Y-129094294D01*
X153079358Y-129163583D01*
X152955480Y-129229514D01*
X152841997Y-129291487D01*
X152739948Y-129348901D01*
X152650372Y-129401157D01*
X152574308Y-129447654D01*
X152512795Y-129487791D01*
X152466872Y-129520969D01*
X152437578Y-129546586D01*
X152429296Y-129556668D01*
X152418953Y-129574102D01*
X152419025Y-129580354D01*
G36*
X151196769Y-105438611D02*
G01*
X151206247Y-105504325D01*
X151221802Y-105557830D01*
X151225335Y-105565991D01*
X151240513Y-105598743D01*
X151235418Y-105568625D01*
X151223662Y-105463801D01*
X151224445Y-105365617D01*
X151237718Y-105278532D01*
X151238611Y-105274937D01*
X151271983Y-105173457D01*
X151321990Y-105067707D01*
X151388926Y-104957329D01*
X151473084Y-104841959D01*
X151574758Y-104721239D01*
X151694241Y-104594807D01*
X151831827Y-104462302D01*
X151987810Y-104323364D01*
X152069484Y-104254131D01*
X152146949Y-104189990D01*
X152222490Y-104128712D01*
X152297494Y-104069339D01*
X152373349Y-104010908D01*
X152451443Y-103952460D01*
X152533164Y-103893035D01*
X152619901Y-103831672D01*
X152713042Y-103767412D01*
X152813974Y-103699293D01*
X152924086Y-103626356D01*
X153044766Y-103547640D01*
X153177402Y-103462185D01*
X153323382Y-103369032D01*
X153484094Y-103267218D01*
X153619803Y-103181657D01*
X153934436Y-102986545D01*
X154246350Y-102798882D01*
X154550508Y-102621685D01*
X154628775Y-102577089D01*
X154699489Y-102536787D01*
X154780819Y-102490095D01*
X154866107Y-102440858D01*
X154948695Y-102392919D01*
X155020674Y-102350857D01*
X155092491Y-102308962D01*
X155172024Y-102263005D01*
X155253086Y-102216534D01*
X155329487Y-102173095D01*
X155395041Y-102136235D01*
X155397156Y-102135056D01*
X155454093Y-102103267D01*
X155507926Y-102073110D01*
X155555088Y-102046591D01*
X155592012Y-102025717D01*
X155615129Y-102012493D01*
X155615844Y-102012077D01*
X155659198Y-101986822D01*
X155555607Y-101947847D01*
X155504375Y-101927404D01*
X155445534Y-101901989D01*
X155381588Y-101872877D01*
X155315037Y-101841341D01*
X155248382Y-101808658D01*
X155184126Y-101776103D01*
X155124768Y-101744949D01*
X155072811Y-101716473D01*
X155030756Y-101691950D01*
X155001104Y-101672654D01*
X154986357Y-101659860D01*
X154985178Y-101657081D01*
X154993572Y-101650335D01*
X155016847Y-101635854D01*
X155052146Y-101615309D01*
X155096609Y-101590370D01*
X155138281Y-101567609D01*
X155206074Y-101530856D01*
X155278307Y-101491446D01*
X155352820Y-101450579D01*
X155427458Y-101409455D01*
X155500062Y-101369274D01*
X155568475Y-101331236D01*
X155630539Y-101296542D01*
X155684098Y-101266392D01*
X155726993Y-101241986D01*
X155757067Y-101224524D01*
X155772163Y-101215207D01*
X155773281Y-101214350D01*
X155768874Y-101213653D01*
X155749080Y-101218990D01*
X155717314Y-101229345D01*
X155687945Y-101239701D01*
X155618839Y-101264852D01*
X155542605Y-101292809D01*
X155461372Y-101322773D01*
X155377267Y-101353946D01*
X155292420Y-101385528D01*
X155208958Y-101416720D01*
X155129010Y-101446723D01*
X155054705Y-101474739D01*
X154988170Y-101499966D01*
X154931535Y-101521608D01*
X154886927Y-101538864D01*
X154856475Y-101550936D01*
X154842307Y-101557024D01*
X154841613Y-101557455D01*
X154845539Y-101565923D01*
X154863113Y-101581805D01*
X154890842Y-101602061D01*
X154899340Y-101607705D01*
X154930290Y-101628646D01*
X154953329Y-101645714D01*
X154964390Y-101655855D01*
X154964812Y-101656899D01*
X154956266Y-101663255D01*
X154932483Y-101677546D01*
X154895993Y-101698341D01*
X154849322Y-101724212D01*
X154794996Y-101753730D01*
X154767148Y-101768664D01*
X154701663Y-101803835D01*
X154623853Y-101845945D01*
X154538931Y-101892151D01*
X154452110Y-101939615D01*
X154368602Y-101985494D01*
X154318166Y-102013343D01*
X154245007Y-102053768D01*
X154158862Y-102101255D01*
X154064376Y-102153250D01*
X153966191Y-102207202D01*
X153868949Y-102260558D01*
X153777295Y-102310766D01*
X153745297Y-102328269D01*
X153597700Y-102409620D01*
X153455022Y-102489524D01*
X153318716Y-102567118D01*
X153190233Y-102641536D01*
X153071026Y-102711911D01*
X152962547Y-102777379D01*
X152866248Y-102837074D01*
X152783581Y-102890131D01*
X152715998Y-102935683D01*
X152668561Y-102970089D01*
X152610448Y-103018284D01*
X152568666Y-103061268D01*
X152543611Y-103098327D01*
X152535683Y-103128750D01*
X152545278Y-103151825D01*
X152561105Y-103162547D01*
X152587923Y-103172486D01*
X152603690Y-103174196D01*
X152605795Y-103168540D01*
X152591630Y-103156379D01*
X152587557Y-103153813D01*
X152564026Y-103134440D01*
X152557450Y-103116440D01*
X152557492Y-103116202D01*
X152569535Y-103097334D01*
X152599608Y-103071203D01*
X152647147Y-103038126D01*
X152711588Y-102998420D01*
X152792369Y-102952404D01*
X152888925Y-102900393D01*
X153000694Y-102842707D01*
X153127113Y-102779662D01*
X153267616Y-102711576D01*
X153318617Y-102687278D01*
X153369608Y-102663348D01*
X153432769Y-102634141D01*
X153506448Y-102600391D01*
X153588993Y-102562833D01*
X153678752Y-102522202D01*
X153774073Y-102479233D01*
X153873302Y-102434660D01*
X153974789Y-102389220D01*
X154076880Y-102343646D01*
X154177923Y-102298674D01*
X154276266Y-102255038D01*
X154370257Y-102213474D01*
X154458244Y-102174715D01*
X154538573Y-102139499D01*
X154609594Y-102108558D01*
X154669653Y-102082628D01*
X154717099Y-102062444D01*
X154750279Y-102048741D01*
X154767541Y-102042254D01*
X154769666Y-102041874D01*
X154762482Y-102048020D01*
X154740835Y-102063760D01*
X154706958Y-102087536D01*
X154663087Y-102117791D01*
X154611456Y-102152968D01*
X154571006Y-102180285D01*
X154503757Y-102225822D01*
X154424848Y-102279733D01*
X154336245Y-102340643D01*
X154239915Y-102407175D01*
X154137824Y-102477953D01*
X154031937Y-102551602D01*
X153924222Y-102626745D01*
X153816642Y-102702006D01*
X153711166Y-102776009D01*
X153609758Y-102847378D01*
X153514385Y-102914736D01*
X153427013Y-102976709D01*
X153349608Y-103031919D01*
X153284135Y-103078991D01*
X153232562Y-103116548D01*
X153218222Y-103127143D01*
X152974530Y-103310410D01*
X152748455Y-103485183D01*
X152539603Y-103651843D01*
X152347578Y-103810766D01*
X152171985Y-103962334D01*
X152012429Y-104106924D01*
X151868515Y-104244915D01*
X151739847Y-104376686D01*
X151626031Y-104502617D01*
X151526671Y-104623087D01*
X151441373Y-104738473D01*
X151369741Y-104849156D01*
X151311379Y-104955514D01*
X151311032Y-104956214D01*
X151273195Y-105035495D01*
X151244791Y-105102971D01*
X151224175Y-105163587D01*
X151209703Y-105222283D01*
X151199731Y-105284003D01*
X151198429Y-105294606D01*
X151193964Y-105366700D01*
X151196769Y-105438611D01*
X151196769Y-105438611D01*
G37*
X151196769Y-105438611D02*
X151206247Y-105504325D01*
X151221802Y-105557830D01*
X151225335Y-105565991D01*
X151240513Y-105598743D01*
X151235418Y-105568625D01*
X151223662Y-105463801D01*
X151224445Y-105365617D01*
X151237718Y-105278532D01*
X151238611Y-105274937D01*
X151271983Y-105173457D01*
X151321990Y-105067707D01*
X151388926Y-104957329D01*
X151473084Y-104841959D01*
X151574758Y-104721239D01*
X151694241Y-104594807D01*
X151831827Y-104462302D01*
X151987810Y-104323364D01*
X152069484Y-104254131D01*
X152146949Y-104189990D01*
X152222490Y-104128712D01*
X152297494Y-104069339D01*
X152373349Y-104010908D01*
X152451443Y-103952460D01*
X152533164Y-103893035D01*
X152619901Y-103831672D01*
X152713042Y-103767412D01*
X152813974Y-103699293D01*
X152924086Y-103626356D01*
X153044766Y-103547640D01*
X153177402Y-103462185D01*
X153323382Y-103369032D01*
X153484094Y-103267218D01*
X153619803Y-103181657D01*
X153934436Y-102986545D01*
X154246350Y-102798882D01*
X154550508Y-102621685D01*
X154628775Y-102577089D01*
X154699489Y-102536787D01*
X154780819Y-102490095D01*
X154866107Y-102440858D01*
X154948695Y-102392919D01*
X155020674Y-102350857D01*
X155092491Y-102308962D01*
X155172024Y-102263005D01*
X155253086Y-102216534D01*
X155329487Y-102173095D01*
X155395041Y-102136235D01*
X155397156Y-102135056D01*
X155454093Y-102103267D01*
X155507926Y-102073110D01*
X155555088Y-102046591D01*
X155592012Y-102025717D01*
X155615129Y-102012493D01*
X155615844Y-102012077D01*
X155659198Y-101986822D01*
X155555607Y-101947847D01*
X155504375Y-101927404D01*
X155445534Y-101901989D01*
X155381588Y-101872877D01*
X155315037Y-101841341D01*
X155248382Y-101808658D01*
X155184126Y-101776103D01*
X155124768Y-101744949D01*
X155072811Y-101716473D01*
X155030756Y-101691950D01*
X155001104Y-101672654D01*
X154986357Y-101659860D01*
X154985178Y-101657081D01*
X154993572Y-101650335D01*
X155016847Y-101635854D01*
X155052146Y-101615309D01*
X155096609Y-101590370D01*
X155138281Y-101567609D01*
X155206074Y-101530856D01*
X155278307Y-101491446D01*
X155352820Y-101450579D01*
X155427458Y-101409455D01*
X155500062Y-101369274D01*
X155568475Y-101331236D01*
X155630539Y-101296542D01*
X155684098Y-101266392D01*
X155726993Y-101241986D01*
X155757067Y-101224524D01*
X155772163Y-101215207D01*
X155773281Y-101214350D01*
X155768874Y-101213653D01*
X155749080Y-101218990D01*
X155717314Y-101229345D01*
X155687945Y-101239701D01*
X155618839Y-101264852D01*
X155542605Y-101292809D01*
X155461372Y-101322773D01*
X155377267Y-101353946D01*
X155292420Y-101385528D01*
X155208958Y-101416720D01*
X155129010Y-101446723D01*
X155054705Y-101474739D01*
X154988170Y-101499966D01*
X154931535Y-101521608D01*
X154886927Y-101538864D01*
X154856475Y-101550936D01*
X154842307Y-101557024D01*
X154841613Y-101557455D01*
X154845539Y-101565923D01*
X154863113Y-101581805D01*
X154890842Y-101602061D01*
X154899340Y-101607705D01*
X154930290Y-101628646D01*
X154953329Y-101645714D01*
X154964390Y-101655855D01*
X154964812Y-101656899D01*
X154956266Y-101663255D01*
X154932483Y-101677546D01*
X154895993Y-101698341D01*
X154849322Y-101724212D01*
X154794996Y-101753730D01*
X154767148Y-101768664D01*
X154701663Y-101803835D01*
X154623853Y-101845945D01*
X154538931Y-101892151D01*
X154452110Y-101939615D01*
X154368602Y-101985494D01*
X154318166Y-102013343D01*
X154245007Y-102053768D01*
X154158862Y-102101255D01*
X154064376Y-102153250D01*
X153966191Y-102207202D01*
X153868949Y-102260558D01*
X153777295Y-102310766D01*
X153745297Y-102328269D01*
X153597700Y-102409620D01*
X153455022Y-102489524D01*
X153318716Y-102567118D01*
X153190233Y-102641536D01*
X153071026Y-102711911D01*
X152962547Y-102777379D01*
X152866248Y-102837074D01*
X152783581Y-102890131D01*
X152715998Y-102935683D01*
X152668561Y-102970089D01*
X152610448Y-103018284D01*
X152568666Y-103061268D01*
X152543611Y-103098327D01*
X152535683Y-103128750D01*
X152545278Y-103151825D01*
X152561105Y-103162547D01*
X152587923Y-103172486D01*
X152603690Y-103174196D01*
X152605795Y-103168540D01*
X152591630Y-103156379D01*
X152587557Y-103153813D01*
X152564026Y-103134440D01*
X152557450Y-103116440D01*
X152557492Y-103116202D01*
X152569535Y-103097334D01*
X152599608Y-103071203D01*
X152647147Y-103038126D01*
X152711588Y-102998420D01*
X152792369Y-102952404D01*
X152888925Y-102900393D01*
X153000694Y-102842707D01*
X153127113Y-102779662D01*
X153267616Y-102711576D01*
X153318617Y-102687278D01*
X153369608Y-102663348D01*
X153432769Y-102634141D01*
X153506448Y-102600391D01*
X153588993Y-102562833D01*
X153678752Y-102522202D01*
X153774073Y-102479233D01*
X153873302Y-102434660D01*
X153974789Y-102389220D01*
X154076880Y-102343646D01*
X154177923Y-102298674D01*
X154276266Y-102255038D01*
X154370257Y-102213474D01*
X154458244Y-102174715D01*
X154538573Y-102139499D01*
X154609594Y-102108558D01*
X154669653Y-102082628D01*
X154717099Y-102062444D01*
X154750279Y-102048741D01*
X154767541Y-102042254D01*
X154769666Y-102041874D01*
X154762482Y-102048020D01*
X154740835Y-102063760D01*
X154706958Y-102087536D01*
X154663087Y-102117791D01*
X154611456Y-102152968D01*
X154571006Y-102180285D01*
X154503757Y-102225822D01*
X154424848Y-102279733D01*
X154336245Y-102340643D01*
X154239915Y-102407175D01*
X154137824Y-102477953D01*
X154031937Y-102551602D01*
X153924222Y-102626745D01*
X153816642Y-102702006D01*
X153711166Y-102776009D01*
X153609758Y-102847378D01*
X153514385Y-102914736D01*
X153427013Y-102976709D01*
X153349608Y-103031919D01*
X153284135Y-103078991D01*
X153232562Y-103116548D01*
X153218222Y-103127143D01*
X152974530Y-103310410D01*
X152748455Y-103485183D01*
X152539603Y-103651843D01*
X152347578Y-103810766D01*
X152171985Y-103962334D01*
X152012429Y-104106924D01*
X151868515Y-104244915D01*
X151739847Y-104376686D01*
X151626031Y-104502617D01*
X151526671Y-104623087D01*
X151441373Y-104738473D01*
X151369741Y-104849156D01*
X151311379Y-104955514D01*
X151311032Y-104956214D01*
X151273195Y-105035495D01*
X151244791Y-105102971D01*
X151224175Y-105163587D01*
X151209703Y-105222283D01*
X151199731Y-105284003D01*
X151198429Y-105294606D01*
X151193964Y-105366700D01*
X151196769Y-105438611D01*
G36*
X155793360Y-101206451D02*
G01*
X155798380Y-101201431D01*
X155793360Y-101196411D01*
X155788340Y-101201431D01*
X155793360Y-101206451D01*
X155793360Y-101206451D01*
G37*
X155793360Y-101206451D02*
X155798380Y-101201431D01*
X155793360Y-101196411D01*
X155788340Y-101201431D01*
X155793360Y-101206451D01*
G36*
X153435025Y-102148354D02*
G01*
X153447126Y-102143097D01*
X153472867Y-102126000D01*
X153486756Y-102116190D01*
X153513842Y-102097840D01*
X153543573Y-102079861D01*
X153578325Y-102061125D01*
X153620477Y-102040503D01*
X153672406Y-102016868D01*
X153736489Y-101989091D01*
X153815105Y-101956043D01*
X153886244Y-101926622D01*
X153947670Y-101901600D01*
X154024444Y-101870740D01*
X154113161Y-101835379D01*
X154210415Y-101796855D01*
X154312801Y-101756506D01*
X154416915Y-101715670D01*
X154519352Y-101675686D01*
X154616706Y-101637891D01*
X154705572Y-101603623D01*
X154782545Y-101574220D01*
X154797988Y-101568369D01*
X154826648Y-101557532D01*
X154749539Y-101501220D01*
X154717301Y-101476322D01*
X154693500Y-101455298D01*
X154681255Y-101441057D01*
X154680721Y-101437006D01*
X154690970Y-101431388D01*
X154717788Y-101417808D01*
X154759649Y-101397013D01*
X154815028Y-101369749D01*
X154882401Y-101336761D01*
X154960243Y-101298796D01*
X155047029Y-101256599D01*
X155141233Y-101210917D01*
X155241332Y-101162495D01*
X155281344Y-101143172D01*
X155511675Y-101031921D01*
X155725119Y-100928687D01*
X155922925Y-100832860D01*
X156106337Y-100743831D01*
X156276603Y-100660990D01*
X156434968Y-100583727D01*
X156582678Y-100511434D01*
X156720980Y-100443500D01*
X156851120Y-100379316D01*
X156974344Y-100318273D01*
X157091899Y-100259761D01*
X157205030Y-100203170D01*
X157269170Y-100170958D01*
X157356492Y-100127299D01*
X157431559Y-100090018D01*
X157496093Y-100057790D01*
X157551820Y-100029287D01*
X157600462Y-100003185D01*
X157643744Y-99978158D01*
X157683388Y-99952879D01*
X157721118Y-99926022D01*
X157758659Y-99896263D01*
X157797733Y-99862274D01*
X157840065Y-99822730D01*
X157887378Y-99776305D01*
X157941396Y-99721674D01*
X158003842Y-99657510D01*
X158076440Y-99582487D01*
X158160913Y-99495280D01*
X158200491Y-99454554D01*
X158272369Y-99381095D01*
X158343443Y-99309228D01*
X158411806Y-99240826D01*
X158475553Y-99177766D01*
X158532777Y-99121923D01*
X158581572Y-99075171D01*
X158620031Y-99039386D01*
X158643693Y-99018557D01*
X158710302Y-98961906D01*
X158789063Y-98893212D01*
X158877789Y-98814482D01*
X158974292Y-98727725D01*
X159076383Y-98634952D01*
X159181873Y-98538170D01*
X159288576Y-98439390D01*
X159394303Y-98340620D01*
X159496865Y-98243869D01*
X159594074Y-98151146D01*
X159683743Y-98064461D01*
X159698276Y-98050277D01*
X159747495Y-98002303D01*
X159791708Y-97959468D01*
X159828984Y-97923624D01*
X159857390Y-97896621D01*
X159874992Y-97880311D01*
X159880010Y-97876216D01*
X159884406Y-97888556D01*
X159892450Y-97916514D01*
X159903143Y-97956177D01*
X159915487Y-98003627D01*
X159928484Y-98054951D01*
X159941137Y-98106232D01*
X159952446Y-98153556D01*
X159961415Y-98193007D01*
X159964646Y-98208248D01*
X159976804Y-98272725D01*
X159983207Y-98319584D01*
X159983973Y-98350406D01*
X159979219Y-98366773D01*
X159976583Y-98369197D01*
X159967119Y-98378789D01*
X159948312Y-98400492D01*
X159923264Y-98430665D01*
X159905490Y-98452616D01*
X159842677Y-98530917D01*
X159992133Y-98372457D01*
X159998227Y-98406509D01*
X160006957Y-98466866D01*
X160014029Y-98539208D01*
X160019462Y-98620794D01*
X160023277Y-98708882D01*
X160025494Y-98800733D01*
X160026133Y-98893604D01*
X160025214Y-98984756D01*
X160022757Y-99071446D01*
X160018782Y-99150934D01*
X160013310Y-99220479D01*
X160006359Y-99277339D01*
X159997951Y-99318774D01*
X159991418Y-99336727D01*
X159979573Y-99348207D01*
X159952044Y-99368525D01*
X159910607Y-99396600D01*
X159857034Y-99431347D01*
X159793098Y-99471685D01*
X159720575Y-99516531D01*
X159641236Y-99564802D01*
X159556857Y-99615416D01*
X159469210Y-99667290D01*
X159380069Y-99719340D01*
X159291208Y-99770486D01*
X159204401Y-99819643D01*
X159156601Y-99846313D01*
X159081587Y-99888634D01*
X159003270Y-99934086D01*
X158926062Y-99980021D01*
X158854374Y-100023788D01*
X158792618Y-100062738D01*
X158755020Y-100087502D01*
X158698446Y-100124553D01*
X158629712Y-100167582D01*
X158554417Y-100213202D01*
X158478161Y-100258025D01*
X158406546Y-100298663D01*
X158399199Y-100302729D01*
X158311052Y-100352622D01*
X158229585Y-100401686D01*
X158149318Y-100453448D01*
X158064778Y-100511438D01*
X157972519Y-100577701D01*
X157774263Y-100719597D01*
X157578387Y-100853685D01*
X157380061Y-100983082D01*
X157174452Y-101110904D01*
X156956732Y-101240269D01*
X156852530Y-101300383D01*
X156790546Y-101336454D01*
X156737042Y-101369279D01*
X156687826Y-101401815D01*
X156638706Y-101437021D01*
X156585488Y-101477857D01*
X156523981Y-101527280D01*
X156481068Y-101562523D01*
X156422066Y-101611164D01*
X156363214Y-101659546D01*
X156307860Y-101704927D01*
X156259355Y-101744562D01*
X156221046Y-101775709D01*
X156204981Y-101788674D01*
X156166543Y-101819876D01*
X156118481Y-101859381D01*
X156066473Y-101902496D01*
X156016201Y-101944528D01*
X156007940Y-101951477D01*
X155966501Y-101985700D01*
X155929815Y-102014739D01*
X155900870Y-102036326D01*
X155882651Y-102048192D01*
X155878508Y-102049771D01*
X155863432Y-102047093D01*
X155836033Y-102040201D01*
X155802213Y-102030810D01*
X155767871Y-102020635D01*
X155738911Y-102011392D01*
X155721231Y-102004794D01*
X155718690Y-102003329D01*
X155722755Y-101994563D01*
X155737674Y-101975725D01*
X155758848Y-101952364D01*
X155779726Y-101929194D01*
X155786645Y-101918348D01*
X155779214Y-101920451D01*
X155778301Y-101921004D01*
X155753895Y-101935041D01*
X155721840Y-101952309D01*
X155708666Y-101959121D01*
X155682914Y-101972822D01*
X155672914Y-101981224D01*
X155676376Y-101987840D01*
X155686170Y-101993604D01*
X155694384Y-101999007D01*
X155697199Y-102005831D01*
X155693001Y-102016657D01*
X155680177Y-102034065D01*
X155657111Y-102060635D01*
X155622192Y-102098950D01*
X155616271Y-102105391D01*
X155512673Y-102219022D01*
X155422322Y-102320253D01*
X155343970Y-102410579D01*
X155276370Y-102491496D01*
X155218275Y-102564500D01*
X155168437Y-102631087D01*
X155125609Y-102692751D01*
X155122577Y-102697321D01*
X155071970Y-102779052D01*
X155035945Y-102848989D01*
X155014626Y-102906784D01*
X155008137Y-102952090D01*
X155016601Y-102984559D01*
X155019296Y-102988467D01*
X155028683Y-102999184D01*
X155033267Y-102997189D01*
X155034836Y-102979573D01*
X155035057Y-102962824D01*
X155041695Y-102918065D01*
X155062938Y-102873657D01*
X155064182Y-102871679D01*
X155089027Y-102836515D01*
X155124953Y-102790972D01*
X155168724Y-102738749D01*
X155217107Y-102683548D01*
X155266865Y-102629067D01*
X155314764Y-102579009D01*
X155352646Y-102541708D01*
X155385668Y-102510729D01*
X155428004Y-102471486D01*
X155477385Y-102426037D01*
X155531541Y-102376444D01*
X155588203Y-102324765D01*
X155645101Y-102273062D01*
X155699966Y-102223394D01*
X155750528Y-102177821D01*
X155794518Y-102138403D01*
X155829666Y-102107200D01*
X155853702Y-102086272D01*
X155861970Y-102079407D01*
X155890101Y-102057279D01*
X156012403Y-102084433D01*
X156118631Y-102106739D01*
X156215850Y-102124083D01*
X156309735Y-102137121D01*
X156405962Y-102146510D01*
X156510207Y-102152907D01*
X156628146Y-102156967D01*
X156642675Y-102157309D01*
X156805888Y-102158568D01*
X156954876Y-102154193D01*
X157094830Y-102143664D01*
X157230942Y-102126461D01*
X157368404Y-102102064D01*
X157511041Y-102070284D01*
X157755762Y-102000789D01*
X157993227Y-101912933D01*
X158222470Y-101807423D01*
X158442526Y-101684968D01*
X158652433Y-101546273D01*
X158851224Y-101392045D01*
X159037935Y-101222992D01*
X159211601Y-101039821D01*
X159371259Y-100843239D01*
X159515943Y-100633953D01*
X159553801Y-100572905D01*
X159669464Y-100364556D01*
X159770640Y-100146609D01*
X159856073Y-99922404D01*
X159924505Y-99695279D01*
X159974676Y-99468575D01*
X159978905Y-99444514D01*
X159989648Y-99391739D01*
X160000727Y-99357687D01*
X160012210Y-99341262D01*
X160025197Y-99332155D01*
X160052248Y-99313393D01*
X160090878Y-99286693D01*
X160138602Y-99253771D01*
X160192934Y-99216344D01*
X160235850Y-99186813D01*
X160392266Y-99076638D01*
X160531379Y-98972994D01*
X160654447Y-98874751D01*
X160762726Y-98780779D01*
X160857474Y-98689947D01*
X160939947Y-98601125D01*
X161011404Y-98513182D01*
X161058730Y-98446812D01*
X161094445Y-98388318D01*
X161129842Y-98320978D01*
X161161965Y-98251181D01*
X161187856Y-98185315D01*
X161203591Y-98133843D01*
X161218208Y-98051512D01*
X161224709Y-97962421D01*
X161222792Y-97875323D01*
X161214657Y-97811152D01*
X161181910Y-97692179D01*
X161129740Y-97578155D01*
X161058223Y-97469234D01*
X161027949Y-97431530D01*
X161005286Y-97402427D01*
X160993522Y-97378738D01*
X160989231Y-97351805D01*
X160988815Y-97332662D01*
X160980929Y-97198121D01*
X160958158Y-97061604D01*
X160949346Y-97029137D01*
X160949346Y-97771084D01*
X160958064Y-97784983D01*
X160962139Y-97798032D01*
X160964330Y-97817074D01*
X160965403Y-97850010D01*
X160965200Y-97890677D01*
X160964867Y-97903447D01*
X160960639Y-97962011D01*
X160950911Y-98010335D01*
X160936401Y-98051819D01*
X160905416Y-98119682D01*
X160869932Y-98180414D01*
X160826231Y-98239431D01*
X160770593Y-98302146D01*
X160749172Y-98324380D01*
X160716486Y-98357191D01*
X160691051Y-98381578D01*
X160674852Y-98395736D01*
X160669874Y-98397856D01*
X160671173Y-98395384D01*
X160735621Y-98291616D01*
X160787015Y-98201955D01*
X160825793Y-98125637D01*
X160827489Y-98121984D01*
X160850581Y-98068107D01*
X160874180Y-98006402D01*
X160896408Y-97942451D01*
X160915389Y-97881835D01*
X160929245Y-97830136D01*
X160934782Y-97802927D01*
X160941379Y-97777102D01*
X160949346Y-97771084D01*
X160949346Y-97029137D01*
X160921825Y-96927737D01*
X160873258Y-96801144D01*
X160813782Y-96686453D01*
X160795001Y-96656563D01*
X160774886Y-96621991D01*
X160759252Y-96588010D01*
X160752995Y-96568190D01*
X160745229Y-96542049D01*
X160731201Y-96505308D01*
X160713733Y-96465274D01*
X160710989Y-96459435D01*
X160661914Y-96379123D01*
X160661792Y-96378993D01*
X160661792Y-97356669D01*
X160669751Y-97359999D01*
X160680513Y-97369384D01*
X160682871Y-97371598D01*
X160695256Y-97384158D01*
X160702914Y-97396640D01*
X160705960Y-97412927D01*
X160704512Y-97436900D01*
X160698688Y-97472443D01*
X160688604Y-97523438D01*
X160687603Y-97528370D01*
X160678455Y-97569396D01*
X160666687Y-97616398D01*
X160653374Y-97665741D01*
X160639590Y-97713793D01*
X160626410Y-97756919D01*
X160614909Y-97791485D01*
X160606161Y-97813859D01*
X160601241Y-97820406D01*
X160601234Y-97820398D01*
X160601192Y-97809540D01*
X160604240Y-97783731D01*
X160609770Y-97747757D01*
X160612392Y-97732435D01*
X160619056Y-97688636D01*
X160626162Y-97632173D01*
X160632848Y-97570417D01*
X160638133Y-97512253D01*
X160643179Y-97450417D01*
X160647329Y-97406267D01*
X160651320Y-97377477D01*
X160655895Y-97361719D01*
X160661792Y-97356669D01*
X160661792Y-96378993D01*
X160596567Y-96309487D01*
X160516088Y-96251197D01*
X160421614Y-96204928D01*
X160314284Y-96171349D01*
X160195236Y-96151134D01*
X160187307Y-96150317D01*
X160144136Y-96143253D01*
X160092945Y-96130847D01*
X160044170Y-96115660D01*
X160040079Y-96114179D01*
X159919128Y-96074882D01*
X159899526Y-96069826D01*
X159899526Y-96265464D01*
X159971336Y-96269844D01*
X160015065Y-96274281D01*
X160050917Y-96283317D01*
X160088429Y-96299842D01*
X160111889Y-96312426D01*
X160250070Y-96397855D01*
X160370106Y-96490609D01*
X160472786Y-96591325D01*
X160508741Y-96633447D01*
X160557540Y-96693684D01*
X160551318Y-96758941D01*
X160547561Y-96792933D01*
X160543824Y-96818013D01*
X160541065Y-96828381D01*
X160538362Y-96830532D01*
X160534798Y-96828616D01*
X160528137Y-96819476D01*
X160516146Y-96799958D01*
X160496588Y-96766903D01*
X160491897Y-96758941D01*
X160417962Y-96649216D01*
X160331508Y-96550691D01*
X160230746Y-96461763D01*
X160113886Y-96380828D01*
X159997142Y-96315366D01*
X159899526Y-96265464D01*
X159899526Y-96069826D01*
X159780671Y-96039168D01*
X159627038Y-96007519D01*
X159460562Y-95980418D01*
X159292135Y-95959271D01*
X159239569Y-95954658D01*
X159175612Y-95950788D01*
X159103310Y-95947681D01*
X159025708Y-95945360D01*
X158945852Y-95943845D01*
X158866788Y-95943158D01*
X158791562Y-95943320D01*
X158723219Y-95944352D01*
X158664806Y-95946276D01*
X158619367Y-95949113D01*
X158589949Y-95952885D01*
X158584348Y-95954314D01*
X158569161Y-95959848D01*
X158568391Y-95962923D01*
X158584069Y-95964402D01*
X158609447Y-95965013D01*
X158689211Y-95968272D01*
X158783932Y-95975297D01*
X158888968Y-95985494D01*
X158999675Y-95998270D01*
X159111411Y-96013030D01*
X159219534Y-96029181D01*
X159319399Y-96046129D01*
X159406365Y-96063281D01*
X159442886Y-96071585D01*
X159504030Y-96086925D01*
X159564333Y-96103183D01*
X159620813Y-96119431D01*
X159670483Y-96134742D01*
X159710360Y-96148185D01*
X159737459Y-96158833D01*
X159748795Y-96165756D01*
X159748829Y-96166778D01*
X159732577Y-96175999D01*
X159700652Y-96180609D01*
X159656920Y-96180614D01*
X159605250Y-96176021D01*
X159549507Y-96166838D01*
X159547326Y-96166392D01*
X159472500Y-96151849D01*
X159400880Y-96140032D01*
X159329058Y-96130660D01*
X159253627Y-96123455D01*
X159171177Y-96118137D01*
X159078301Y-96114426D01*
X158971588Y-96112042D01*
X158870475Y-96110875D01*
X158674956Y-96109310D01*
X158674956Y-96167100D01*
X158713967Y-96168065D01*
X158762540Y-96170056D01*
X158817191Y-96172900D01*
X158874434Y-96176423D01*
X158930784Y-96180448D01*
X158982755Y-96184802D01*
X159011028Y-96187567D01*
X159058152Y-96193144D01*
X159112187Y-96200554D01*
X159169193Y-96209138D01*
X159225228Y-96218237D01*
X159276349Y-96227191D01*
X159318616Y-96235341D01*
X159348086Y-96242029D01*
X159359820Y-96245894D01*
X159355742Y-96251315D01*
X159335633Y-96261257D01*
X159302660Y-96274364D01*
X159259990Y-96289276D01*
X159254405Y-96291110D01*
X159187050Y-96313697D01*
X159130489Y-96333895D01*
X159086646Y-96350941D01*
X159057443Y-96364070D01*
X159044805Y-96372519D01*
X159044786Y-96374386D01*
X159055656Y-96374048D01*
X159082247Y-96370049D01*
X159120672Y-96363051D01*
X159167042Y-96353717D01*
X159171514Y-96352777D01*
X159234810Y-96339958D01*
X159306433Y-96326305D01*
X159375785Y-96313804D01*
X159413791Y-96307372D01*
X159533591Y-96287827D01*
X159621183Y-96318335D01*
X159688352Y-96343863D01*
X159762006Y-96375430D01*
X159836616Y-96410376D01*
X159906649Y-96446045D01*
X159966572Y-96479777D01*
X159996304Y-96498609D01*
X160059710Y-96546483D01*
X160125028Y-96604581D01*
X160185937Y-96666813D01*
X160236117Y-96727094D01*
X160242224Y-96735446D01*
X160262204Y-96765831D01*
X160284218Y-96803249D01*
X160306237Y-96843690D01*
X160326235Y-96883144D01*
X160342183Y-96917603D01*
X160352054Y-96943055D01*
X160353821Y-96955493D01*
X160353626Y-96955737D01*
X160343188Y-96953889D01*
X160319359Y-96945208D01*
X160286890Y-96931460D01*
X160280103Y-96928405D01*
X160211892Y-96898765D01*
X160130243Y-96865422D01*
X160040917Y-96830559D01*
X159949672Y-96796359D01*
X159862268Y-96765006D01*
X159784465Y-96738680D01*
X159753953Y-96729005D01*
X159698029Y-96712274D01*
X159634822Y-96694222D01*
X159567489Y-96675662D01*
X159499185Y-96657406D01*
X159433066Y-96640266D01*
X159372286Y-96625055D01*
X159320002Y-96612585D01*
X159279370Y-96603669D01*
X159253544Y-96599118D01*
X159247821Y-96598705D01*
X159251668Y-96602366D01*
X159272189Y-96612576D01*
X159307399Y-96628474D01*
X159355311Y-96649196D01*
X159413941Y-96673879D01*
X159481301Y-96701659D01*
X159533083Y-96722688D01*
X159641436Y-96766776D01*
X159734463Y-96805540D01*
X159815671Y-96840616D01*
X159888567Y-96873643D01*
X159956659Y-96906257D01*
X160023454Y-96940096D01*
X160092459Y-96976797D01*
X160167181Y-97017999D01*
X160175140Y-97022450D01*
X160246135Y-97062493D01*
X160301301Y-97094433D01*
X160342534Y-97119597D01*
X160371731Y-97139313D01*
X160390788Y-97154908D01*
X160401604Y-97167710D01*
X160406074Y-97179047D01*
X160406522Y-97184397D01*
X160401174Y-97202593D01*
X160386741Y-97232575D01*
X160365636Y-97269669D01*
X160348063Y-97297551D01*
X160319906Y-97338474D01*
X160283100Y-97389156D01*
X160241858Y-97443935D01*
X160200393Y-97497148D01*
X160188516Y-97511989D01*
X160180633Y-97521612D01*
X160180633Y-98104238D01*
X160185653Y-98109257D01*
X160180633Y-98114277D01*
X160175613Y-98109257D01*
X160180633Y-98104238D01*
X160180633Y-97521612D01*
X160172145Y-97531974D01*
X160172145Y-98124317D01*
X160170243Y-98131991D01*
X160155534Y-98154931D01*
X160128106Y-98193011D01*
X160088046Y-98246107D01*
X160067337Y-98273033D01*
X160040481Y-98306843D01*
X160018167Y-98333148D01*
X160003107Y-98348858D01*
X159998163Y-98351794D01*
X160002416Y-98342951D01*
X160016606Y-98321924D01*
X160038082Y-98292177D01*
X160064196Y-98257171D01*
X160092300Y-98220370D01*
X160119746Y-98185236D01*
X160143885Y-98155232D01*
X160162068Y-98133822D01*
X160171647Y-98124467D01*
X160172145Y-98124317D01*
X160172145Y-97531974D01*
X160153119Y-97555201D01*
X160113302Y-97602645D01*
X160071099Y-97652022D01*
X160028547Y-97701033D01*
X159987681Y-97747379D01*
X159950537Y-97788763D01*
X159919151Y-97822884D01*
X159895558Y-97847444D01*
X159881794Y-97860145D01*
X159879191Y-97861293D01*
X159874791Y-97851251D01*
X159864955Y-97826082D01*
X159851119Y-97789530D01*
X159834716Y-97745337D01*
X159833885Y-97743079D01*
X159737659Y-97509246D01*
X159624228Y-97283522D01*
X159494596Y-97067262D01*
X159349764Y-96861822D01*
X159190735Y-96668558D01*
X159018509Y-96488825D01*
X158834090Y-96323979D01*
X158717372Y-96232310D01*
X158684100Y-96206959D01*
X158657929Y-96186050D01*
X158642361Y-96172436D01*
X158639566Y-96168952D01*
X158648994Y-96167338D01*
X158674956Y-96167100D01*
X158674956Y-96109310D01*
X158544190Y-96108263D01*
X158433755Y-96041137D01*
X158213020Y-95918614D01*
X157983400Y-95814006D01*
X157744785Y-95727274D01*
X157497064Y-95658383D01*
X157240124Y-95607295D01*
X157063360Y-95583074D01*
X157007450Y-95578394D01*
X156936085Y-95574923D01*
X156853853Y-95572662D01*
X156765343Y-95571611D01*
X156675142Y-95571770D01*
X156587838Y-95573139D01*
X156508019Y-95575718D01*
X156440274Y-95579507D01*
X156400751Y-95583074D01*
X156137095Y-95622469D01*
X155882193Y-95679930D01*
X155636003Y-95755476D01*
X155398476Y-95849126D01*
X155169568Y-95960897D01*
X154949234Y-96090810D01*
X154737427Y-96238882D01*
X154663913Y-96296111D01*
X154603023Y-96347221D01*
X154533573Y-96409479D01*
X154459922Y-96478662D01*
X154386432Y-96550548D01*
X154317463Y-96620915D01*
X154257376Y-96685540D01*
X154232556Y-96713763D01*
X154072277Y-96915679D01*
X153929032Y-97127979D01*
X153803151Y-97349903D01*
X153694966Y-97580689D01*
X153604810Y-97819575D01*
X153533014Y-98065800D01*
X153479910Y-98318602D01*
X153453835Y-98500799D01*
X153447075Y-98575512D01*
X153442082Y-98664570D01*
X153438896Y-98762761D01*
X153437557Y-98864874D01*
X153438107Y-98965697D01*
X153440584Y-99060019D01*
X153445030Y-99142628D01*
X153448564Y-99183487D01*
X153484969Y-99443481D01*
X153539731Y-99695394D01*
X153612937Y-99939439D01*
X153704676Y-100175830D01*
X153815037Y-100404782D01*
X153944107Y-100626508D01*
X154091976Y-100841222D01*
X154180589Y-100955463D01*
X154217702Y-100999285D01*
X154264734Y-101051555D01*
X154318680Y-101109226D01*
X154376536Y-101169251D01*
X154435294Y-101228584D01*
X154491951Y-101284179D01*
X154543500Y-101332989D01*
X154586936Y-101371968D01*
X154611431Y-101392182D01*
X154637891Y-101413422D01*
X154656627Y-101429755D01*
X154663399Y-101437360D01*
X154654841Y-101442913D01*
X154630423Y-101456348D01*
X154592244Y-101476570D01*
X154542406Y-101502484D01*
X154483006Y-101532997D01*
X154416147Y-101567011D01*
X154370146Y-101590248D01*
X154228593Y-101662294D01*
X154095358Y-101731583D01*
X153971480Y-101797514D01*
X153857997Y-101859487D01*
X153755948Y-101916901D01*
X153666372Y-101969157D01*
X153590308Y-102015654D01*
X153528795Y-102055791D01*
X153482872Y-102088969D01*
X153453578Y-102114586D01*
X153445296Y-102124668D01*
X153434953Y-102142102D01*
X153435025Y-102148354D01*
X153435025Y-102148354D01*
G37*
X153435025Y-102148354D02*
X153447126Y-102143097D01*
X153472867Y-102126000D01*
X153486756Y-102116190D01*
X153513842Y-102097840D01*
X153543573Y-102079861D01*
X153578325Y-102061125D01*
X153620477Y-102040503D01*
X153672406Y-102016868D01*
X153736489Y-101989091D01*
X153815105Y-101956043D01*
X153886244Y-101926622D01*
X153947670Y-101901600D01*
X154024444Y-101870740D01*
X154113161Y-101835379D01*
X154210415Y-101796855D01*
X154312801Y-101756506D01*
X154416915Y-101715670D01*
X154519352Y-101675686D01*
X154616706Y-101637891D01*
X154705572Y-101603623D01*
X154782545Y-101574220D01*
X154797988Y-101568369D01*
X154826648Y-101557532D01*
X154749539Y-101501220D01*
X154717301Y-101476322D01*
X154693500Y-101455298D01*
X154681255Y-101441057D01*
X154680721Y-101437006D01*
X154690970Y-101431388D01*
X154717788Y-101417808D01*
X154759649Y-101397013D01*
X154815028Y-101369749D01*
X154882401Y-101336761D01*
X154960243Y-101298796D01*
X155047029Y-101256599D01*
X155141233Y-101210917D01*
X155241332Y-101162495D01*
X155281344Y-101143172D01*
X155511675Y-101031921D01*
X155725119Y-100928687D01*
X155922925Y-100832860D01*
X156106337Y-100743831D01*
X156276603Y-100660990D01*
X156434968Y-100583727D01*
X156582678Y-100511434D01*
X156720980Y-100443500D01*
X156851120Y-100379316D01*
X156974344Y-100318273D01*
X157091899Y-100259761D01*
X157205030Y-100203170D01*
X157269170Y-100170958D01*
X157356492Y-100127299D01*
X157431559Y-100090018D01*
X157496093Y-100057790D01*
X157551820Y-100029287D01*
X157600462Y-100003185D01*
X157643744Y-99978158D01*
X157683388Y-99952879D01*
X157721118Y-99926022D01*
X157758659Y-99896263D01*
X157797733Y-99862274D01*
X157840065Y-99822730D01*
X157887378Y-99776305D01*
X157941396Y-99721674D01*
X158003842Y-99657510D01*
X158076440Y-99582487D01*
X158160913Y-99495280D01*
X158200491Y-99454554D01*
X158272369Y-99381095D01*
X158343443Y-99309228D01*
X158411806Y-99240826D01*
X158475553Y-99177766D01*
X158532777Y-99121923D01*
X158581572Y-99075171D01*
X158620031Y-99039386D01*
X158643693Y-99018557D01*
X158710302Y-98961906D01*
X158789063Y-98893212D01*
X158877789Y-98814482D01*
X158974292Y-98727725D01*
X159076383Y-98634952D01*
X159181873Y-98538170D01*
X159288576Y-98439390D01*
X159394303Y-98340620D01*
X159496865Y-98243869D01*
X159594074Y-98151146D01*
X159683743Y-98064461D01*
X159698276Y-98050277D01*
X159747495Y-98002303D01*
X159791708Y-97959468D01*
X159828984Y-97923624D01*
X159857390Y-97896621D01*
X159874992Y-97880311D01*
X159880010Y-97876216D01*
X159884406Y-97888556D01*
X159892450Y-97916514D01*
X159903143Y-97956177D01*
X159915487Y-98003627D01*
X159928484Y-98054951D01*
X159941137Y-98106232D01*
X159952446Y-98153556D01*
X159961415Y-98193007D01*
X159964646Y-98208248D01*
X159976804Y-98272725D01*
X159983207Y-98319584D01*
X159983973Y-98350406D01*
X159979219Y-98366773D01*
X159976583Y-98369197D01*
X159967119Y-98378789D01*
X159948312Y-98400492D01*
X159923264Y-98430665D01*
X159905490Y-98452616D01*
X159842677Y-98530917D01*
X159992133Y-98372457D01*
X159998227Y-98406509D01*
X160006957Y-98466866D01*
X160014029Y-98539208D01*
X160019462Y-98620794D01*
X160023277Y-98708882D01*
X160025494Y-98800733D01*
X160026133Y-98893604D01*
X160025214Y-98984756D01*
X160022757Y-99071446D01*
X160018782Y-99150934D01*
X160013310Y-99220479D01*
X160006359Y-99277339D01*
X159997951Y-99318774D01*
X159991418Y-99336727D01*
X159979573Y-99348207D01*
X159952044Y-99368525D01*
X159910607Y-99396600D01*
X159857034Y-99431347D01*
X159793098Y-99471685D01*
X159720575Y-99516531D01*
X159641236Y-99564802D01*
X159556857Y-99615416D01*
X159469210Y-99667290D01*
X159380069Y-99719340D01*
X159291208Y-99770486D01*
X159204401Y-99819643D01*
X159156601Y-99846313D01*
X159081587Y-99888634D01*
X159003270Y-99934086D01*
X158926062Y-99980021D01*
X158854374Y-100023788D01*
X158792618Y-100062738D01*
X158755020Y-100087502D01*
X158698446Y-100124553D01*
X158629712Y-100167582D01*
X158554417Y-100213202D01*
X158478161Y-100258025D01*
X158406546Y-100298663D01*
X158399199Y-100302729D01*
X158311052Y-100352622D01*
X158229585Y-100401686D01*
X158149318Y-100453448D01*
X158064778Y-100511438D01*
X157972519Y-100577701D01*
X157774263Y-100719597D01*
X157578387Y-100853685D01*
X157380061Y-100983082D01*
X157174452Y-101110904D01*
X156956732Y-101240269D01*
X156852530Y-101300383D01*
X156790546Y-101336454D01*
X156737042Y-101369279D01*
X156687826Y-101401815D01*
X156638706Y-101437021D01*
X156585488Y-101477857D01*
X156523981Y-101527280D01*
X156481068Y-101562523D01*
X156422066Y-101611164D01*
X156363214Y-101659546D01*
X156307860Y-101704927D01*
X156259355Y-101744562D01*
X156221046Y-101775709D01*
X156204981Y-101788674D01*
X156166543Y-101819876D01*
X156118481Y-101859381D01*
X156066473Y-101902496D01*
X156016201Y-101944528D01*
X156007940Y-101951477D01*
X155966501Y-101985700D01*
X155929815Y-102014739D01*
X155900870Y-102036326D01*
X155882651Y-102048192D01*
X155878508Y-102049771D01*
X155863432Y-102047093D01*
X155836033Y-102040201D01*
X155802213Y-102030810D01*
X155767871Y-102020635D01*
X155738911Y-102011392D01*
X155721231Y-102004794D01*
X155718690Y-102003329D01*
X155722755Y-101994563D01*
X155737674Y-101975725D01*
X155758848Y-101952364D01*
X155779726Y-101929194D01*
X155786645Y-101918348D01*
X155779214Y-101920451D01*
X155778301Y-101921004D01*
X155753895Y-101935041D01*
X155721840Y-101952309D01*
X155708666Y-101959121D01*
X155682914Y-101972822D01*
X155672914Y-101981224D01*
X155676376Y-101987840D01*
X155686170Y-101993604D01*
X155694384Y-101999007D01*
X155697199Y-102005831D01*
X155693001Y-102016657D01*
X155680177Y-102034065D01*
X155657111Y-102060635D01*
X155622192Y-102098950D01*
X155616271Y-102105391D01*
X155512673Y-102219022D01*
X155422322Y-102320253D01*
X155343970Y-102410579D01*
X155276370Y-102491496D01*
X155218275Y-102564500D01*
X155168437Y-102631087D01*
X155125609Y-102692751D01*
X155122577Y-102697321D01*
X155071970Y-102779052D01*
X155035945Y-102848989D01*
X155014626Y-102906784D01*
X155008137Y-102952090D01*
X155016601Y-102984559D01*
X155019296Y-102988467D01*
X155028683Y-102999184D01*
X155033267Y-102997189D01*
X155034836Y-102979573D01*
X155035057Y-102962824D01*
X155041695Y-102918065D01*
X155062938Y-102873657D01*
X155064182Y-102871679D01*
X155089027Y-102836515D01*
X155124953Y-102790972D01*
X155168724Y-102738749D01*
X155217107Y-102683548D01*
X155266865Y-102629067D01*
X155314764Y-102579009D01*
X155352646Y-102541708D01*
X155385668Y-102510729D01*
X155428004Y-102471486D01*
X155477385Y-102426037D01*
X155531541Y-102376444D01*
X155588203Y-102324765D01*
X155645101Y-102273062D01*
X155699966Y-102223394D01*
X155750528Y-102177821D01*
X155794518Y-102138403D01*
X155829666Y-102107200D01*
X155853702Y-102086272D01*
X155861970Y-102079407D01*
X155890101Y-102057279D01*
X156012403Y-102084433D01*
X156118631Y-102106739D01*
X156215850Y-102124083D01*
X156309735Y-102137121D01*
X156405962Y-102146510D01*
X156510207Y-102152907D01*
X156628146Y-102156967D01*
X156642675Y-102157309D01*
X156805888Y-102158568D01*
X156954876Y-102154193D01*
X157094830Y-102143664D01*
X157230942Y-102126461D01*
X157368404Y-102102064D01*
X157511041Y-102070284D01*
X157755762Y-102000789D01*
X157993227Y-101912933D01*
X158222470Y-101807423D01*
X158442526Y-101684968D01*
X158652433Y-101546273D01*
X158851224Y-101392045D01*
X159037935Y-101222992D01*
X159211601Y-101039821D01*
X159371259Y-100843239D01*
X159515943Y-100633953D01*
X159553801Y-100572905D01*
X159669464Y-100364556D01*
X159770640Y-100146609D01*
X159856073Y-99922404D01*
X159924505Y-99695279D01*
X159974676Y-99468575D01*
X159978905Y-99444514D01*
X159989648Y-99391739D01*
X160000727Y-99357687D01*
X160012210Y-99341262D01*
X160025197Y-99332155D01*
X160052248Y-99313393D01*
X160090878Y-99286693D01*
X160138602Y-99253771D01*
X160192934Y-99216344D01*
X160235850Y-99186813D01*
X160392266Y-99076638D01*
X160531379Y-98972994D01*
X160654447Y-98874751D01*
X160762726Y-98780779D01*
X160857474Y-98689947D01*
X160939947Y-98601125D01*
X161011404Y-98513182D01*
X161058730Y-98446812D01*
X161094445Y-98388318D01*
X161129842Y-98320978D01*
X161161965Y-98251181D01*
X161187856Y-98185315D01*
X161203591Y-98133843D01*
X161218208Y-98051512D01*
X161224709Y-97962421D01*
X161222792Y-97875323D01*
X161214657Y-97811152D01*
X161181910Y-97692179D01*
X161129740Y-97578155D01*
X161058223Y-97469234D01*
X161027949Y-97431530D01*
X161005286Y-97402427D01*
X160993522Y-97378738D01*
X160989231Y-97351805D01*
X160988815Y-97332662D01*
X160980929Y-97198121D01*
X160958158Y-97061604D01*
X160949346Y-97029137D01*
X160949346Y-97771084D01*
X160958064Y-97784983D01*
X160962139Y-97798032D01*
X160964330Y-97817074D01*
X160965403Y-97850010D01*
X160965200Y-97890677D01*
X160964867Y-97903447D01*
X160960639Y-97962011D01*
X160950911Y-98010335D01*
X160936401Y-98051819D01*
X160905416Y-98119682D01*
X160869932Y-98180414D01*
X160826231Y-98239431D01*
X160770593Y-98302146D01*
X160749172Y-98324380D01*
X160716486Y-98357191D01*
X160691051Y-98381578D01*
X160674852Y-98395736D01*
X160669874Y-98397856D01*
X160671173Y-98395384D01*
X160735621Y-98291616D01*
X160787015Y-98201955D01*
X160825793Y-98125637D01*
X160827489Y-98121984D01*
X160850581Y-98068107D01*
X160874180Y-98006402D01*
X160896408Y-97942451D01*
X160915389Y-97881835D01*
X160929245Y-97830136D01*
X160934782Y-97802927D01*
X160941379Y-97777102D01*
X160949346Y-97771084D01*
X160949346Y-97029137D01*
X160921825Y-96927737D01*
X160873258Y-96801144D01*
X160813782Y-96686453D01*
X160795001Y-96656563D01*
X160774886Y-96621991D01*
X160759252Y-96588010D01*
X160752995Y-96568190D01*
X160745229Y-96542049D01*
X160731201Y-96505308D01*
X160713733Y-96465274D01*
X160710989Y-96459435D01*
X160661914Y-96379123D01*
X160661792Y-96378993D01*
X160661792Y-97356669D01*
X160669751Y-97359999D01*
X160680513Y-97369384D01*
X160682871Y-97371598D01*
X160695256Y-97384158D01*
X160702914Y-97396640D01*
X160705960Y-97412927D01*
X160704512Y-97436900D01*
X160698688Y-97472443D01*
X160688604Y-97523438D01*
X160687603Y-97528370D01*
X160678455Y-97569396D01*
X160666687Y-97616398D01*
X160653374Y-97665741D01*
X160639590Y-97713793D01*
X160626410Y-97756919D01*
X160614909Y-97791485D01*
X160606161Y-97813859D01*
X160601241Y-97820406D01*
X160601234Y-97820398D01*
X160601192Y-97809540D01*
X160604240Y-97783731D01*
X160609770Y-97747757D01*
X160612392Y-97732435D01*
X160619056Y-97688636D01*
X160626162Y-97632173D01*
X160632848Y-97570417D01*
X160638133Y-97512253D01*
X160643179Y-97450417D01*
X160647329Y-97406267D01*
X160651320Y-97377477D01*
X160655895Y-97361719D01*
X160661792Y-97356669D01*
X160661792Y-96378993D01*
X160596567Y-96309487D01*
X160516088Y-96251197D01*
X160421614Y-96204928D01*
X160314284Y-96171349D01*
X160195236Y-96151134D01*
X160187307Y-96150317D01*
X160144136Y-96143253D01*
X160092945Y-96130847D01*
X160044170Y-96115660D01*
X160040079Y-96114179D01*
X159919128Y-96074882D01*
X159899526Y-96069826D01*
X159899526Y-96265464D01*
X159971336Y-96269844D01*
X160015065Y-96274281D01*
X160050917Y-96283317D01*
X160088429Y-96299842D01*
X160111889Y-96312426D01*
X160250070Y-96397855D01*
X160370106Y-96490609D01*
X160472786Y-96591325D01*
X160508741Y-96633447D01*
X160557540Y-96693684D01*
X160551318Y-96758941D01*
X160547561Y-96792933D01*
X160543824Y-96818013D01*
X160541065Y-96828381D01*
X160538362Y-96830532D01*
X160534798Y-96828616D01*
X160528137Y-96819476D01*
X160516146Y-96799958D01*
X160496588Y-96766903D01*
X160491897Y-96758941D01*
X160417962Y-96649216D01*
X160331508Y-96550691D01*
X160230746Y-96461763D01*
X160113886Y-96380828D01*
X159997142Y-96315366D01*
X159899526Y-96265464D01*
X159899526Y-96069826D01*
X159780671Y-96039168D01*
X159627038Y-96007519D01*
X159460562Y-95980418D01*
X159292135Y-95959271D01*
X159239569Y-95954658D01*
X159175612Y-95950788D01*
X159103310Y-95947681D01*
X159025708Y-95945360D01*
X158945852Y-95943845D01*
X158866788Y-95943158D01*
X158791562Y-95943320D01*
X158723219Y-95944352D01*
X158664806Y-95946276D01*
X158619367Y-95949113D01*
X158589949Y-95952885D01*
X158584348Y-95954314D01*
X158569161Y-95959848D01*
X158568391Y-95962923D01*
X158584069Y-95964402D01*
X158609447Y-95965013D01*
X158689211Y-95968272D01*
X158783932Y-95975297D01*
X158888968Y-95985494D01*
X158999675Y-95998270D01*
X159111411Y-96013030D01*
X159219534Y-96029181D01*
X159319399Y-96046129D01*
X159406365Y-96063281D01*
X159442886Y-96071585D01*
X159504030Y-96086925D01*
X159564333Y-96103183D01*
X159620813Y-96119431D01*
X159670483Y-96134742D01*
X159710360Y-96148185D01*
X159737459Y-96158833D01*
X159748795Y-96165756D01*
X159748829Y-96166778D01*
X159732577Y-96175999D01*
X159700652Y-96180609D01*
X159656920Y-96180614D01*
X159605250Y-96176021D01*
X159549507Y-96166838D01*
X159547326Y-96166392D01*
X159472500Y-96151849D01*
X159400880Y-96140032D01*
X159329058Y-96130660D01*
X159253627Y-96123455D01*
X159171177Y-96118137D01*
X159078301Y-96114426D01*
X158971588Y-96112042D01*
X158870475Y-96110875D01*
X158674956Y-96109310D01*
X158674956Y-96167100D01*
X158713967Y-96168065D01*
X158762540Y-96170056D01*
X158817191Y-96172900D01*
X158874434Y-96176423D01*
X158930784Y-96180448D01*
X158982755Y-96184802D01*
X159011028Y-96187567D01*
X159058152Y-96193144D01*
X159112187Y-96200554D01*
X159169193Y-96209138D01*
X159225228Y-96218237D01*
X159276349Y-96227191D01*
X159318616Y-96235341D01*
X159348086Y-96242029D01*
X159359820Y-96245894D01*
X159355742Y-96251315D01*
X159335633Y-96261257D01*
X159302660Y-96274364D01*
X159259990Y-96289276D01*
X159254405Y-96291110D01*
X159187050Y-96313697D01*
X159130489Y-96333895D01*
X159086646Y-96350941D01*
X159057443Y-96364070D01*
X159044805Y-96372519D01*
X159044786Y-96374386D01*
X159055656Y-96374048D01*
X159082247Y-96370049D01*
X159120672Y-96363051D01*
X159167042Y-96353717D01*
X159171514Y-96352777D01*
X159234810Y-96339958D01*
X159306433Y-96326305D01*
X159375785Y-96313804D01*
X159413791Y-96307372D01*
X159533591Y-96287827D01*
X159621183Y-96318335D01*
X159688352Y-96343863D01*
X159762006Y-96375430D01*
X159836616Y-96410376D01*
X159906649Y-96446045D01*
X159966572Y-96479777D01*
X159996304Y-96498609D01*
X160059710Y-96546483D01*
X160125028Y-96604581D01*
X160185937Y-96666813D01*
X160236117Y-96727094D01*
X160242224Y-96735446D01*
X160262204Y-96765831D01*
X160284218Y-96803249D01*
X160306237Y-96843690D01*
X160326235Y-96883144D01*
X160342183Y-96917603D01*
X160352054Y-96943055D01*
X160353821Y-96955493D01*
X160353626Y-96955737D01*
X160343188Y-96953889D01*
X160319359Y-96945208D01*
X160286890Y-96931460D01*
X160280103Y-96928405D01*
X160211892Y-96898765D01*
X160130243Y-96865422D01*
X160040917Y-96830559D01*
X159949672Y-96796359D01*
X159862268Y-96765006D01*
X159784465Y-96738680D01*
X159753953Y-96729005D01*
X159698029Y-96712274D01*
X159634822Y-96694222D01*
X159567489Y-96675662D01*
X159499185Y-96657406D01*
X159433066Y-96640266D01*
X159372286Y-96625055D01*
X159320002Y-96612585D01*
X159279370Y-96603669D01*
X159253544Y-96599118D01*
X159247821Y-96598705D01*
X159251668Y-96602366D01*
X159272189Y-96612576D01*
X159307399Y-96628474D01*
X159355311Y-96649196D01*
X159413941Y-96673879D01*
X159481301Y-96701659D01*
X159533083Y-96722688D01*
X159641436Y-96766776D01*
X159734463Y-96805540D01*
X159815671Y-96840616D01*
X159888567Y-96873643D01*
X159956659Y-96906257D01*
X160023454Y-96940096D01*
X160092459Y-96976797D01*
X160167181Y-97017999D01*
X160175140Y-97022450D01*
X160246135Y-97062493D01*
X160301301Y-97094433D01*
X160342534Y-97119597D01*
X160371731Y-97139313D01*
X160390788Y-97154908D01*
X160401604Y-97167710D01*
X160406074Y-97179047D01*
X160406522Y-97184397D01*
X160401174Y-97202593D01*
X160386741Y-97232575D01*
X160365636Y-97269669D01*
X160348063Y-97297551D01*
X160319906Y-97338474D01*
X160283100Y-97389156D01*
X160241858Y-97443935D01*
X160200393Y-97497148D01*
X160188516Y-97511989D01*
X160180633Y-97521612D01*
X160180633Y-98104238D01*
X160185653Y-98109257D01*
X160180633Y-98114277D01*
X160175613Y-98109257D01*
X160180633Y-98104238D01*
X160180633Y-97521612D01*
X160172145Y-97531974D01*
X160172145Y-98124317D01*
X160170243Y-98131991D01*
X160155534Y-98154931D01*
X160128106Y-98193011D01*
X160088046Y-98246107D01*
X160067337Y-98273033D01*
X160040481Y-98306843D01*
X160018167Y-98333148D01*
X160003107Y-98348858D01*
X159998163Y-98351794D01*
X160002416Y-98342951D01*
X160016606Y-98321924D01*
X160038082Y-98292177D01*
X160064196Y-98257171D01*
X160092300Y-98220370D01*
X160119746Y-98185236D01*
X160143885Y-98155232D01*
X160162068Y-98133822D01*
X160171647Y-98124467D01*
X160172145Y-98124317D01*
X160172145Y-97531974D01*
X160153119Y-97555201D01*
X160113302Y-97602645D01*
X160071099Y-97652022D01*
X160028547Y-97701033D01*
X159987681Y-97747379D01*
X159950537Y-97788763D01*
X159919151Y-97822884D01*
X159895558Y-97847444D01*
X159881794Y-97860145D01*
X159879191Y-97861293D01*
X159874791Y-97851251D01*
X159864955Y-97826082D01*
X159851119Y-97789530D01*
X159834716Y-97745337D01*
X159833885Y-97743079D01*
X159737659Y-97509246D01*
X159624228Y-97283522D01*
X159494596Y-97067262D01*
X159349764Y-96861822D01*
X159190735Y-96668558D01*
X159018509Y-96488825D01*
X158834090Y-96323979D01*
X158717372Y-96232310D01*
X158684100Y-96206959D01*
X158657929Y-96186050D01*
X158642361Y-96172436D01*
X158639566Y-96168952D01*
X158648994Y-96167338D01*
X158674956Y-96167100D01*
X158674956Y-96109310D01*
X158544190Y-96108263D01*
X158433755Y-96041137D01*
X158213020Y-95918614D01*
X157983400Y-95814006D01*
X157744785Y-95727274D01*
X157497064Y-95658383D01*
X157240124Y-95607295D01*
X157063360Y-95583074D01*
X157007450Y-95578394D01*
X156936085Y-95574923D01*
X156853853Y-95572662D01*
X156765343Y-95571611D01*
X156675142Y-95571770D01*
X156587838Y-95573139D01*
X156508019Y-95575718D01*
X156440274Y-95579507D01*
X156400751Y-95583074D01*
X156137095Y-95622469D01*
X155882193Y-95679930D01*
X155636003Y-95755476D01*
X155398476Y-95849126D01*
X155169568Y-95960897D01*
X154949234Y-96090810D01*
X154737427Y-96238882D01*
X154663913Y-96296111D01*
X154603023Y-96347221D01*
X154533573Y-96409479D01*
X154459922Y-96478662D01*
X154386432Y-96550548D01*
X154317463Y-96620915D01*
X154257376Y-96685540D01*
X154232556Y-96713763D01*
X154072277Y-96915679D01*
X153929032Y-97127979D01*
X153803151Y-97349903D01*
X153694966Y-97580689D01*
X153604810Y-97819575D01*
X153533014Y-98065800D01*
X153479910Y-98318602D01*
X153453835Y-98500799D01*
X153447075Y-98575512D01*
X153442082Y-98664570D01*
X153438896Y-98762761D01*
X153437557Y-98864874D01*
X153438107Y-98965697D01*
X153440584Y-99060019D01*
X153445030Y-99142628D01*
X153448564Y-99183487D01*
X153484969Y-99443481D01*
X153539731Y-99695394D01*
X153612937Y-99939439D01*
X153704676Y-100175830D01*
X153815037Y-100404782D01*
X153944107Y-100626508D01*
X154091976Y-100841222D01*
X154180589Y-100955463D01*
X154217702Y-100999285D01*
X154264734Y-101051555D01*
X154318680Y-101109226D01*
X154376536Y-101169251D01*
X154435294Y-101228584D01*
X154491951Y-101284179D01*
X154543500Y-101332989D01*
X154586936Y-101371968D01*
X154611431Y-101392182D01*
X154637891Y-101413422D01*
X154656627Y-101429755D01*
X154663399Y-101437360D01*
X154654841Y-101442913D01*
X154630423Y-101456348D01*
X154592244Y-101476570D01*
X154542406Y-101502484D01*
X154483006Y-101532997D01*
X154416147Y-101567011D01*
X154370146Y-101590248D01*
X154228593Y-101662294D01*
X154095358Y-101731583D01*
X153971480Y-101797514D01*
X153857997Y-101859487D01*
X153755948Y-101916901D01*
X153666372Y-101969157D01*
X153590308Y-102015654D01*
X153528795Y-102055791D01*
X153482872Y-102088969D01*
X153453578Y-102114586D01*
X153445296Y-102124668D01*
X153434953Y-102142102D01*
X153435025Y-102148354D01*
M02*
