M48
; DRILL file {KiCad (5.1.2)-1} date 3/2/2020 7:29:12 PM
; FORMAT={-:-/ absolute / inch / decimal}
; #@! TF.CreationDate,2020-03-02T19:29:12-06:00
; #@! TF.GenerationSoftware,Kicad,Pcbnew,(5.1.2)-1
; #@! TF.FileFunction,Plated,1,2,PTH
FMAT,2
INCH
T1C0.0354
T2C0.0394
%
G90
G05
T1
X6.44Y-5.3
X6.1Y-3.67
X6.2Y-3.67
X5.77Y-5.3
X5.87Y-5.3
X5.97Y-5.3
X6.07Y-5.3
X6.17Y-5.3
X6.54Y-5.3
T2
X5.835Y-3.59
X5.835Y-3.69
X5.835Y-3.79
X5.835Y-3.89
X5.835Y-3.99
X5.835Y-4.09
X5.835Y-4.19
X5.835Y-4.29
X5.835Y-4.39
X5.835Y-4.49
X5.835Y-4.59
X5.835Y-4.69
X5.835Y-4.79
X5.835Y-4.89
X5.835Y-4.99
X6.485Y-3.59
X6.485Y-3.69
X6.485Y-3.79
X6.485Y-3.89
X6.485Y-3.99
X6.485Y-4.09
X6.485Y-4.19
X6.485Y-4.29
X6.485Y-4.39
X6.485Y-4.49
X6.485Y-4.59
X6.485Y-4.69
X6.485Y-4.79
X6.485Y-4.89
X6.485Y-4.99
T0
M30
