G04 #@! TF.GenerationSoftware,KiCad,Pcbnew,(5.1.2)-1*
G04 #@! TF.CreationDate,2020-03-02T19:29:20-06:00*
G04 #@! TF.ProjectId,NanoBreakoutBoard_Rev1_2020,4e616e6f-4272-4656-916b-6f7574426f61,rev?*
G04 #@! TF.SameCoordinates,Original*
G04 #@! TF.FileFunction,Copper,L2,Bot*
G04 #@! TF.FilePolarity,Positive*
%FSLAX46Y46*%
G04 Gerber Fmt 4.6, Leading zero omitted, Abs format (unit mm)*
G04 Created by KiCad (PCBNEW (5.1.2)-1) date 2020-03-02 19:29:20*
%MOMM*%
%LPD*%
G04 APERTURE LIST*
%ADD10C,1.524000*%
%ADD11C,1.520000*%
%ADD12C,0.381000*%
%ADD13C,0.254000*%
G04 APERTURE END LIST*
D10*
X157480000Y-93218000D03*
X154940000Y-93218000D03*
X163576000Y-134620000D03*
X166116000Y-134620000D03*
D11*
X164719000Y-126746000D03*
X164719000Y-124206000D03*
X164719000Y-121666000D03*
X164719000Y-119126000D03*
X164719000Y-116586000D03*
X164719000Y-114046000D03*
X164719000Y-111506000D03*
X164719000Y-108966000D03*
X164719000Y-106426000D03*
X164719000Y-103886000D03*
X164719000Y-101346000D03*
X164719000Y-98806000D03*
X164719000Y-96266000D03*
X164719000Y-93726000D03*
X164719000Y-91186000D03*
X148209000Y-93726000D03*
X148209000Y-126746000D03*
X148209000Y-108966000D03*
X148209000Y-103886000D03*
X148209000Y-106426000D03*
X148209000Y-111506000D03*
X148209000Y-114046000D03*
X148209000Y-98806000D03*
X148209000Y-124206000D03*
X148209000Y-91186000D03*
X148209000Y-119126000D03*
X148209000Y-121666000D03*
X148209000Y-101346000D03*
X148209000Y-96266000D03*
X148209000Y-116586000D03*
D10*
X146558000Y-134620000D03*
X149098000Y-134620000D03*
X151638000Y-134620000D03*
X154178000Y-134620000D03*
X156718000Y-134620000D03*
D12*
X148209000Y-124206000D02*
X149352000Y-124206000D01*
X149352000Y-124206000D02*
X151638000Y-126492000D01*
X151638000Y-132080000D02*
X149098000Y-134620000D01*
X151638000Y-126492000D02*
X151638000Y-132080000D01*
D13*
G36*
X167984635Y-82079446D02*
G01*
X168316153Y-82179536D01*
X168621909Y-82342110D01*
X168890265Y-82560976D01*
X169110999Y-82827798D01*
X169275704Y-83132413D01*
X169378105Y-83463217D01*
X169418000Y-83842796D01*
X169418001Y-142300484D01*
X169352405Y-142142121D01*
X169094132Y-141755588D01*
X168765412Y-141426868D01*
X168378879Y-141168595D01*
X167949387Y-140990694D01*
X167493440Y-140900000D01*
X167028560Y-140900000D01*
X166572613Y-140990694D01*
X166143121Y-141168595D01*
X165756588Y-141426868D01*
X165427868Y-141755588D01*
X165169595Y-142142121D01*
X164991694Y-142571613D01*
X164901000Y-143027560D01*
X164901000Y-143492440D01*
X164991694Y-143948387D01*
X165169595Y-144377879D01*
X165427868Y-144764412D01*
X165756588Y-145093132D01*
X166048229Y-145288000D01*
X163639785Y-145288000D01*
X163937412Y-145089132D01*
X164266132Y-144760412D01*
X164524405Y-144373879D01*
X164702306Y-143944387D01*
X164793000Y-143488440D01*
X164793000Y-143023560D01*
X164702306Y-142567613D01*
X164524405Y-142138121D01*
X164266132Y-141751588D01*
X163937412Y-141422868D01*
X163550879Y-141164595D01*
X163121387Y-140986694D01*
X162665440Y-140896000D01*
X162200560Y-140896000D01*
X161744613Y-140986694D01*
X161315121Y-141164595D01*
X160928588Y-141422868D01*
X160599868Y-141751588D01*
X160341595Y-142138121D01*
X160210500Y-142454613D01*
X160079405Y-142138121D01*
X159821132Y-141751588D01*
X159492412Y-141422868D01*
X159105879Y-141164595D01*
X158676387Y-140986694D01*
X158220440Y-140896000D01*
X157755560Y-140896000D01*
X157299613Y-140986694D01*
X156870121Y-141164595D01*
X156483588Y-141422868D01*
X156154868Y-141751588D01*
X155896595Y-142138121D01*
X155718694Y-142567613D01*
X155628000Y-143023560D01*
X155628000Y-143488440D01*
X155718694Y-143944387D01*
X155896595Y-144373879D01*
X156154868Y-144760412D01*
X156483588Y-145089132D01*
X156781215Y-145288000D01*
X146494785Y-145288000D01*
X146792412Y-145089132D01*
X147121132Y-144760412D01*
X147379405Y-144373879D01*
X147557306Y-143944387D01*
X147648000Y-143488440D01*
X147648000Y-143023560D01*
X147557306Y-142567613D01*
X147379405Y-142138121D01*
X147121132Y-141751588D01*
X146792412Y-141422868D01*
X146405879Y-141164595D01*
X145976387Y-140986694D01*
X145520440Y-140896000D01*
X145055560Y-140896000D01*
X144599613Y-140986694D01*
X144170121Y-141164595D01*
X143783588Y-141422868D01*
X143454868Y-141751588D01*
X143196595Y-142138121D01*
X143018694Y-142567613D01*
X143002000Y-142651539D01*
X143002000Y-101208604D01*
X146814000Y-101208604D01*
X146814000Y-101483396D01*
X146867609Y-101752907D01*
X146972767Y-102006780D01*
X147125433Y-102235261D01*
X147319739Y-102429567D01*
X147548220Y-102582233D01*
X147629740Y-102616000D01*
X147548220Y-102649767D01*
X147319739Y-102802433D01*
X147125433Y-102996739D01*
X146972767Y-103225220D01*
X146867609Y-103479093D01*
X146814000Y-103748604D01*
X146814000Y-104023396D01*
X146867609Y-104292907D01*
X146972767Y-104546780D01*
X147125433Y-104775261D01*
X147319739Y-104969567D01*
X147548220Y-105122233D01*
X147629740Y-105156000D01*
X147548220Y-105189767D01*
X147319739Y-105342433D01*
X147125433Y-105536739D01*
X146972767Y-105765220D01*
X146867609Y-106019093D01*
X146814000Y-106288604D01*
X146814000Y-106563396D01*
X146867609Y-106832907D01*
X146972767Y-107086780D01*
X147125433Y-107315261D01*
X147319739Y-107509567D01*
X147548220Y-107662233D01*
X147629740Y-107696000D01*
X147548220Y-107729767D01*
X147319739Y-107882433D01*
X147125433Y-108076739D01*
X146972767Y-108305220D01*
X146867609Y-108559093D01*
X146814000Y-108828604D01*
X146814000Y-109103396D01*
X146867609Y-109372907D01*
X146972767Y-109626780D01*
X147125433Y-109855261D01*
X147319739Y-110049567D01*
X147548220Y-110202233D01*
X147629740Y-110236000D01*
X147548220Y-110269767D01*
X147319739Y-110422433D01*
X147125433Y-110616739D01*
X146972767Y-110845220D01*
X146867609Y-111099093D01*
X146814000Y-111368604D01*
X146814000Y-111643396D01*
X146867609Y-111912907D01*
X146972767Y-112166780D01*
X147125433Y-112395261D01*
X147319739Y-112589567D01*
X147548220Y-112742233D01*
X147629740Y-112776000D01*
X147548220Y-112809767D01*
X147319739Y-112962433D01*
X147125433Y-113156739D01*
X146972767Y-113385220D01*
X146867609Y-113639093D01*
X146814000Y-113908604D01*
X146814000Y-114183396D01*
X146867609Y-114452907D01*
X146972767Y-114706780D01*
X147125433Y-114935261D01*
X147319739Y-115129567D01*
X147548220Y-115282233D01*
X147629740Y-115316000D01*
X147548220Y-115349767D01*
X147319739Y-115502433D01*
X147125433Y-115696739D01*
X146972767Y-115925220D01*
X146867609Y-116179093D01*
X146814000Y-116448604D01*
X146814000Y-116723396D01*
X146867609Y-116992907D01*
X146972767Y-117246780D01*
X147125433Y-117475261D01*
X147319739Y-117669567D01*
X147548220Y-117822233D01*
X147629740Y-117856000D01*
X147548220Y-117889767D01*
X147319739Y-118042433D01*
X147125433Y-118236739D01*
X146972767Y-118465220D01*
X146867609Y-118719093D01*
X146814000Y-118988604D01*
X146814000Y-119263396D01*
X146867609Y-119532907D01*
X146972767Y-119786780D01*
X147125433Y-120015261D01*
X147319739Y-120209567D01*
X147548220Y-120362233D01*
X147629740Y-120396000D01*
X147548220Y-120429767D01*
X147319739Y-120582433D01*
X147125433Y-120776739D01*
X146972767Y-121005220D01*
X146867609Y-121259093D01*
X146814000Y-121528604D01*
X146814000Y-121803396D01*
X146867609Y-122072907D01*
X146972767Y-122326780D01*
X147125433Y-122555261D01*
X147319739Y-122749567D01*
X147548220Y-122902233D01*
X147629740Y-122936000D01*
X147548220Y-122969767D01*
X147319739Y-123122433D01*
X147125433Y-123316739D01*
X146972767Y-123545220D01*
X146867609Y-123799093D01*
X146814000Y-124068604D01*
X146814000Y-124343396D01*
X146867609Y-124612907D01*
X146972767Y-124866780D01*
X147125433Y-125095261D01*
X147319739Y-125289567D01*
X147548220Y-125442233D01*
X147629740Y-125476000D01*
X147548220Y-125509767D01*
X147319739Y-125662433D01*
X147125433Y-125856739D01*
X146972767Y-126085220D01*
X146867609Y-126339093D01*
X146814000Y-126608604D01*
X146814000Y-126883396D01*
X146867609Y-127152907D01*
X146972767Y-127406780D01*
X147125433Y-127635261D01*
X147319739Y-127829567D01*
X147548220Y-127982233D01*
X147802093Y-128087391D01*
X148071604Y-128141000D01*
X148346396Y-128141000D01*
X148615907Y-128087391D01*
X148869780Y-127982233D01*
X149098261Y-127829567D01*
X149292567Y-127635261D01*
X149445233Y-127406780D01*
X149550391Y-127152907D01*
X149604000Y-126883396D01*
X149604000Y-126608604D01*
X149550391Y-126339093D01*
X149445233Y-126085220D01*
X149292567Y-125856739D01*
X149098261Y-125662433D01*
X148869780Y-125509767D01*
X148788260Y-125476000D01*
X148869780Y-125442233D01*
X149098261Y-125289567D01*
X149183198Y-125204630D01*
X150812500Y-126833933D01*
X150812501Y-131738066D01*
X149312308Y-133238260D01*
X149235592Y-133223000D01*
X148960408Y-133223000D01*
X148690510Y-133276686D01*
X148436273Y-133381995D01*
X148207465Y-133534880D01*
X148012880Y-133729465D01*
X147859995Y-133958273D01*
X147754686Y-134212510D01*
X147701000Y-134482408D01*
X147701000Y-134757592D01*
X147754686Y-135027490D01*
X147859995Y-135281727D01*
X148012880Y-135510535D01*
X148207465Y-135705120D01*
X148436273Y-135858005D01*
X148690510Y-135963314D01*
X148960408Y-136017000D01*
X149235592Y-136017000D01*
X149505490Y-135963314D01*
X149759727Y-135858005D01*
X149988535Y-135705120D01*
X150183120Y-135510535D01*
X150336005Y-135281727D01*
X150368000Y-135204485D01*
X150399995Y-135281727D01*
X150552880Y-135510535D01*
X150747465Y-135705120D01*
X150976273Y-135858005D01*
X151230510Y-135963314D01*
X151500408Y-136017000D01*
X151775592Y-136017000D01*
X152045490Y-135963314D01*
X152299727Y-135858005D01*
X152528535Y-135705120D01*
X152723120Y-135510535D01*
X152876005Y-135281727D01*
X152908000Y-135204485D01*
X152939995Y-135281727D01*
X153092880Y-135510535D01*
X153287465Y-135705120D01*
X153516273Y-135858005D01*
X153770510Y-135963314D01*
X154040408Y-136017000D01*
X154315592Y-136017000D01*
X154585490Y-135963314D01*
X154839727Y-135858005D01*
X155068535Y-135705120D01*
X155263120Y-135510535D01*
X155416005Y-135281727D01*
X155448000Y-135204485D01*
X155479995Y-135281727D01*
X155632880Y-135510535D01*
X155827465Y-135705120D01*
X156056273Y-135858005D01*
X156310510Y-135963314D01*
X156580408Y-136017000D01*
X156855592Y-136017000D01*
X157125490Y-135963314D01*
X157379727Y-135858005D01*
X157608535Y-135705120D01*
X157803120Y-135510535D01*
X157956005Y-135281727D01*
X158061314Y-135027490D01*
X158115000Y-134757592D01*
X158115000Y-134482408D01*
X164719000Y-134482408D01*
X164719000Y-134757592D01*
X164772686Y-135027490D01*
X164877995Y-135281727D01*
X165030880Y-135510535D01*
X165225465Y-135705120D01*
X165454273Y-135858005D01*
X165708510Y-135963314D01*
X165978408Y-136017000D01*
X166253592Y-136017000D01*
X166523490Y-135963314D01*
X166777727Y-135858005D01*
X167006535Y-135705120D01*
X167201120Y-135510535D01*
X167354005Y-135281727D01*
X167459314Y-135027490D01*
X167513000Y-134757592D01*
X167513000Y-134482408D01*
X167459314Y-134212510D01*
X167354005Y-133958273D01*
X167201120Y-133729465D01*
X167006535Y-133534880D01*
X166777727Y-133381995D01*
X166523490Y-133276686D01*
X166253592Y-133223000D01*
X165978408Y-133223000D01*
X165708510Y-133276686D01*
X165454273Y-133381995D01*
X165225465Y-133534880D01*
X165030880Y-133729465D01*
X164877995Y-133958273D01*
X164772686Y-134212510D01*
X164719000Y-134482408D01*
X158115000Y-134482408D01*
X158061314Y-134212510D01*
X157956005Y-133958273D01*
X157803120Y-133729465D01*
X157608535Y-133534880D01*
X157379727Y-133381995D01*
X157125490Y-133276686D01*
X156855592Y-133223000D01*
X156580408Y-133223000D01*
X156310510Y-133276686D01*
X156056273Y-133381995D01*
X155827465Y-133534880D01*
X155632880Y-133729465D01*
X155479995Y-133958273D01*
X155448000Y-134035515D01*
X155416005Y-133958273D01*
X155263120Y-133729465D01*
X155068535Y-133534880D01*
X154839727Y-133381995D01*
X154585490Y-133276686D01*
X154315592Y-133223000D01*
X154040408Y-133223000D01*
X153770510Y-133276686D01*
X153516273Y-133381995D01*
X153287465Y-133534880D01*
X153092880Y-133729465D01*
X152939995Y-133958273D01*
X152908000Y-134035515D01*
X152876005Y-133958273D01*
X152723120Y-133729465D01*
X152528535Y-133534880D01*
X152299727Y-133381995D01*
X152045490Y-133276686D01*
X151775592Y-133223000D01*
X151662433Y-133223000D01*
X152193039Y-132692394D01*
X152224541Y-132666541D01*
X152281639Y-132596967D01*
X152327698Y-132540844D01*
X152332648Y-132531583D01*
X152404353Y-132397434D01*
X152451556Y-132241826D01*
X152463500Y-132120553D01*
X152463500Y-132120544D01*
X152467493Y-132080001D01*
X152463500Y-132039458D01*
X152463500Y-126532550D01*
X152467494Y-126491999D01*
X152452434Y-126339093D01*
X152451556Y-126330174D01*
X152404353Y-126174566D01*
X152327700Y-126031159D01*
X152327699Y-126031157D01*
X152250391Y-125936958D01*
X152224541Y-125905459D01*
X152193041Y-125879608D01*
X149964398Y-123650966D01*
X149938541Y-123619459D01*
X149812842Y-123516301D01*
X149669434Y-123439647D01*
X149513826Y-123392444D01*
X149392553Y-123380500D01*
X149392550Y-123380500D01*
X149352000Y-123376506D01*
X149333706Y-123378308D01*
X149292567Y-123316739D01*
X149098261Y-123122433D01*
X148869780Y-122969767D01*
X148788260Y-122936000D01*
X148869780Y-122902233D01*
X149098261Y-122749567D01*
X149292567Y-122555261D01*
X149445233Y-122326780D01*
X149550391Y-122072907D01*
X149604000Y-121803396D01*
X149604000Y-121528604D01*
X149550391Y-121259093D01*
X149445233Y-121005220D01*
X149292567Y-120776739D01*
X149098261Y-120582433D01*
X148869780Y-120429767D01*
X148788260Y-120396000D01*
X148869780Y-120362233D01*
X149098261Y-120209567D01*
X149292567Y-120015261D01*
X149445233Y-119786780D01*
X149550391Y-119532907D01*
X149604000Y-119263396D01*
X149604000Y-118988604D01*
X149550391Y-118719093D01*
X149445233Y-118465220D01*
X149292567Y-118236739D01*
X149098261Y-118042433D01*
X148869780Y-117889767D01*
X148788260Y-117856000D01*
X148869780Y-117822233D01*
X149098261Y-117669567D01*
X149292567Y-117475261D01*
X149445233Y-117246780D01*
X149550391Y-116992907D01*
X149604000Y-116723396D01*
X149604000Y-116448604D01*
X149550391Y-116179093D01*
X149445233Y-115925220D01*
X149292567Y-115696739D01*
X149098261Y-115502433D01*
X148869780Y-115349767D01*
X148788260Y-115316000D01*
X148869780Y-115282233D01*
X149098261Y-115129567D01*
X149292567Y-114935261D01*
X149445233Y-114706780D01*
X149550391Y-114452907D01*
X149604000Y-114183396D01*
X149604000Y-113908604D01*
X149550391Y-113639093D01*
X149445233Y-113385220D01*
X149292567Y-113156739D01*
X149098261Y-112962433D01*
X148869780Y-112809767D01*
X148788260Y-112776000D01*
X148869780Y-112742233D01*
X149098261Y-112589567D01*
X149292567Y-112395261D01*
X149445233Y-112166780D01*
X149550391Y-111912907D01*
X149604000Y-111643396D01*
X149604000Y-111368604D01*
X149550391Y-111099093D01*
X149445233Y-110845220D01*
X149292567Y-110616739D01*
X149098261Y-110422433D01*
X148869780Y-110269767D01*
X148788260Y-110236000D01*
X148869780Y-110202233D01*
X149098261Y-110049567D01*
X149292567Y-109855261D01*
X149445233Y-109626780D01*
X149550391Y-109372907D01*
X149604000Y-109103396D01*
X149604000Y-108828604D01*
X149550391Y-108559093D01*
X149445233Y-108305220D01*
X149292567Y-108076739D01*
X149098261Y-107882433D01*
X148869780Y-107729767D01*
X148788260Y-107696000D01*
X148869780Y-107662233D01*
X149098261Y-107509567D01*
X149292567Y-107315261D01*
X149445233Y-107086780D01*
X149550391Y-106832907D01*
X149604000Y-106563396D01*
X149604000Y-106288604D01*
X149550391Y-106019093D01*
X149445233Y-105765220D01*
X149292567Y-105536739D01*
X149098261Y-105342433D01*
X148869780Y-105189767D01*
X148788260Y-105156000D01*
X148869780Y-105122233D01*
X149098261Y-104969567D01*
X149292567Y-104775261D01*
X149445233Y-104546780D01*
X149550391Y-104292907D01*
X149604000Y-104023396D01*
X149604000Y-103748604D01*
X149550391Y-103479093D01*
X149445233Y-103225220D01*
X149292567Y-102996739D01*
X149098261Y-102802433D01*
X148869780Y-102649767D01*
X148788260Y-102616000D01*
X148869780Y-102582233D01*
X149098261Y-102429567D01*
X149292567Y-102235261D01*
X149445233Y-102006780D01*
X149550391Y-101752907D01*
X149604000Y-101483396D01*
X149604000Y-101208604D01*
X149550391Y-100939093D01*
X149445233Y-100685220D01*
X149292567Y-100456739D01*
X149098261Y-100262433D01*
X148869780Y-100109767D01*
X148615907Y-100004609D01*
X148346396Y-99951000D01*
X148071604Y-99951000D01*
X147802093Y-100004609D01*
X147548220Y-100109767D01*
X147319739Y-100262433D01*
X147125433Y-100456739D01*
X146972767Y-100685220D01*
X146867609Y-100939093D01*
X146814000Y-101208604D01*
X143002000Y-101208604D01*
X143002000Y-91048604D01*
X146814000Y-91048604D01*
X146814000Y-91323396D01*
X146867609Y-91592907D01*
X146972767Y-91846780D01*
X147125433Y-92075261D01*
X147319739Y-92269567D01*
X147548220Y-92422233D01*
X147629740Y-92456000D01*
X147548220Y-92489767D01*
X147319739Y-92642433D01*
X147125433Y-92836739D01*
X146972767Y-93065220D01*
X146867609Y-93319093D01*
X146814000Y-93588604D01*
X146814000Y-93863396D01*
X146867609Y-94132907D01*
X146972767Y-94386780D01*
X147125433Y-94615261D01*
X147319739Y-94809567D01*
X147548220Y-94962233D01*
X147629740Y-94996000D01*
X147548220Y-95029767D01*
X147319739Y-95182433D01*
X147125433Y-95376739D01*
X146972767Y-95605220D01*
X146867609Y-95859093D01*
X146814000Y-96128604D01*
X146814000Y-96403396D01*
X146867609Y-96672907D01*
X146972767Y-96926780D01*
X147125433Y-97155261D01*
X147319739Y-97349567D01*
X147548220Y-97502233D01*
X147802093Y-97607391D01*
X148071604Y-97661000D01*
X148346396Y-97661000D01*
X148615907Y-97607391D01*
X148869780Y-97502233D01*
X149098261Y-97349567D01*
X149292567Y-97155261D01*
X149445233Y-96926780D01*
X149550391Y-96672907D01*
X149604000Y-96403396D01*
X149604000Y-96128604D01*
X163324000Y-96128604D01*
X163324000Y-96403396D01*
X163377609Y-96672907D01*
X163482767Y-96926780D01*
X163635433Y-97155261D01*
X163829739Y-97349567D01*
X164058220Y-97502233D01*
X164139740Y-97536000D01*
X164058220Y-97569767D01*
X163829739Y-97722433D01*
X163635433Y-97916739D01*
X163482767Y-98145220D01*
X163377609Y-98399093D01*
X163324000Y-98668604D01*
X163324000Y-98943396D01*
X163377609Y-99212907D01*
X163482767Y-99466780D01*
X163635433Y-99695261D01*
X163829739Y-99889567D01*
X164058220Y-100042233D01*
X164139740Y-100076000D01*
X164058220Y-100109767D01*
X163829739Y-100262433D01*
X163635433Y-100456739D01*
X163482767Y-100685220D01*
X163377609Y-100939093D01*
X163324000Y-101208604D01*
X163324000Y-101483396D01*
X163377609Y-101752907D01*
X163482767Y-102006780D01*
X163635433Y-102235261D01*
X163829739Y-102429567D01*
X164058220Y-102582233D01*
X164139740Y-102616000D01*
X164058220Y-102649767D01*
X163829739Y-102802433D01*
X163635433Y-102996739D01*
X163482767Y-103225220D01*
X163377609Y-103479093D01*
X163324000Y-103748604D01*
X163324000Y-104023396D01*
X163377609Y-104292907D01*
X163482767Y-104546780D01*
X163635433Y-104775261D01*
X163829739Y-104969567D01*
X164058220Y-105122233D01*
X164139740Y-105156000D01*
X164058220Y-105189767D01*
X163829739Y-105342433D01*
X163635433Y-105536739D01*
X163482767Y-105765220D01*
X163377609Y-106019093D01*
X163324000Y-106288604D01*
X163324000Y-106563396D01*
X163377609Y-106832907D01*
X163482767Y-107086780D01*
X163635433Y-107315261D01*
X163829739Y-107509567D01*
X164058220Y-107662233D01*
X164139740Y-107696000D01*
X164058220Y-107729767D01*
X163829739Y-107882433D01*
X163635433Y-108076739D01*
X163482767Y-108305220D01*
X163377609Y-108559093D01*
X163324000Y-108828604D01*
X163324000Y-109103396D01*
X163377609Y-109372907D01*
X163482767Y-109626780D01*
X163635433Y-109855261D01*
X163829739Y-110049567D01*
X164058220Y-110202233D01*
X164139740Y-110236000D01*
X164058220Y-110269767D01*
X163829739Y-110422433D01*
X163635433Y-110616739D01*
X163482767Y-110845220D01*
X163377609Y-111099093D01*
X163324000Y-111368604D01*
X163324000Y-111643396D01*
X163377609Y-111912907D01*
X163482767Y-112166780D01*
X163635433Y-112395261D01*
X163829739Y-112589567D01*
X164058220Y-112742233D01*
X164139740Y-112776000D01*
X164058220Y-112809767D01*
X163829739Y-112962433D01*
X163635433Y-113156739D01*
X163482767Y-113385220D01*
X163377609Y-113639093D01*
X163324000Y-113908604D01*
X163324000Y-114183396D01*
X163377609Y-114452907D01*
X163482767Y-114706780D01*
X163635433Y-114935261D01*
X163829739Y-115129567D01*
X164058220Y-115282233D01*
X164139740Y-115316000D01*
X164058220Y-115349767D01*
X163829739Y-115502433D01*
X163635433Y-115696739D01*
X163482767Y-115925220D01*
X163377609Y-116179093D01*
X163324000Y-116448604D01*
X163324000Y-116723396D01*
X163377609Y-116992907D01*
X163482767Y-117246780D01*
X163635433Y-117475261D01*
X163829739Y-117669567D01*
X164058220Y-117822233D01*
X164139740Y-117856000D01*
X164058220Y-117889767D01*
X163829739Y-118042433D01*
X163635433Y-118236739D01*
X163482767Y-118465220D01*
X163377609Y-118719093D01*
X163324000Y-118988604D01*
X163324000Y-119263396D01*
X163377609Y-119532907D01*
X163482767Y-119786780D01*
X163635433Y-120015261D01*
X163829739Y-120209567D01*
X164058220Y-120362233D01*
X164139740Y-120396000D01*
X164058220Y-120429767D01*
X163829739Y-120582433D01*
X163635433Y-120776739D01*
X163482767Y-121005220D01*
X163377609Y-121259093D01*
X163324000Y-121528604D01*
X163324000Y-121803396D01*
X163377609Y-122072907D01*
X163482767Y-122326780D01*
X163635433Y-122555261D01*
X163829739Y-122749567D01*
X164058220Y-122902233D01*
X164139740Y-122936000D01*
X164058220Y-122969767D01*
X163829739Y-123122433D01*
X163635433Y-123316739D01*
X163482767Y-123545220D01*
X163377609Y-123799093D01*
X163324000Y-124068604D01*
X163324000Y-124343396D01*
X163377609Y-124612907D01*
X163482767Y-124866780D01*
X163635433Y-125095261D01*
X163829739Y-125289567D01*
X164058220Y-125442233D01*
X164139740Y-125476000D01*
X164058220Y-125509767D01*
X163829739Y-125662433D01*
X163635433Y-125856739D01*
X163482767Y-126085220D01*
X163377609Y-126339093D01*
X163324000Y-126608604D01*
X163324000Y-126883396D01*
X163377609Y-127152907D01*
X163482767Y-127406780D01*
X163635433Y-127635261D01*
X163829739Y-127829567D01*
X164058220Y-127982233D01*
X164312093Y-128087391D01*
X164581604Y-128141000D01*
X164856396Y-128141000D01*
X165125907Y-128087391D01*
X165379780Y-127982233D01*
X165608261Y-127829567D01*
X165802567Y-127635261D01*
X165955233Y-127406780D01*
X166060391Y-127152907D01*
X166114000Y-126883396D01*
X166114000Y-126608604D01*
X166060391Y-126339093D01*
X165955233Y-126085220D01*
X165802567Y-125856739D01*
X165608261Y-125662433D01*
X165379780Y-125509767D01*
X165298260Y-125476000D01*
X165379780Y-125442233D01*
X165608261Y-125289567D01*
X165802567Y-125095261D01*
X165955233Y-124866780D01*
X166060391Y-124612907D01*
X166114000Y-124343396D01*
X166114000Y-124068604D01*
X166060391Y-123799093D01*
X165955233Y-123545220D01*
X165802567Y-123316739D01*
X165608261Y-123122433D01*
X165379780Y-122969767D01*
X165298260Y-122936000D01*
X165379780Y-122902233D01*
X165608261Y-122749567D01*
X165802567Y-122555261D01*
X165955233Y-122326780D01*
X166060391Y-122072907D01*
X166114000Y-121803396D01*
X166114000Y-121528604D01*
X166060391Y-121259093D01*
X165955233Y-121005220D01*
X165802567Y-120776739D01*
X165608261Y-120582433D01*
X165379780Y-120429767D01*
X165298260Y-120396000D01*
X165379780Y-120362233D01*
X165608261Y-120209567D01*
X165802567Y-120015261D01*
X165955233Y-119786780D01*
X166060391Y-119532907D01*
X166114000Y-119263396D01*
X166114000Y-118988604D01*
X166060391Y-118719093D01*
X165955233Y-118465220D01*
X165802567Y-118236739D01*
X165608261Y-118042433D01*
X165379780Y-117889767D01*
X165298260Y-117856000D01*
X165379780Y-117822233D01*
X165608261Y-117669567D01*
X165802567Y-117475261D01*
X165955233Y-117246780D01*
X166060391Y-116992907D01*
X166114000Y-116723396D01*
X166114000Y-116448604D01*
X166060391Y-116179093D01*
X165955233Y-115925220D01*
X165802567Y-115696739D01*
X165608261Y-115502433D01*
X165379780Y-115349767D01*
X165298260Y-115316000D01*
X165379780Y-115282233D01*
X165608261Y-115129567D01*
X165802567Y-114935261D01*
X165955233Y-114706780D01*
X166060391Y-114452907D01*
X166114000Y-114183396D01*
X166114000Y-113908604D01*
X166060391Y-113639093D01*
X165955233Y-113385220D01*
X165802567Y-113156739D01*
X165608261Y-112962433D01*
X165379780Y-112809767D01*
X165298260Y-112776000D01*
X165379780Y-112742233D01*
X165608261Y-112589567D01*
X165802567Y-112395261D01*
X165955233Y-112166780D01*
X166060391Y-111912907D01*
X166114000Y-111643396D01*
X166114000Y-111368604D01*
X166060391Y-111099093D01*
X165955233Y-110845220D01*
X165802567Y-110616739D01*
X165608261Y-110422433D01*
X165379780Y-110269767D01*
X165298260Y-110236000D01*
X165379780Y-110202233D01*
X165608261Y-110049567D01*
X165802567Y-109855261D01*
X165955233Y-109626780D01*
X166060391Y-109372907D01*
X166114000Y-109103396D01*
X166114000Y-108828604D01*
X166060391Y-108559093D01*
X165955233Y-108305220D01*
X165802567Y-108076739D01*
X165608261Y-107882433D01*
X165379780Y-107729767D01*
X165298260Y-107696000D01*
X165379780Y-107662233D01*
X165608261Y-107509567D01*
X165802567Y-107315261D01*
X165955233Y-107086780D01*
X166060391Y-106832907D01*
X166114000Y-106563396D01*
X166114000Y-106288604D01*
X166060391Y-106019093D01*
X165955233Y-105765220D01*
X165802567Y-105536739D01*
X165608261Y-105342433D01*
X165379780Y-105189767D01*
X165298260Y-105156000D01*
X165379780Y-105122233D01*
X165608261Y-104969567D01*
X165802567Y-104775261D01*
X165955233Y-104546780D01*
X166060391Y-104292907D01*
X166114000Y-104023396D01*
X166114000Y-103748604D01*
X166060391Y-103479093D01*
X165955233Y-103225220D01*
X165802567Y-102996739D01*
X165608261Y-102802433D01*
X165379780Y-102649767D01*
X165298260Y-102616000D01*
X165379780Y-102582233D01*
X165608261Y-102429567D01*
X165802567Y-102235261D01*
X165955233Y-102006780D01*
X166060391Y-101752907D01*
X166114000Y-101483396D01*
X166114000Y-101208604D01*
X166060391Y-100939093D01*
X165955233Y-100685220D01*
X165802567Y-100456739D01*
X165608261Y-100262433D01*
X165379780Y-100109767D01*
X165298260Y-100076000D01*
X165379780Y-100042233D01*
X165608261Y-99889567D01*
X165802567Y-99695261D01*
X165955233Y-99466780D01*
X166060391Y-99212907D01*
X166114000Y-98943396D01*
X166114000Y-98668604D01*
X166060391Y-98399093D01*
X165955233Y-98145220D01*
X165802567Y-97916739D01*
X165608261Y-97722433D01*
X165379780Y-97569767D01*
X165298260Y-97536000D01*
X165379780Y-97502233D01*
X165608261Y-97349567D01*
X165802567Y-97155261D01*
X165955233Y-96926780D01*
X166060391Y-96672907D01*
X166114000Y-96403396D01*
X166114000Y-96128604D01*
X166060391Y-95859093D01*
X165955233Y-95605220D01*
X165802567Y-95376739D01*
X165608261Y-95182433D01*
X165379780Y-95029767D01*
X165125907Y-94924609D01*
X164856396Y-94871000D01*
X164581604Y-94871000D01*
X164312093Y-94924609D01*
X164058220Y-95029767D01*
X163829739Y-95182433D01*
X163635433Y-95376739D01*
X163482767Y-95605220D01*
X163377609Y-95859093D01*
X163324000Y-96128604D01*
X149604000Y-96128604D01*
X149550391Y-95859093D01*
X149445233Y-95605220D01*
X149292567Y-95376739D01*
X149098261Y-95182433D01*
X148869780Y-95029767D01*
X148788260Y-94996000D01*
X148869780Y-94962233D01*
X149098261Y-94809567D01*
X149292567Y-94615261D01*
X149445233Y-94386780D01*
X149550391Y-94132907D01*
X149604000Y-93863396D01*
X149604000Y-93588604D01*
X149550391Y-93319093D01*
X149451525Y-93080408D01*
X153543000Y-93080408D01*
X153543000Y-93355592D01*
X153596686Y-93625490D01*
X153701995Y-93879727D01*
X153854880Y-94108535D01*
X154049465Y-94303120D01*
X154278273Y-94456005D01*
X154532510Y-94561314D01*
X154802408Y-94615000D01*
X155077592Y-94615000D01*
X155347490Y-94561314D01*
X155601727Y-94456005D01*
X155830535Y-94303120D01*
X156025120Y-94108535D01*
X156178005Y-93879727D01*
X156283314Y-93625490D01*
X156337000Y-93355592D01*
X156337000Y-93080408D01*
X156283314Y-92810510D01*
X156178005Y-92556273D01*
X156025120Y-92327465D01*
X155830535Y-92132880D01*
X155601727Y-91979995D01*
X155347490Y-91874686D01*
X155077592Y-91821000D01*
X154802408Y-91821000D01*
X154532510Y-91874686D01*
X154278273Y-91979995D01*
X154049465Y-92132880D01*
X153854880Y-92327465D01*
X153701995Y-92556273D01*
X153596686Y-92810510D01*
X153543000Y-93080408D01*
X149451525Y-93080408D01*
X149445233Y-93065220D01*
X149292567Y-92836739D01*
X149098261Y-92642433D01*
X148869780Y-92489767D01*
X148788260Y-92456000D01*
X148869780Y-92422233D01*
X149098261Y-92269567D01*
X149292567Y-92075261D01*
X149445233Y-91846780D01*
X149550391Y-91592907D01*
X149604000Y-91323396D01*
X149604000Y-91048604D01*
X163324000Y-91048604D01*
X163324000Y-91323396D01*
X163377609Y-91592907D01*
X163482767Y-91846780D01*
X163635433Y-92075261D01*
X163829739Y-92269567D01*
X164058220Y-92422233D01*
X164312093Y-92527391D01*
X164581604Y-92581000D01*
X164856396Y-92581000D01*
X165125907Y-92527391D01*
X165379780Y-92422233D01*
X165608261Y-92269567D01*
X165802567Y-92075261D01*
X165955233Y-91846780D01*
X166060391Y-91592907D01*
X166114000Y-91323396D01*
X166114000Y-91048604D01*
X166060391Y-90779093D01*
X165955233Y-90525220D01*
X165802567Y-90296739D01*
X165608261Y-90102433D01*
X165379780Y-89949767D01*
X165125907Y-89844609D01*
X164856396Y-89791000D01*
X164581604Y-89791000D01*
X164312093Y-89844609D01*
X164058220Y-89949767D01*
X163829739Y-90102433D01*
X163635433Y-90296739D01*
X163482767Y-90525220D01*
X163377609Y-90779093D01*
X163324000Y-91048604D01*
X149604000Y-91048604D01*
X149550391Y-90779093D01*
X149445233Y-90525220D01*
X149292567Y-90296739D01*
X149098261Y-90102433D01*
X148869780Y-89949767D01*
X148615907Y-89844609D01*
X148346396Y-89791000D01*
X148071604Y-89791000D01*
X147802093Y-89844609D01*
X147548220Y-89949767D01*
X147319739Y-90102433D01*
X147125433Y-90296739D01*
X146972767Y-90525220D01*
X146867609Y-90779093D01*
X146814000Y-91048604D01*
X143002000Y-91048604D01*
X143002000Y-84345560D01*
X151435000Y-84345560D01*
X151435000Y-84810440D01*
X151525694Y-85266387D01*
X151703595Y-85695879D01*
X151961868Y-86082412D01*
X152290588Y-86411132D01*
X152677121Y-86669405D01*
X153106613Y-86847306D01*
X153562560Y-86938000D01*
X154027440Y-86938000D01*
X154483387Y-86847306D01*
X154912879Y-86669405D01*
X155299412Y-86411132D01*
X155628132Y-86082412D01*
X155886405Y-85695879D01*
X156064306Y-85266387D01*
X156155000Y-84810440D01*
X156155000Y-84349560D01*
X156263000Y-84349560D01*
X156263000Y-84814440D01*
X156353694Y-85270387D01*
X156531595Y-85699879D01*
X156789868Y-86086412D01*
X157118588Y-86415132D01*
X157505121Y-86673405D01*
X157934613Y-86851306D01*
X158390560Y-86942000D01*
X158855440Y-86942000D01*
X159311387Y-86851306D01*
X159740879Y-86673405D01*
X160127412Y-86415132D01*
X160456132Y-86086412D01*
X160714405Y-85699879D01*
X160892306Y-85270387D01*
X160983000Y-84814440D01*
X160983000Y-84349560D01*
X160892306Y-83893613D01*
X160714405Y-83464121D01*
X160456132Y-83077588D01*
X160127412Y-82748868D01*
X159740879Y-82490595D01*
X159311387Y-82312694D01*
X158855440Y-82222000D01*
X158390560Y-82222000D01*
X157934613Y-82312694D01*
X157505121Y-82490595D01*
X157118588Y-82748868D01*
X156789868Y-83077588D01*
X156531595Y-83464121D01*
X156353694Y-83893613D01*
X156263000Y-84349560D01*
X156155000Y-84349560D01*
X156155000Y-84345560D01*
X156064306Y-83889613D01*
X155886405Y-83460121D01*
X155628132Y-83073588D01*
X155299412Y-82744868D01*
X154912879Y-82486595D01*
X154483387Y-82308694D01*
X154027440Y-82218000D01*
X153562560Y-82218000D01*
X153106613Y-82308694D01*
X152677121Y-82486595D01*
X152290588Y-82744868D01*
X151961868Y-83073588D01*
X151703595Y-83460121D01*
X151525694Y-83889613D01*
X151435000Y-84345560D01*
X143002000Y-84345560D01*
X143002000Y-83857265D01*
X143039446Y-83475365D01*
X143139536Y-83143847D01*
X143302110Y-82838091D01*
X143520976Y-82569735D01*
X143787798Y-82349001D01*
X144092413Y-82184296D01*
X144423217Y-82081895D01*
X144802796Y-82042000D01*
X167602735Y-82042000D01*
X167984635Y-82079446D01*
X167984635Y-82079446D01*
G37*
X167984635Y-82079446D02*
X168316153Y-82179536D01*
X168621909Y-82342110D01*
X168890265Y-82560976D01*
X169110999Y-82827798D01*
X169275704Y-83132413D01*
X169378105Y-83463217D01*
X169418000Y-83842796D01*
X169418001Y-142300484D01*
X169352405Y-142142121D01*
X169094132Y-141755588D01*
X168765412Y-141426868D01*
X168378879Y-141168595D01*
X167949387Y-140990694D01*
X167493440Y-140900000D01*
X167028560Y-140900000D01*
X166572613Y-140990694D01*
X166143121Y-141168595D01*
X165756588Y-141426868D01*
X165427868Y-141755588D01*
X165169595Y-142142121D01*
X164991694Y-142571613D01*
X164901000Y-143027560D01*
X164901000Y-143492440D01*
X164991694Y-143948387D01*
X165169595Y-144377879D01*
X165427868Y-144764412D01*
X165756588Y-145093132D01*
X166048229Y-145288000D01*
X163639785Y-145288000D01*
X163937412Y-145089132D01*
X164266132Y-144760412D01*
X164524405Y-144373879D01*
X164702306Y-143944387D01*
X164793000Y-143488440D01*
X164793000Y-143023560D01*
X164702306Y-142567613D01*
X164524405Y-142138121D01*
X164266132Y-141751588D01*
X163937412Y-141422868D01*
X163550879Y-141164595D01*
X163121387Y-140986694D01*
X162665440Y-140896000D01*
X162200560Y-140896000D01*
X161744613Y-140986694D01*
X161315121Y-141164595D01*
X160928588Y-141422868D01*
X160599868Y-141751588D01*
X160341595Y-142138121D01*
X160210500Y-142454613D01*
X160079405Y-142138121D01*
X159821132Y-141751588D01*
X159492412Y-141422868D01*
X159105879Y-141164595D01*
X158676387Y-140986694D01*
X158220440Y-140896000D01*
X157755560Y-140896000D01*
X157299613Y-140986694D01*
X156870121Y-141164595D01*
X156483588Y-141422868D01*
X156154868Y-141751588D01*
X155896595Y-142138121D01*
X155718694Y-142567613D01*
X155628000Y-143023560D01*
X155628000Y-143488440D01*
X155718694Y-143944387D01*
X155896595Y-144373879D01*
X156154868Y-144760412D01*
X156483588Y-145089132D01*
X156781215Y-145288000D01*
X146494785Y-145288000D01*
X146792412Y-145089132D01*
X147121132Y-144760412D01*
X147379405Y-144373879D01*
X147557306Y-143944387D01*
X147648000Y-143488440D01*
X147648000Y-143023560D01*
X147557306Y-142567613D01*
X147379405Y-142138121D01*
X147121132Y-141751588D01*
X146792412Y-141422868D01*
X146405879Y-141164595D01*
X145976387Y-140986694D01*
X145520440Y-140896000D01*
X145055560Y-140896000D01*
X144599613Y-140986694D01*
X144170121Y-141164595D01*
X143783588Y-141422868D01*
X143454868Y-141751588D01*
X143196595Y-142138121D01*
X143018694Y-142567613D01*
X143002000Y-142651539D01*
X143002000Y-101208604D01*
X146814000Y-101208604D01*
X146814000Y-101483396D01*
X146867609Y-101752907D01*
X146972767Y-102006780D01*
X147125433Y-102235261D01*
X147319739Y-102429567D01*
X147548220Y-102582233D01*
X147629740Y-102616000D01*
X147548220Y-102649767D01*
X147319739Y-102802433D01*
X147125433Y-102996739D01*
X146972767Y-103225220D01*
X146867609Y-103479093D01*
X146814000Y-103748604D01*
X146814000Y-104023396D01*
X146867609Y-104292907D01*
X146972767Y-104546780D01*
X147125433Y-104775261D01*
X147319739Y-104969567D01*
X147548220Y-105122233D01*
X147629740Y-105156000D01*
X147548220Y-105189767D01*
X147319739Y-105342433D01*
X147125433Y-105536739D01*
X146972767Y-105765220D01*
X146867609Y-106019093D01*
X146814000Y-106288604D01*
X146814000Y-106563396D01*
X146867609Y-106832907D01*
X146972767Y-107086780D01*
X147125433Y-107315261D01*
X147319739Y-107509567D01*
X147548220Y-107662233D01*
X147629740Y-107696000D01*
X147548220Y-107729767D01*
X147319739Y-107882433D01*
X147125433Y-108076739D01*
X146972767Y-108305220D01*
X146867609Y-108559093D01*
X146814000Y-108828604D01*
X146814000Y-109103396D01*
X146867609Y-109372907D01*
X146972767Y-109626780D01*
X147125433Y-109855261D01*
X147319739Y-110049567D01*
X147548220Y-110202233D01*
X147629740Y-110236000D01*
X147548220Y-110269767D01*
X147319739Y-110422433D01*
X147125433Y-110616739D01*
X146972767Y-110845220D01*
X146867609Y-111099093D01*
X146814000Y-111368604D01*
X146814000Y-111643396D01*
X146867609Y-111912907D01*
X146972767Y-112166780D01*
X147125433Y-112395261D01*
X147319739Y-112589567D01*
X147548220Y-112742233D01*
X147629740Y-112776000D01*
X147548220Y-112809767D01*
X147319739Y-112962433D01*
X147125433Y-113156739D01*
X146972767Y-113385220D01*
X146867609Y-113639093D01*
X146814000Y-113908604D01*
X146814000Y-114183396D01*
X146867609Y-114452907D01*
X146972767Y-114706780D01*
X147125433Y-114935261D01*
X147319739Y-115129567D01*
X147548220Y-115282233D01*
X147629740Y-115316000D01*
X147548220Y-115349767D01*
X147319739Y-115502433D01*
X147125433Y-115696739D01*
X146972767Y-115925220D01*
X146867609Y-116179093D01*
X146814000Y-116448604D01*
X146814000Y-116723396D01*
X146867609Y-116992907D01*
X146972767Y-117246780D01*
X147125433Y-117475261D01*
X147319739Y-117669567D01*
X147548220Y-117822233D01*
X147629740Y-117856000D01*
X147548220Y-117889767D01*
X147319739Y-118042433D01*
X147125433Y-118236739D01*
X146972767Y-118465220D01*
X146867609Y-118719093D01*
X146814000Y-118988604D01*
X146814000Y-119263396D01*
X146867609Y-119532907D01*
X146972767Y-119786780D01*
X147125433Y-120015261D01*
X147319739Y-120209567D01*
X147548220Y-120362233D01*
X147629740Y-120396000D01*
X147548220Y-120429767D01*
X147319739Y-120582433D01*
X147125433Y-120776739D01*
X146972767Y-121005220D01*
X146867609Y-121259093D01*
X146814000Y-121528604D01*
X146814000Y-121803396D01*
X146867609Y-122072907D01*
X146972767Y-122326780D01*
X147125433Y-122555261D01*
X147319739Y-122749567D01*
X147548220Y-122902233D01*
X147629740Y-122936000D01*
X147548220Y-122969767D01*
X147319739Y-123122433D01*
X147125433Y-123316739D01*
X146972767Y-123545220D01*
X146867609Y-123799093D01*
X146814000Y-124068604D01*
X146814000Y-124343396D01*
X146867609Y-124612907D01*
X146972767Y-124866780D01*
X147125433Y-125095261D01*
X147319739Y-125289567D01*
X147548220Y-125442233D01*
X147629740Y-125476000D01*
X147548220Y-125509767D01*
X147319739Y-125662433D01*
X147125433Y-125856739D01*
X146972767Y-126085220D01*
X146867609Y-126339093D01*
X146814000Y-126608604D01*
X146814000Y-126883396D01*
X146867609Y-127152907D01*
X146972767Y-127406780D01*
X147125433Y-127635261D01*
X147319739Y-127829567D01*
X147548220Y-127982233D01*
X147802093Y-128087391D01*
X148071604Y-128141000D01*
X148346396Y-128141000D01*
X148615907Y-128087391D01*
X148869780Y-127982233D01*
X149098261Y-127829567D01*
X149292567Y-127635261D01*
X149445233Y-127406780D01*
X149550391Y-127152907D01*
X149604000Y-126883396D01*
X149604000Y-126608604D01*
X149550391Y-126339093D01*
X149445233Y-126085220D01*
X149292567Y-125856739D01*
X149098261Y-125662433D01*
X148869780Y-125509767D01*
X148788260Y-125476000D01*
X148869780Y-125442233D01*
X149098261Y-125289567D01*
X149183198Y-125204630D01*
X150812500Y-126833933D01*
X150812501Y-131738066D01*
X149312308Y-133238260D01*
X149235592Y-133223000D01*
X148960408Y-133223000D01*
X148690510Y-133276686D01*
X148436273Y-133381995D01*
X148207465Y-133534880D01*
X148012880Y-133729465D01*
X147859995Y-133958273D01*
X147754686Y-134212510D01*
X147701000Y-134482408D01*
X147701000Y-134757592D01*
X147754686Y-135027490D01*
X147859995Y-135281727D01*
X148012880Y-135510535D01*
X148207465Y-135705120D01*
X148436273Y-135858005D01*
X148690510Y-135963314D01*
X148960408Y-136017000D01*
X149235592Y-136017000D01*
X149505490Y-135963314D01*
X149759727Y-135858005D01*
X149988535Y-135705120D01*
X150183120Y-135510535D01*
X150336005Y-135281727D01*
X150368000Y-135204485D01*
X150399995Y-135281727D01*
X150552880Y-135510535D01*
X150747465Y-135705120D01*
X150976273Y-135858005D01*
X151230510Y-135963314D01*
X151500408Y-136017000D01*
X151775592Y-136017000D01*
X152045490Y-135963314D01*
X152299727Y-135858005D01*
X152528535Y-135705120D01*
X152723120Y-135510535D01*
X152876005Y-135281727D01*
X152908000Y-135204485D01*
X152939995Y-135281727D01*
X153092880Y-135510535D01*
X153287465Y-135705120D01*
X153516273Y-135858005D01*
X153770510Y-135963314D01*
X154040408Y-136017000D01*
X154315592Y-136017000D01*
X154585490Y-135963314D01*
X154839727Y-135858005D01*
X155068535Y-135705120D01*
X155263120Y-135510535D01*
X155416005Y-135281727D01*
X155448000Y-135204485D01*
X155479995Y-135281727D01*
X155632880Y-135510535D01*
X155827465Y-135705120D01*
X156056273Y-135858005D01*
X156310510Y-135963314D01*
X156580408Y-136017000D01*
X156855592Y-136017000D01*
X157125490Y-135963314D01*
X157379727Y-135858005D01*
X157608535Y-135705120D01*
X157803120Y-135510535D01*
X157956005Y-135281727D01*
X158061314Y-135027490D01*
X158115000Y-134757592D01*
X158115000Y-134482408D01*
X164719000Y-134482408D01*
X164719000Y-134757592D01*
X164772686Y-135027490D01*
X164877995Y-135281727D01*
X165030880Y-135510535D01*
X165225465Y-135705120D01*
X165454273Y-135858005D01*
X165708510Y-135963314D01*
X165978408Y-136017000D01*
X166253592Y-136017000D01*
X166523490Y-135963314D01*
X166777727Y-135858005D01*
X167006535Y-135705120D01*
X167201120Y-135510535D01*
X167354005Y-135281727D01*
X167459314Y-135027490D01*
X167513000Y-134757592D01*
X167513000Y-134482408D01*
X167459314Y-134212510D01*
X167354005Y-133958273D01*
X167201120Y-133729465D01*
X167006535Y-133534880D01*
X166777727Y-133381995D01*
X166523490Y-133276686D01*
X166253592Y-133223000D01*
X165978408Y-133223000D01*
X165708510Y-133276686D01*
X165454273Y-133381995D01*
X165225465Y-133534880D01*
X165030880Y-133729465D01*
X164877995Y-133958273D01*
X164772686Y-134212510D01*
X164719000Y-134482408D01*
X158115000Y-134482408D01*
X158061314Y-134212510D01*
X157956005Y-133958273D01*
X157803120Y-133729465D01*
X157608535Y-133534880D01*
X157379727Y-133381995D01*
X157125490Y-133276686D01*
X156855592Y-133223000D01*
X156580408Y-133223000D01*
X156310510Y-133276686D01*
X156056273Y-133381995D01*
X155827465Y-133534880D01*
X155632880Y-133729465D01*
X155479995Y-133958273D01*
X155448000Y-134035515D01*
X155416005Y-133958273D01*
X155263120Y-133729465D01*
X155068535Y-133534880D01*
X154839727Y-133381995D01*
X154585490Y-133276686D01*
X154315592Y-133223000D01*
X154040408Y-133223000D01*
X153770510Y-133276686D01*
X153516273Y-133381995D01*
X153287465Y-133534880D01*
X153092880Y-133729465D01*
X152939995Y-133958273D01*
X152908000Y-134035515D01*
X152876005Y-133958273D01*
X152723120Y-133729465D01*
X152528535Y-133534880D01*
X152299727Y-133381995D01*
X152045490Y-133276686D01*
X151775592Y-133223000D01*
X151662433Y-133223000D01*
X152193039Y-132692394D01*
X152224541Y-132666541D01*
X152281639Y-132596967D01*
X152327698Y-132540844D01*
X152332648Y-132531583D01*
X152404353Y-132397434D01*
X152451556Y-132241826D01*
X152463500Y-132120553D01*
X152463500Y-132120544D01*
X152467493Y-132080001D01*
X152463500Y-132039458D01*
X152463500Y-126532550D01*
X152467494Y-126491999D01*
X152452434Y-126339093D01*
X152451556Y-126330174D01*
X152404353Y-126174566D01*
X152327700Y-126031159D01*
X152327699Y-126031157D01*
X152250391Y-125936958D01*
X152224541Y-125905459D01*
X152193041Y-125879608D01*
X149964398Y-123650966D01*
X149938541Y-123619459D01*
X149812842Y-123516301D01*
X149669434Y-123439647D01*
X149513826Y-123392444D01*
X149392553Y-123380500D01*
X149392550Y-123380500D01*
X149352000Y-123376506D01*
X149333706Y-123378308D01*
X149292567Y-123316739D01*
X149098261Y-123122433D01*
X148869780Y-122969767D01*
X148788260Y-122936000D01*
X148869780Y-122902233D01*
X149098261Y-122749567D01*
X149292567Y-122555261D01*
X149445233Y-122326780D01*
X149550391Y-122072907D01*
X149604000Y-121803396D01*
X149604000Y-121528604D01*
X149550391Y-121259093D01*
X149445233Y-121005220D01*
X149292567Y-120776739D01*
X149098261Y-120582433D01*
X148869780Y-120429767D01*
X148788260Y-120396000D01*
X148869780Y-120362233D01*
X149098261Y-120209567D01*
X149292567Y-120015261D01*
X149445233Y-119786780D01*
X149550391Y-119532907D01*
X149604000Y-119263396D01*
X149604000Y-118988604D01*
X149550391Y-118719093D01*
X149445233Y-118465220D01*
X149292567Y-118236739D01*
X149098261Y-118042433D01*
X148869780Y-117889767D01*
X148788260Y-117856000D01*
X148869780Y-117822233D01*
X149098261Y-117669567D01*
X149292567Y-117475261D01*
X149445233Y-117246780D01*
X149550391Y-116992907D01*
X149604000Y-116723396D01*
X149604000Y-116448604D01*
X149550391Y-116179093D01*
X149445233Y-115925220D01*
X149292567Y-115696739D01*
X149098261Y-115502433D01*
X148869780Y-115349767D01*
X148788260Y-115316000D01*
X148869780Y-115282233D01*
X149098261Y-115129567D01*
X149292567Y-114935261D01*
X149445233Y-114706780D01*
X149550391Y-114452907D01*
X149604000Y-114183396D01*
X149604000Y-113908604D01*
X149550391Y-113639093D01*
X149445233Y-113385220D01*
X149292567Y-113156739D01*
X149098261Y-112962433D01*
X148869780Y-112809767D01*
X148788260Y-112776000D01*
X148869780Y-112742233D01*
X149098261Y-112589567D01*
X149292567Y-112395261D01*
X149445233Y-112166780D01*
X149550391Y-111912907D01*
X149604000Y-111643396D01*
X149604000Y-111368604D01*
X149550391Y-111099093D01*
X149445233Y-110845220D01*
X149292567Y-110616739D01*
X149098261Y-110422433D01*
X148869780Y-110269767D01*
X148788260Y-110236000D01*
X148869780Y-110202233D01*
X149098261Y-110049567D01*
X149292567Y-109855261D01*
X149445233Y-109626780D01*
X149550391Y-109372907D01*
X149604000Y-109103396D01*
X149604000Y-108828604D01*
X149550391Y-108559093D01*
X149445233Y-108305220D01*
X149292567Y-108076739D01*
X149098261Y-107882433D01*
X148869780Y-107729767D01*
X148788260Y-107696000D01*
X148869780Y-107662233D01*
X149098261Y-107509567D01*
X149292567Y-107315261D01*
X149445233Y-107086780D01*
X149550391Y-106832907D01*
X149604000Y-106563396D01*
X149604000Y-106288604D01*
X149550391Y-106019093D01*
X149445233Y-105765220D01*
X149292567Y-105536739D01*
X149098261Y-105342433D01*
X148869780Y-105189767D01*
X148788260Y-105156000D01*
X148869780Y-105122233D01*
X149098261Y-104969567D01*
X149292567Y-104775261D01*
X149445233Y-104546780D01*
X149550391Y-104292907D01*
X149604000Y-104023396D01*
X149604000Y-103748604D01*
X149550391Y-103479093D01*
X149445233Y-103225220D01*
X149292567Y-102996739D01*
X149098261Y-102802433D01*
X148869780Y-102649767D01*
X148788260Y-102616000D01*
X148869780Y-102582233D01*
X149098261Y-102429567D01*
X149292567Y-102235261D01*
X149445233Y-102006780D01*
X149550391Y-101752907D01*
X149604000Y-101483396D01*
X149604000Y-101208604D01*
X149550391Y-100939093D01*
X149445233Y-100685220D01*
X149292567Y-100456739D01*
X149098261Y-100262433D01*
X148869780Y-100109767D01*
X148615907Y-100004609D01*
X148346396Y-99951000D01*
X148071604Y-99951000D01*
X147802093Y-100004609D01*
X147548220Y-100109767D01*
X147319739Y-100262433D01*
X147125433Y-100456739D01*
X146972767Y-100685220D01*
X146867609Y-100939093D01*
X146814000Y-101208604D01*
X143002000Y-101208604D01*
X143002000Y-91048604D01*
X146814000Y-91048604D01*
X146814000Y-91323396D01*
X146867609Y-91592907D01*
X146972767Y-91846780D01*
X147125433Y-92075261D01*
X147319739Y-92269567D01*
X147548220Y-92422233D01*
X147629740Y-92456000D01*
X147548220Y-92489767D01*
X147319739Y-92642433D01*
X147125433Y-92836739D01*
X146972767Y-93065220D01*
X146867609Y-93319093D01*
X146814000Y-93588604D01*
X146814000Y-93863396D01*
X146867609Y-94132907D01*
X146972767Y-94386780D01*
X147125433Y-94615261D01*
X147319739Y-94809567D01*
X147548220Y-94962233D01*
X147629740Y-94996000D01*
X147548220Y-95029767D01*
X147319739Y-95182433D01*
X147125433Y-95376739D01*
X146972767Y-95605220D01*
X146867609Y-95859093D01*
X146814000Y-96128604D01*
X146814000Y-96403396D01*
X146867609Y-96672907D01*
X146972767Y-96926780D01*
X147125433Y-97155261D01*
X147319739Y-97349567D01*
X147548220Y-97502233D01*
X147802093Y-97607391D01*
X148071604Y-97661000D01*
X148346396Y-97661000D01*
X148615907Y-97607391D01*
X148869780Y-97502233D01*
X149098261Y-97349567D01*
X149292567Y-97155261D01*
X149445233Y-96926780D01*
X149550391Y-96672907D01*
X149604000Y-96403396D01*
X149604000Y-96128604D01*
X163324000Y-96128604D01*
X163324000Y-96403396D01*
X163377609Y-96672907D01*
X163482767Y-96926780D01*
X163635433Y-97155261D01*
X163829739Y-97349567D01*
X164058220Y-97502233D01*
X164139740Y-97536000D01*
X164058220Y-97569767D01*
X163829739Y-97722433D01*
X163635433Y-97916739D01*
X163482767Y-98145220D01*
X163377609Y-98399093D01*
X163324000Y-98668604D01*
X163324000Y-98943396D01*
X163377609Y-99212907D01*
X163482767Y-99466780D01*
X163635433Y-99695261D01*
X163829739Y-99889567D01*
X164058220Y-100042233D01*
X164139740Y-100076000D01*
X164058220Y-100109767D01*
X163829739Y-100262433D01*
X163635433Y-100456739D01*
X163482767Y-100685220D01*
X163377609Y-100939093D01*
X163324000Y-101208604D01*
X163324000Y-101483396D01*
X163377609Y-101752907D01*
X163482767Y-102006780D01*
X163635433Y-102235261D01*
X163829739Y-102429567D01*
X164058220Y-102582233D01*
X164139740Y-102616000D01*
X164058220Y-102649767D01*
X163829739Y-102802433D01*
X163635433Y-102996739D01*
X163482767Y-103225220D01*
X163377609Y-103479093D01*
X163324000Y-103748604D01*
X163324000Y-104023396D01*
X163377609Y-104292907D01*
X163482767Y-104546780D01*
X163635433Y-104775261D01*
X163829739Y-104969567D01*
X164058220Y-105122233D01*
X164139740Y-105156000D01*
X164058220Y-105189767D01*
X163829739Y-105342433D01*
X163635433Y-105536739D01*
X163482767Y-105765220D01*
X163377609Y-106019093D01*
X163324000Y-106288604D01*
X163324000Y-106563396D01*
X163377609Y-106832907D01*
X163482767Y-107086780D01*
X163635433Y-107315261D01*
X163829739Y-107509567D01*
X164058220Y-107662233D01*
X164139740Y-107696000D01*
X164058220Y-107729767D01*
X163829739Y-107882433D01*
X163635433Y-108076739D01*
X163482767Y-108305220D01*
X163377609Y-108559093D01*
X163324000Y-108828604D01*
X163324000Y-109103396D01*
X163377609Y-109372907D01*
X163482767Y-109626780D01*
X163635433Y-109855261D01*
X163829739Y-110049567D01*
X164058220Y-110202233D01*
X164139740Y-110236000D01*
X164058220Y-110269767D01*
X163829739Y-110422433D01*
X163635433Y-110616739D01*
X163482767Y-110845220D01*
X163377609Y-111099093D01*
X163324000Y-111368604D01*
X163324000Y-111643396D01*
X163377609Y-111912907D01*
X163482767Y-112166780D01*
X163635433Y-112395261D01*
X163829739Y-112589567D01*
X164058220Y-112742233D01*
X164139740Y-112776000D01*
X164058220Y-112809767D01*
X163829739Y-112962433D01*
X163635433Y-113156739D01*
X163482767Y-113385220D01*
X163377609Y-113639093D01*
X163324000Y-113908604D01*
X163324000Y-114183396D01*
X163377609Y-114452907D01*
X163482767Y-114706780D01*
X163635433Y-114935261D01*
X163829739Y-115129567D01*
X164058220Y-115282233D01*
X164139740Y-115316000D01*
X164058220Y-115349767D01*
X163829739Y-115502433D01*
X163635433Y-115696739D01*
X163482767Y-115925220D01*
X163377609Y-116179093D01*
X163324000Y-116448604D01*
X163324000Y-116723396D01*
X163377609Y-116992907D01*
X163482767Y-117246780D01*
X163635433Y-117475261D01*
X163829739Y-117669567D01*
X164058220Y-117822233D01*
X164139740Y-117856000D01*
X164058220Y-117889767D01*
X163829739Y-118042433D01*
X163635433Y-118236739D01*
X163482767Y-118465220D01*
X163377609Y-118719093D01*
X163324000Y-118988604D01*
X163324000Y-119263396D01*
X163377609Y-119532907D01*
X163482767Y-119786780D01*
X163635433Y-120015261D01*
X163829739Y-120209567D01*
X164058220Y-120362233D01*
X164139740Y-120396000D01*
X164058220Y-120429767D01*
X163829739Y-120582433D01*
X163635433Y-120776739D01*
X163482767Y-121005220D01*
X163377609Y-121259093D01*
X163324000Y-121528604D01*
X163324000Y-121803396D01*
X163377609Y-122072907D01*
X163482767Y-122326780D01*
X163635433Y-122555261D01*
X163829739Y-122749567D01*
X164058220Y-122902233D01*
X164139740Y-122936000D01*
X164058220Y-122969767D01*
X163829739Y-123122433D01*
X163635433Y-123316739D01*
X163482767Y-123545220D01*
X163377609Y-123799093D01*
X163324000Y-124068604D01*
X163324000Y-124343396D01*
X163377609Y-124612907D01*
X163482767Y-124866780D01*
X163635433Y-125095261D01*
X163829739Y-125289567D01*
X164058220Y-125442233D01*
X164139740Y-125476000D01*
X164058220Y-125509767D01*
X163829739Y-125662433D01*
X163635433Y-125856739D01*
X163482767Y-126085220D01*
X163377609Y-126339093D01*
X163324000Y-126608604D01*
X163324000Y-126883396D01*
X163377609Y-127152907D01*
X163482767Y-127406780D01*
X163635433Y-127635261D01*
X163829739Y-127829567D01*
X164058220Y-127982233D01*
X164312093Y-128087391D01*
X164581604Y-128141000D01*
X164856396Y-128141000D01*
X165125907Y-128087391D01*
X165379780Y-127982233D01*
X165608261Y-127829567D01*
X165802567Y-127635261D01*
X165955233Y-127406780D01*
X166060391Y-127152907D01*
X166114000Y-126883396D01*
X166114000Y-126608604D01*
X166060391Y-126339093D01*
X165955233Y-126085220D01*
X165802567Y-125856739D01*
X165608261Y-125662433D01*
X165379780Y-125509767D01*
X165298260Y-125476000D01*
X165379780Y-125442233D01*
X165608261Y-125289567D01*
X165802567Y-125095261D01*
X165955233Y-124866780D01*
X166060391Y-124612907D01*
X166114000Y-124343396D01*
X166114000Y-124068604D01*
X166060391Y-123799093D01*
X165955233Y-123545220D01*
X165802567Y-123316739D01*
X165608261Y-123122433D01*
X165379780Y-122969767D01*
X165298260Y-122936000D01*
X165379780Y-122902233D01*
X165608261Y-122749567D01*
X165802567Y-122555261D01*
X165955233Y-122326780D01*
X166060391Y-122072907D01*
X166114000Y-121803396D01*
X166114000Y-121528604D01*
X166060391Y-121259093D01*
X165955233Y-121005220D01*
X165802567Y-120776739D01*
X165608261Y-120582433D01*
X165379780Y-120429767D01*
X165298260Y-120396000D01*
X165379780Y-120362233D01*
X165608261Y-120209567D01*
X165802567Y-120015261D01*
X165955233Y-119786780D01*
X166060391Y-119532907D01*
X166114000Y-119263396D01*
X166114000Y-118988604D01*
X166060391Y-118719093D01*
X165955233Y-118465220D01*
X165802567Y-118236739D01*
X165608261Y-118042433D01*
X165379780Y-117889767D01*
X165298260Y-117856000D01*
X165379780Y-117822233D01*
X165608261Y-117669567D01*
X165802567Y-117475261D01*
X165955233Y-117246780D01*
X166060391Y-116992907D01*
X166114000Y-116723396D01*
X166114000Y-116448604D01*
X166060391Y-116179093D01*
X165955233Y-115925220D01*
X165802567Y-115696739D01*
X165608261Y-115502433D01*
X165379780Y-115349767D01*
X165298260Y-115316000D01*
X165379780Y-115282233D01*
X165608261Y-115129567D01*
X165802567Y-114935261D01*
X165955233Y-114706780D01*
X166060391Y-114452907D01*
X166114000Y-114183396D01*
X166114000Y-113908604D01*
X166060391Y-113639093D01*
X165955233Y-113385220D01*
X165802567Y-113156739D01*
X165608261Y-112962433D01*
X165379780Y-112809767D01*
X165298260Y-112776000D01*
X165379780Y-112742233D01*
X165608261Y-112589567D01*
X165802567Y-112395261D01*
X165955233Y-112166780D01*
X166060391Y-111912907D01*
X166114000Y-111643396D01*
X166114000Y-111368604D01*
X166060391Y-111099093D01*
X165955233Y-110845220D01*
X165802567Y-110616739D01*
X165608261Y-110422433D01*
X165379780Y-110269767D01*
X165298260Y-110236000D01*
X165379780Y-110202233D01*
X165608261Y-110049567D01*
X165802567Y-109855261D01*
X165955233Y-109626780D01*
X166060391Y-109372907D01*
X166114000Y-109103396D01*
X166114000Y-108828604D01*
X166060391Y-108559093D01*
X165955233Y-108305220D01*
X165802567Y-108076739D01*
X165608261Y-107882433D01*
X165379780Y-107729767D01*
X165298260Y-107696000D01*
X165379780Y-107662233D01*
X165608261Y-107509567D01*
X165802567Y-107315261D01*
X165955233Y-107086780D01*
X166060391Y-106832907D01*
X166114000Y-106563396D01*
X166114000Y-106288604D01*
X166060391Y-106019093D01*
X165955233Y-105765220D01*
X165802567Y-105536739D01*
X165608261Y-105342433D01*
X165379780Y-105189767D01*
X165298260Y-105156000D01*
X165379780Y-105122233D01*
X165608261Y-104969567D01*
X165802567Y-104775261D01*
X165955233Y-104546780D01*
X166060391Y-104292907D01*
X166114000Y-104023396D01*
X166114000Y-103748604D01*
X166060391Y-103479093D01*
X165955233Y-103225220D01*
X165802567Y-102996739D01*
X165608261Y-102802433D01*
X165379780Y-102649767D01*
X165298260Y-102616000D01*
X165379780Y-102582233D01*
X165608261Y-102429567D01*
X165802567Y-102235261D01*
X165955233Y-102006780D01*
X166060391Y-101752907D01*
X166114000Y-101483396D01*
X166114000Y-101208604D01*
X166060391Y-100939093D01*
X165955233Y-100685220D01*
X165802567Y-100456739D01*
X165608261Y-100262433D01*
X165379780Y-100109767D01*
X165298260Y-100076000D01*
X165379780Y-100042233D01*
X165608261Y-99889567D01*
X165802567Y-99695261D01*
X165955233Y-99466780D01*
X166060391Y-99212907D01*
X166114000Y-98943396D01*
X166114000Y-98668604D01*
X166060391Y-98399093D01*
X165955233Y-98145220D01*
X165802567Y-97916739D01*
X165608261Y-97722433D01*
X165379780Y-97569767D01*
X165298260Y-97536000D01*
X165379780Y-97502233D01*
X165608261Y-97349567D01*
X165802567Y-97155261D01*
X165955233Y-96926780D01*
X166060391Y-96672907D01*
X166114000Y-96403396D01*
X166114000Y-96128604D01*
X166060391Y-95859093D01*
X165955233Y-95605220D01*
X165802567Y-95376739D01*
X165608261Y-95182433D01*
X165379780Y-95029767D01*
X165125907Y-94924609D01*
X164856396Y-94871000D01*
X164581604Y-94871000D01*
X164312093Y-94924609D01*
X164058220Y-95029767D01*
X163829739Y-95182433D01*
X163635433Y-95376739D01*
X163482767Y-95605220D01*
X163377609Y-95859093D01*
X163324000Y-96128604D01*
X149604000Y-96128604D01*
X149550391Y-95859093D01*
X149445233Y-95605220D01*
X149292567Y-95376739D01*
X149098261Y-95182433D01*
X148869780Y-95029767D01*
X148788260Y-94996000D01*
X148869780Y-94962233D01*
X149098261Y-94809567D01*
X149292567Y-94615261D01*
X149445233Y-94386780D01*
X149550391Y-94132907D01*
X149604000Y-93863396D01*
X149604000Y-93588604D01*
X149550391Y-93319093D01*
X149451525Y-93080408D01*
X153543000Y-93080408D01*
X153543000Y-93355592D01*
X153596686Y-93625490D01*
X153701995Y-93879727D01*
X153854880Y-94108535D01*
X154049465Y-94303120D01*
X154278273Y-94456005D01*
X154532510Y-94561314D01*
X154802408Y-94615000D01*
X155077592Y-94615000D01*
X155347490Y-94561314D01*
X155601727Y-94456005D01*
X155830535Y-94303120D01*
X156025120Y-94108535D01*
X156178005Y-93879727D01*
X156283314Y-93625490D01*
X156337000Y-93355592D01*
X156337000Y-93080408D01*
X156283314Y-92810510D01*
X156178005Y-92556273D01*
X156025120Y-92327465D01*
X155830535Y-92132880D01*
X155601727Y-91979995D01*
X155347490Y-91874686D01*
X155077592Y-91821000D01*
X154802408Y-91821000D01*
X154532510Y-91874686D01*
X154278273Y-91979995D01*
X154049465Y-92132880D01*
X153854880Y-92327465D01*
X153701995Y-92556273D01*
X153596686Y-92810510D01*
X153543000Y-93080408D01*
X149451525Y-93080408D01*
X149445233Y-93065220D01*
X149292567Y-92836739D01*
X149098261Y-92642433D01*
X148869780Y-92489767D01*
X148788260Y-92456000D01*
X148869780Y-92422233D01*
X149098261Y-92269567D01*
X149292567Y-92075261D01*
X149445233Y-91846780D01*
X149550391Y-91592907D01*
X149604000Y-91323396D01*
X149604000Y-91048604D01*
X163324000Y-91048604D01*
X163324000Y-91323396D01*
X163377609Y-91592907D01*
X163482767Y-91846780D01*
X163635433Y-92075261D01*
X163829739Y-92269567D01*
X164058220Y-92422233D01*
X164312093Y-92527391D01*
X164581604Y-92581000D01*
X164856396Y-92581000D01*
X165125907Y-92527391D01*
X165379780Y-92422233D01*
X165608261Y-92269567D01*
X165802567Y-92075261D01*
X165955233Y-91846780D01*
X166060391Y-91592907D01*
X166114000Y-91323396D01*
X166114000Y-91048604D01*
X166060391Y-90779093D01*
X165955233Y-90525220D01*
X165802567Y-90296739D01*
X165608261Y-90102433D01*
X165379780Y-89949767D01*
X165125907Y-89844609D01*
X164856396Y-89791000D01*
X164581604Y-89791000D01*
X164312093Y-89844609D01*
X164058220Y-89949767D01*
X163829739Y-90102433D01*
X163635433Y-90296739D01*
X163482767Y-90525220D01*
X163377609Y-90779093D01*
X163324000Y-91048604D01*
X149604000Y-91048604D01*
X149550391Y-90779093D01*
X149445233Y-90525220D01*
X149292567Y-90296739D01*
X149098261Y-90102433D01*
X148869780Y-89949767D01*
X148615907Y-89844609D01*
X148346396Y-89791000D01*
X148071604Y-89791000D01*
X147802093Y-89844609D01*
X147548220Y-89949767D01*
X147319739Y-90102433D01*
X147125433Y-90296739D01*
X146972767Y-90525220D01*
X146867609Y-90779093D01*
X146814000Y-91048604D01*
X143002000Y-91048604D01*
X143002000Y-84345560D01*
X151435000Y-84345560D01*
X151435000Y-84810440D01*
X151525694Y-85266387D01*
X151703595Y-85695879D01*
X151961868Y-86082412D01*
X152290588Y-86411132D01*
X152677121Y-86669405D01*
X153106613Y-86847306D01*
X153562560Y-86938000D01*
X154027440Y-86938000D01*
X154483387Y-86847306D01*
X154912879Y-86669405D01*
X155299412Y-86411132D01*
X155628132Y-86082412D01*
X155886405Y-85695879D01*
X156064306Y-85266387D01*
X156155000Y-84810440D01*
X156155000Y-84349560D01*
X156263000Y-84349560D01*
X156263000Y-84814440D01*
X156353694Y-85270387D01*
X156531595Y-85699879D01*
X156789868Y-86086412D01*
X157118588Y-86415132D01*
X157505121Y-86673405D01*
X157934613Y-86851306D01*
X158390560Y-86942000D01*
X158855440Y-86942000D01*
X159311387Y-86851306D01*
X159740879Y-86673405D01*
X160127412Y-86415132D01*
X160456132Y-86086412D01*
X160714405Y-85699879D01*
X160892306Y-85270387D01*
X160983000Y-84814440D01*
X160983000Y-84349560D01*
X160892306Y-83893613D01*
X160714405Y-83464121D01*
X160456132Y-83077588D01*
X160127412Y-82748868D01*
X159740879Y-82490595D01*
X159311387Y-82312694D01*
X158855440Y-82222000D01*
X158390560Y-82222000D01*
X157934613Y-82312694D01*
X157505121Y-82490595D01*
X157118588Y-82748868D01*
X156789868Y-83077588D01*
X156531595Y-83464121D01*
X156353694Y-83893613D01*
X156263000Y-84349560D01*
X156155000Y-84349560D01*
X156155000Y-84345560D01*
X156064306Y-83889613D01*
X155886405Y-83460121D01*
X155628132Y-83073588D01*
X155299412Y-82744868D01*
X154912879Y-82486595D01*
X154483387Y-82308694D01*
X154027440Y-82218000D01*
X153562560Y-82218000D01*
X153106613Y-82308694D01*
X152677121Y-82486595D01*
X152290588Y-82744868D01*
X151961868Y-83073588D01*
X151703595Y-83460121D01*
X151525694Y-83889613D01*
X151435000Y-84345560D01*
X143002000Y-84345560D01*
X143002000Y-83857265D01*
X143039446Y-83475365D01*
X143139536Y-83143847D01*
X143302110Y-82838091D01*
X143520976Y-82569735D01*
X143787798Y-82349001D01*
X144092413Y-82184296D01*
X144423217Y-82081895D01*
X144802796Y-82042000D01*
X167602735Y-82042000D01*
X167984635Y-82079446D01*
M02*
