G04 #@! TF.GenerationSoftware,KiCad,Pcbnew,(5.1.2)-1*
G04 #@! TF.CreationDate,2020-03-02T19:29:20-06:00*
G04 #@! TF.ProjectId,NanoBreakoutBoard_Rev1_2020,4e616e6f-4272-4656-916b-6f7574426f61,rev?*
G04 #@! TF.SameCoordinates,Original*
G04 #@! TF.FileFunction,Soldermask,Top*
G04 #@! TF.FilePolarity,Negative*
%FSLAX46Y46*%
G04 Gerber Fmt 4.6, Leading zero omitted, Abs format (unit mm)*
G04 Created by KiCad (PCBNEW (5.1.2)-1) date 2020-03-02 19:29:20*
%MOMM*%
%LPD*%
G04 APERTURE LIST*
%ADD10C,0.100000*%
G04 APERTURE END LIST*
D10*
G36*
X167779039Y-141552250D02*
G01*
X167968372Y-141630675D01*
X168102251Y-141686129D01*
X168393134Y-141880491D01*
X168640509Y-142127866D01*
X168834871Y-142418749D01*
X168834871Y-142418750D01*
X168968750Y-142741961D01*
X169037000Y-143085078D01*
X169037000Y-143434922D01*
X168968750Y-143778039D01*
X168890325Y-143967372D01*
X168834871Y-144101251D01*
X168640509Y-144392134D01*
X168393134Y-144639509D01*
X168102251Y-144833871D01*
X167968372Y-144889325D01*
X167779039Y-144967750D01*
X167435922Y-145036000D01*
X167086078Y-145036000D01*
X166742961Y-144967750D01*
X166553628Y-144889325D01*
X166419749Y-144833871D01*
X166128866Y-144639509D01*
X165881491Y-144392134D01*
X165687129Y-144101251D01*
X165631675Y-143967372D01*
X165553250Y-143778039D01*
X165485000Y-143434922D01*
X165485000Y-143085078D01*
X165553250Y-142741961D01*
X165687129Y-142418750D01*
X165687129Y-142418749D01*
X165881491Y-142127866D01*
X166128866Y-141880491D01*
X166419749Y-141686129D01*
X166553628Y-141630675D01*
X166742961Y-141552250D01*
X167086078Y-141484000D01*
X167435922Y-141484000D01*
X167779039Y-141552250D01*
X167779039Y-141552250D01*
G37*
G36*
X162951039Y-141548250D02*
G01*
X163140372Y-141626675D01*
X163274251Y-141682129D01*
X163565134Y-141876491D01*
X163812509Y-142123866D01*
X164006871Y-142414749D01*
X164008528Y-142418750D01*
X164140750Y-142737961D01*
X164209000Y-143081078D01*
X164209000Y-143430922D01*
X164140750Y-143774039D01*
X164062325Y-143963372D01*
X164006871Y-144097251D01*
X163812509Y-144388134D01*
X163565134Y-144635509D01*
X163274251Y-144829871D01*
X163140372Y-144885325D01*
X162951039Y-144963750D01*
X162607922Y-145032000D01*
X162258078Y-145032000D01*
X161914961Y-144963750D01*
X161725628Y-144885325D01*
X161591749Y-144829871D01*
X161300866Y-144635509D01*
X161053491Y-144388134D01*
X160859129Y-144097251D01*
X160803675Y-143963372D01*
X160725250Y-143774039D01*
X160657000Y-143430922D01*
X160657000Y-143081078D01*
X160725250Y-142737961D01*
X160857472Y-142418750D01*
X160859129Y-142414749D01*
X161053491Y-142123866D01*
X161300866Y-141876491D01*
X161591749Y-141682129D01*
X161725628Y-141626675D01*
X161914961Y-141548250D01*
X162258078Y-141480000D01*
X162607922Y-141480000D01*
X162951039Y-141548250D01*
X162951039Y-141548250D01*
G37*
G36*
X145806039Y-141548250D02*
G01*
X145995372Y-141626675D01*
X146129251Y-141682129D01*
X146420134Y-141876491D01*
X146667509Y-142123866D01*
X146861871Y-142414749D01*
X146863528Y-142418750D01*
X146995750Y-142737961D01*
X147064000Y-143081078D01*
X147064000Y-143430922D01*
X146995750Y-143774039D01*
X146917325Y-143963372D01*
X146861871Y-144097251D01*
X146667509Y-144388134D01*
X146420134Y-144635509D01*
X146129251Y-144829871D01*
X145995372Y-144885325D01*
X145806039Y-144963750D01*
X145462922Y-145032000D01*
X145113078Y-145032000D01*
X144769961Y-144963750D01*
X144580628Y-144885325D01*
X144446749Y-144829871D01*
X144155866Y-144635509D01*
X143908491Y-144388134D01*
X143714129Y-144097251D01*
X143658675Y-143963372D01*
X143580250Y-143774039D01*
X143512000Y-143430922D01*
X143512000Y-143081078D01*
X143580250Y-142737961D01*
X143712472Y-142418750D01*
X143714129Y-142414749D01*
X143908491Y-142123866D01*
X144155866Y-141876491D01*
X144446749Y-141682129D01*
X144580628Y-141626675D01*
X144769961Y-141548250D01*
X145113078Y-141480000D01*
X145462922Y-141480000D01*
X145806039Y-141548250D01*
X145806039Y-141548250D01*
G37*
G36*
X158506039Y-141548250D02*
G01*
X158695372Y-141626675D01*
X158829251Y-141682129D01*
X159120134Y-141876491D01*
X159367509Y-142123866D01*
X159561871Y-142414749D01*
X159563528Y-142418750D01*
X159695750Y-142737961D01*
X159764000Y-143081078D01*
X159764000Y-143430922D01*
X159695750Y-143774039D01*
X159617325Y-143963372D01*
X159561871Y-144097251D01*
X159367509Y-144388134D01*
X159120134Y-144635509D01*
X158829251Y-144829871D01*
X158695372Y-144885325D01*
X158506039Y-144963750D01*
X158162922Y-145032000D01*
X157813078Y-145032000D01*
X157469961Y-144963750D01*
X157280628Y-144885325D01*
X157146749Y-144829871D01*
X156855866Y-144635509D01*
X156608491Y-144388134D01*
X156414129Y-144097251D01*
X156358675Y-143963372D01*
X156280250Y-143774039D01*
X156212000Y-143430922D01*
X156212000Y-143081078D01*
X156280250Y-142737961D01*
X156412472Y-142418750D01*
X156414129Y-142414749D01*
X156608491Y-142123866D01*
X156855866Y-141876491D01*
X157146749Y-141682129D01*
X157280628Y-141626675D01*
X157469961Y-141548250D01*
X157813078Y-141480000D01*
X158162922Y-141480000D01*
X158506039Y-141548250D01*
X158506039Y-141548250D01*
G37*
G36*
X156955142Y-133838242D02*
G01*
X157103101Y-133899529D01*
X157236255Y-133988499D01*
X157349501Y-134101745D01*
X157438471Y-134234899D01*
X157499758Y-134382858D01*
X157531000Y-134539925D01*
X157531000Y-134700075D01*
X157499758Y-134857142D01*
X157438471Y-135005101D01*
X157349501Y-135138255D01*
X157236255Y-135251501D01*
X157103101Y-135340471D01*
X156955142Y-135401758D01*
X156798075Y-135433000D01*
X156637925Y-135433000D01*
X156480858Y-135401758D01*
X156332899Y-135340471D01*
X156199745Y-135251501D01*
X156086499Y-135138255D01*
X155997529Y-135005101D01*
X155936242Y-134857142D01*
X155905000Y-134700075D01*
X155905000Y-134539925D01*
X155936242Y-134382858D01*
X155997529Y-134234899D01*
X156086499Y-134101745D01*
X156199745Y-133988499D01*
X156332899Y-133899529D01*
X156480858Y-133838242D01*
X156637925Y-133807000D01*
X156798075Y-133807000D01*
X156955142Y-133838242D01*
X156955142Y-133838242D01*
G37*
G36*
X154415142Y-133838242D02*
G01*
X154563101Y-133899529D01*
X154696255Y-133988499D01*
X154809501Y-134101745D01*
X154898471Y-134234899D01*
X154959758Y-134382858D01*
X154991000Y-134539925D01*
X154991000Y-134700075D01*
X154959758Y-134857142D01*
X154898471Y-135005101D01*
X154809501Y-135138255D01*
X154696255Y-135251501D01*
X154563101Y-135340471D01*
X154415142Y-135401758D01*
X154258075Y-135433000D01*
X154097925Y-135433000D01*
X153940858Y-135401758D01*
X153792899Y-135340471D01*
X153659745Y-135251501D01*
X153546499Y-135138255D01*
X153457529Y-135005101D01*
X153396242Y-134857142D01*
X153365000Y-134700075D01*
X153365000Y-134539925D01*
X153396242Y-134382858D01*
X153457529Y-134234899D01*
X153546499Y-134101745D01*
X153659745Y-133988499D01*
X153792899Y-133899529D01*
X153940858Y-133838242D01*
X154097925Y-133807000D01*
X154258075Y-133807000D01*
X154415142Y-133838242D01*
X154415142Y-133838242D01*
G37*
G36*
X151875142Y-133838242D02*
G01*
X152023101Y-133899529D01*
X152156255Y-133988499D01*
X152269501Y-134101745D01*
X152358471Y-134234899D01*
X152419758Y-134382858D01*
X152451000Y-134539925D01*
X152451000Y-134700075D01*
X152419758Y-134857142D01*
X152358471Y-135005101D01*
X152269501Y-135138255D01*
X152156255Y-135251501D01*
X152023101Y-135340471D01*
X151875142Y-135401758D01*
X151718075Y-135433000D01*
X151557925Y-135433000D01*
X151400858Y-135401758D01*
X151252899Y-135340471D01*
X151119745Y-135251501D01*
X151006499Y-135138255D01*
X150917529Y-135005101D01*
X150856242Y-134857142D01*
X150825000Y-134700075D01*
X150825000Y-134539925D01*
X150856242Y-134382858D01*
X150917529Y-134234899D01*
X151006499Y-134101745D01*
X151119745Y-133988499D01*
X151252899Y-133899529D01*
X151400858Y-133838242D01*
X151557925Y-133807000D01*
X151718075Y-133807000D01*
X151875142Y-133838242D01*
X151875142Y-133838242D01*
G37*
G36*
X149335142Y-133838242D02*
G01*
X149483101Y-133899529D01*
X149616255Y-133988499D01*
X149729501Y-134101745D01*
X149818471Y-134234899D01*
X149879758Y-134382858D01*
X149911000Y-134539925D01*
X149911000Y-134700075D01*
X149879758Y-134857142D01*
X149818471Y-135005101D01*
X149729501Y-135138255D01*
X149616255Y-135251501D01*
X149483101Y-135340471D01*
X149335142Y-135401758D01*
X149178075Y-135433000D01*
X149017925Y-135433000D01*
X148860858Y-135401758D01*
X148712899Y-135340471D01*
X148579745Y-135251501D01*
X148466499Y-135138255D01*
X148377529Y-135005101D01*
X148316242Y-134857142D01*
X148285000Y-134700075D01*
X148285000Y-134539925D01*
X148316242Y-134382858D01*
X148377529Y-134234899D01*
X148466499Y-134101745D01*
X148579745Y-133988499D01*
X148712899Y-133899529D01*
X148860858Y-133838242D01*
X149017925Y-133807000D01*
X149178075Y-133807000D01*
X149335142Y-133838242D01*
X149335142Y-133838242D01*
G37*
G36*
X146795142Y-133838242D02*
G01*
X146943101Y-133899529D01*
X147076255Y-133988499D01*
X147189501Y-134101745D01*
X147278471Y-134234899D01*
X147339758Y-134382858D01*
X147371000Y-134539925D01*
X147371000Y-134700075D01*
X147339758Y-134857142D01*
X147278471Y-135005101D01*
X147189501Y-135138255D01*
X147076255Y-135251501D01*
X146943101Y-135340471D01*
X146795142Y-135401758D01*
X146638075Y-135433000D01*
X146477925Y-135433000D01*
X146320858Y-135401758D01*
X146172899Y-135340471D01*
X146039745Y-135251501D01*
X145926499Y-135138255D01*
X145837529Y-135005101D01*
X145776242Y-134857142D01*
X145745000Y-134700075D01*
X145745000Y-134539925D01*
X145776242Y-134382858D01*
X145837529Y-134234899D01*
X145926499Y-134101745D01*
X146039745Y-133988499D01*
X146172899Y-133899529D01*
X146320858Y-133838242D01*
X146477925Y-133807000D01*
X146638075Y-133807000D01*
X146795142Y-133838242D01*
X146795142Y-133838242D01*
G37*
G36*
X166353142Y-133838242D02*
G01*
X166501101Y-133899529D01*
X166634255Y-133988499D01*
X166747501Y-134101745D01*
X166836471Y-134234899D01*
X166897758Y-134382858D01*
X166929000Y-134539925D01*
X166929000Y-134700075D01*
X166897758Y-134857142D01*
X166836471Y-135005101D01*
X166747501Y-135138255D01*
X166634255Y-135251501D01*
X166501101Y-135340471D01*
X166353142Y-135401758D01*
X166196075Y-135433000D01*
X166035925Y-135433000D01*
X165878858Y-135401758D01*
X165730899Y-135340471D01*
X165597745Y-135251501D01*
X165484499Y-135138255D01*
X165395529Y-135005101D01*
X165334242Y-134857142D01*
X165303000Y-134700075D01*
X165303000Y-134539925D01*
X165334242Y-134382858D01*
X165395529Y-134234899D01*
X165484499Y-134101745D01*
X165597745Y-133988499D01*
X165730899Y-133899529D01*
X165878858Y-133838242D01*
X166035925Y-133807000D01*
X166196075Y-133807000D01*
X166353142Y-133838242D01*
X166353142Y-133838242D01*
G37*
G36*
X163813142Y-133838242D02*
G01*
X163961101Y-133899529D01*
X164094255Y-133988499D01*
X164207501Y-134101745D01*
X164296471Y-134234899D01*
X164357758Y-134382858D01*
X164389000Y-134539925D01*
X164389000Y-134700075D01*
X164357758Y-134857142D01*
X164296471Y-135005101D01*
X164207501Y-135138255D01*
X164094255Y-135251501D01*
X163961101Y-135340471D01*
X163813142Y-135401758D01*
X163656075Y-135433000D01*
X163495925Y-135433000D01*
X163338858Y-135401758D01*
X163190899Y-135340471D01*
X163057745Y-135251501D01*
X162944499Y-135138255D01*
X162855529Y-135005101D01*
X162794242Y-134857142D01*
X162763000Y-134700075D01*
X162763000Y-134539925D01*
X162794242Y-134382858D01*
X162855529Y-134234899D01*
X162944499Y-134101745D01*
X163057745Y-133988499D01*
X163190899Y-133899529D01*
X163338858Y-133838242D01*
X163495925Y-133807000D01*
X163656075Y-133807000D01*
X163813142Y-133838242D01*
X163813142Y-133838242D01*
G37*
G36*
X148445560Y-125966166D02*
G01*
X148593153Y-126027301D01*
X148725982Y-126116055D01*
X148838945Y-126229018D01*
X148927699Y-126361847D01*
X148988834Y-126509440D01*
X149020000Y-126666123D01*
X149020000Y-126825877D01*
X148988834Y-126982560D01*
X148927699Y-127130153D01*
X148838945Y-127262982D01*
X148725982Y-127375945D01*
X148593153Y-127464699D01*
X148593152Y-127464700D01*
X148593151Y-127464700D01*
X148445560Y-127525834D01*
X148288878Y-127557000D01*
X148129122Y-127557000D01*
X147972440Y-127525834D01*
X147824849Y-127464700D01*
X147824848Y-127464700D01*
X147824847Y-127464699D01*
X147692018Y-127375945D01*
X147579055Y-127262982D01*
X147490301Y-127130153D01*
X147429166Y-126982560D01*
X147398000Y-126825877D01*
X147398000Y-126666123D01*
X147429166Y-126509440D01*
X147490301Y-126361847D01*
X147579055Y-126229018D01*
X147692018Y-126116055D01*
X147824847Y-126027301D01*
X147972440Y-125966166D01*
X148129122Y-125935000D01*
X148288878Y-125935000D01*
X148445560Y-125966166D01*
X148445560Y-125966166D01*
G37*
G36*
X164955560Y-125966166D02*
G01*
X165103153Y-126027301D01*
X165235982Y-126116055D01*
X165348945Y-126229018D01*
X165437699Y-126361847D01*
X165498834Y-126509440D01*
X165530000Y-126666123D01*
X165530000Y-126825877D01*
X165498834Y-126982560D01*
X165437699Y-127130153D01*
X165348945Y-127262982D01*
X165235982Y-127375945D01*
X165103153Y-127464699D01*
X165103152Y-127464700D01*
X165103151Y-127464700D01*
X164955560Y-127525834D01*
X164798878Y-127557000D01*
X164639122Y-127557000D01*
X164482440Y-127525834D01*
X164334849Y-127464700D01*
X164334848Y-127464700D01*
X164334847Y-127464699D01*
X164202018Y-127375945D01*
X164089055Y-127262982D01*
X164000301Y-127130153D01*
X163939166Y-126982560D01*
X163908000Y-126825877D01*
X163908000Y-126666123D01*
X163939166Y-126509440D01*
X164000301Y-126361847D01*
X164089055Y-126229018D01*
X164202018Y-126116055D01*
X164334847Y-126027301D01*
X164482440Y-125966166D01*
X164639122Y-125935000D01*
X164798878Y-125935000D01*
X164955560Y-125966166D01*
X164955560Y-125966166D01*
G37*
G36*
X148445560Y-123426166D02*
G01*
X148593153Y-123487301D01*
X148725982Y-123576055D01*
X148838945Y-123689018D01*
X148927699Y-123821847D01*
X148988834Y-123969440D01*
X149020000Y-124126123D01*
X149020000Y-124285877D01*
X148988834Y-124442560D01*
X148927699Y-124590153D01*
X148838945Y-124722982D01*
X148725982Y-124835945D01*
X148593153Y-124924699D01*
X148593152Y-124924700D01*
X148593151Y-124924700D01*
X148445560Y-124985834D01*
X148288878Y-125017000D01*
X148129122Y-125017000D01*
X147972440Y-124985834D01*
X147824849Y-124924700D01*
X147824848Y-124924700D01*
X147824847Y-124924699D01*
X147692018Y-124835945D01*
X147579055Y-124722982D01*
X147490301Y-124590153D01*
X147429166Y-124442560D01*
X147398000Y-124285877D01*
X147398000Y-124126123D01*
X147429166Y-123969440D01*
X147490301Y-123821847D01*
X147579055Y-123689018D01*
X147692018Y-123576055D01*
X147824847Y-123487301D01*
X147972440Y-123426166D01*
X148129122Y-123395000D01*
X148288878Y-123395000D01*
X148445560Y-123426166D01*
X148445560Y-123426166D01*
G37*
G36*
X164955560Y-123426166D02*
G01*
X165103153Y-123487301D01*
X165235982Y-123576055D01*
X165348945Y-123689018D01*
X165437699Y-123821847D01*
X165498834Y-123969440D01*
X165530000Y-124126123D01*
X165530000Y-124285877D01*
X165498834Y-124442560D01*
X165437699Y-124590153D01*
X165348945Y-124722982D01*
X165235982Y-124835945D01*
X165103153Y-124924699D01*
X165103152Y-124924700D01*
X165103151Y-124924700D01*
X164955560Y-124985834D01*
X164798878Y-125017000D01*
X164639122Y-125017000D01*
X164482440Y-124985834D01*
X164334849Y-124924700D01*
X164334848Y-124924700D01*
X164334847Y-124924699D01*
X164202018Y-124835945D01*
X164089055Y-124722982D01*
X164000301Y-124590153D01*
X163939166Y-124442560D01*
X163908000Y-124285877D01*
X163908000Y-124126123D01*
X163939166Y-123969440D01*
X164000301Y-123821847D01*
X164089055Y-123689018D01*
X164202018Y-123576055D01*
X164334847Y-123487301D01*
X164482440Y-123426166D01*
X164639122Y-123395000D01*
X164798878Y-123395000D01*
X164955560Y-123426166D01*
X164955560Y-123426166D01*
G37*
G36*
X148445560Y-120886166D02*
G01*
X148593153Y-120947301D01*
X148725982Y-121036055D01*
X148838945Y-121149018D01*
X148927699Y-121281847D01*
X148988834Y-121429440D01*
X149020000Y-121586123D01*
X149020000Y-121745877D01*
X148988834Y-121902560D01*
X148927699Y-122050153D01*
X148838945Y-122182982D01*
X148725982Y-122295945D01*
X148593153Y-122384699D01*
X148593152Y-122384700D01*
X148593151Y-122384700D01*
X148445560Y-122445834D01*
X148288878Y-122477000D01*
X148129122Y-122477000D01*
X147972440Y-122445834D01*
X147824849Y-122384700D01*
X147824848Y-122384700D01*
X147824847Y-122384699D01*
X147692018Y-122295945D01*
X147579055Y-122182982D01*
X147490301Y-122050153D01*
X147429166Y-121902560D01*
X147398000Y-121745877D01*
X147398000Y-121586123D01*
X147429166Y-121429440D01*
X147490301Y-121281847D01*
X147579055Y-121149018D01*
X147692018Y-121036055D01*
X147824847Y-120947301D01*
X147972440Y-120886166D01*
X148129122Y-120855000D01*
X148288878Y-120855000D01*
X148445560Y-120886166D01*
X148445560Y-120886166D01*
G37*
G36*
X164955560Y-120886166D02*
G01*
X165103153Y-120947301D01*
X165235982Y-121036055D01*
X165348945Y-121149018D01*
X165437699Y-121281847D01*
X165498834Y-121429440D01*
X165530000Y-121586123D01*
X165530000Y-121745877D01*
X165498834Y-121902560D01*
X165437699Y-122050153D01*
X165348945Y-122182982D01*
X165235982Y-122295945D01*
X165103153Y-122384699D01*
X165103152Y-122384700D01*
X165103151Y-122384700D01*
X164955560Y-122445834D01*
X164798878Y-122477000D01*
X164639122Y-122477000D01*
X164482440Y-122445834D01*
X164334849Y-122384700D01*
X164334848Y-122384700D01*
X164334847Y-122384699D01*
X164202018Y-122295945D01*
X164089055Y-122182982D01*
X164000301Y-122050153D01*
X163939166Y-121902560D01*
X163908000Y-121745877D01*
X163908000Y-121586123D01*
X163939166Y-121429440D01*
X164000301Y-121281847D01*
X164089055Y-121149018D01*
X164202018Y-121036055D01*
X164334847Y-120947301D01*
X164482440Y-120886166D01*
X164639122Y-120855000D01*
X164798878Y-120855000D01*
X164955560Y-120886166D01*
X164955560Y-120886166D01*
G37*
G36*
X148445560Y-118346166D02*
G01*
X148593153Y-118407301D01*
X148725982Y-118496055D01*
X148838945Y-118609018D01*
X148927699Y-118741847D01*
X148988834Y-118889440D01*
X149020000Y-119046123D01*
X149020000Y-119205877D01*
X148988834Y-119362560D01*
X148927699Y-119510153D01*
X148838945Y-119642982D01*
X148725982Y-119755945D01*
X148593153Y-119844699D01*
X148593152Y-119844700D01*
X148593151Y-119844700D01*
X148445560Y-119905834D01*
X148288878Y-119937000D01*
X148129122Y-119937000D01*
X147972440Y-119905834D01*
X147824849Y-119844700D01*
X147824848Y-119844700D01*
X147824847Y-119844699D01*
X147692018Y-119755945D01*
X147579055Y-119642982D01*
X147490301Y-119510153D01*
X147429166Y-119362560D01*
X147398000Y-119205877D01*
X147398000Y-119046123D01*
X147429166Y-118889440D01*
X147490301Y-118741847D01*
X147579055Y-118609018D01*
X147692018Y-118496055D01*
X147824847Y-118407301D01*
X147972440Y-118346166D01*
X148129122Y-118315000D01*
X148288878Y-118315000D01*
X148445560Y-118346166D01*
X148445560Y-118346166D01*
G37*
G36*
X164955560Y-118346166D02*
G01*
X165103153Y-118407301D01*
X165235982Y-118496055D01*
X165348945Y-118609018D01*
X165437699Y-118741847D01*
X165498834Y-118889440D01*
X165530000Y-119046123D01*
X165530000Y-119205877D01*
X165498834Y-119362560D01*
X165437699Y-119510153D01*
X165348945Y-119642982D01*
X165235982Y-119755945D01*
X165103153Y-119844699D01*
X165103152Y-119844700D01*
X165103151Y-119844700D01*
X164955560Y-119905834D01*
X164798878Y-119937000D01*
X164639122Y-119937000D01*
X164482440Y-119905834D01*
X164334849Y-119844700D01*
X164334848Y-119844700D01*
X164334847Y-119844699D01*
X164202018Y-119755945D01*
X164089055Y-119642982D01*
X164000301Y-119510153D01*
X163939166Y-119362560D01*
X163908000Y-119205877D01*
X163908000Y-119046123D01*
X163939166Y-118889440D01*
X164000301Y-118741847D01*
X164089055Y-118609018D01*
X164202018Y-118496055D01*
X164334847Y-118407301D01*
X164482440Y-118346166D01*
X164639122Y-118315000D01*
X164798878Y-118315000D01*
X164955560Y-118346166D01*
X164955560Y-118346166D01*
G37*
G36*
X148445560Y-115806166D02*
G01*
X148593153Y-115867301D01*
X148725982Y-115956055D01*
X148838945Y-116069018D01*
X148927699Y-116201847D01*
X148988834Y-116349440D01*
X149020000Y-116506123D01*
X149020000Y-116665877D01*
X148988834Y-116822560D01*
X148927699Y-116970153D01*
X148838945Y-117102982D01*
X148725982Y-117215945D01*
X148593153Y-117304699D01*
X148593152Y-117304700D01*
X148593151Y-117304700D01*
X148445560Y-117365834D01*
X148288878Y-117397000D01*
X148129122Y-117397000D01*
X147972440Y-117365834D01*
X147824849Y-117304700D01*
X147824848Y-117304700D01*
X147824847Y-117304699D01*
X147692018Y-117215945D01*
X147579055Y-117102982D01*
X147490301Y-116970153D01*
X147429166Y-116822560D01*
X147398000Y-116665877D01*
X147398000Y-116506123D01*
X147429166Y-116349440D01*
X147490301Y-116201847D01*
X147579055Y-116069018D01*
X147692018Y-115956055D01*
X147824847Y-115867301D01*
X147972440Y-115806166D01*
X148129122Y-115775000D01*
X148288878Y-115775000D01*
X148445560Y-115806166D01*
X148445560Y-115806166D01*
G37*
G36*
X164955560Y-115806166D02*
G01*
X165103153Y-115867301D01*
X165235982Y-115956055D01*
X165348945Y-116069018D01*
X165437699Y-116201847D01*
X165498834Y-116349440D01*
X165530000Y-116506123D01*
X165530000Y-116665877D01*
X165498834Y-116822560D01*
X165437699Y-116970153D01*
X165348945Y-117102982D01*
X165235982Y-117215945D01*
X165103153Y-117304699D01*
X165103152Y-117304700D01*
X165103151Y-117304700D01*
X164955560Y-117365834D01*
X164798878Y-117397000D01*
X164639122Y-117397000D01*
X164482440Y-117365834D01*
X164334849Y-117304700D01*
X164334848Y-117304700D01*
X164334847Y-117304699D01*
X164202018Y-117215945D01*
X164089055Y-117102982D01*
X164000301Y-116970153D01*
X163939166Y-116822560D01*
X163908000Y-116665877D01*
X163908000Y-116506123D01*
X163939166Y-116349440D01*
X164000301Y-116201847D01*
X164089055Y-116069018D01*
X164202018Y-115956055D01*
X164334847Y-115867301D01*
X164482440Y-115806166D01*
X164639122Y-115775000D01*
X164798878Y-115775000D01*
X164955560Y-115806166D01*
X164955560Y-115806166D01*
G37*
G36*
X164955560Y-113266166D02*
G01*
X165103153Y-113327301D01*
X165235982Y-113416055D01*
X165348945Y-113529018D01*
X165437699Y-113661847D01*
X165498834Y-113809440D01*
X165530000Y-113966123D01*
X165530000Y-114125877D01*
X165498834Y-114282560D01*
X165437699Y-114430153D01*
X165348945Y-114562982D01*
X165235982Y-114675945D01*
X165103153Y-114764699D01*
X165103152Y-114764700D01*
X165103151Y-114764700D01*
X164955560Y-114825834D01*
X164798878Y-114857000D01*
X164639122Y-114857000D01*
X164482440Y-114825834D01*
X164334849Y-114764700D01*
X164334848Y-114764700D01*
X164334847Y-114764699D01*
X164202018Y-114675945D01*
X164089055Y-114562982D01*
X164000301Y-114430153D01*
X163939166Y-114282560D01*
X163908000Y-114125877D01*
X163908000Y-113966123D01*
X163939166Y-113809440D01*
X164000301Y-113661847D01*
X164089055Y-113529018D01*
X164202018Y-113416055D01*
X164334847Y-113327301D01*
X164482440Y-113266166D01*
X164639122Y-113235000D01*
X164798878Y-113235000D01*
X164955560Y-113266166D01*
X164955560Y-113266166D01*
G37*
G36*
X148445560Y-113266166D02*
G01*
X148593153Y-113327301D01*
X148725982Y-113416055D01*
X148838945Y-113529018D01*
X148927699Y-113661847D01*
X148988834Y-113809440D01*
X149020000Y-113966123D01*
X149020000Y-114125877D01*
X148988834Y-114282560D01*
X148927699Y-114430153D01*
X148838945Y-114562982D01*
X148725982Y-114675945D01*
X148593153Y-114764699D01*
X148593152Y-114764700D01*
X148593151Y-114764700D01*
X148445560Y-114825834D01*
X148288878Y-114857000D01*
X148129122Y-114857000D01*
X147972440Y-114825834D01*
X147824849Y-114764700D01*
X147824848Y-114764700D01*
X147824847Y-114764699D01*
X147692018Y-114675945D01*
X147579055Y-114562982D01*
X147490301Y-114430153D01*
X147429166Y-114282560D01*
X147398000Y-114125877D01*
X147398000Y-113966123D01*
X147429166Y-113809440D01*
X147490301Y-113661847D01*
X147579055Y-113529018D01*
X147692018Y-113416055D01*
X147824847Y-113327301D01*
X147972440Y-113266166D01*
X148129122Y-113235000D01*
X148288878Y-113235000D01*
X148445560Y-113266166D01*
X148445560Y-113266166D01*
G37*
G36*
X148445560Y-110726166D02*
G01*
X148593153Y-110787301D01*
X148725982Y-110876055D01*
X148838945Y-110989018D01*
X148927699Y-111121847D01*
X148988834Y-111269440D01*
X149020000Y-111426123D01*
X149020000Y-111585877D01*
X148988834Y-111742560D01*
X148927699Y-111890153D01*
X148838945Y-112022982D01*
X148725982Y-112135945D01*
X148593153Y-112224699D01*
X148593152Y-112224700D01*
X148593151Y-112224700D01*
X148445560Y-112285834D01*
X148288878Y-112317000D01*
X148129122Y-112317000D01*
X147972440Y-112285834D01*
X147824849Y-112224700D01*
X147824848Y-112224700D01*
X147824847Y-112224699D01*
X147692018Y-112135945D01*
X147579055Y-112022982D01*
X147490301Y-111890153D01*
X147429166Y-111742560D01*
X147398000Y-111585877D01*
X147398000Y-111426123D01*
X147429166Y-111269440D01*
X147490301Y-111121847D01*
X147579055Y-110989018D01*
X147692018Y-110876055D01*
X147824847Y-110787301D01*
X147972440Y-110726166D01*
X148129122Y-110695000D01*
X148288878Y-110695000D01*
X148445560Y-110726166D01*
X148445560Y-110726166D01*
G37*
G36*
X164955560Y-110726166D02*
G01*
X165103153Y-110787301D01*
X165235982Y-110876055D01*
X165348945Y-110989018D01*
X165437699Y-111121847D01*
X165498834Y-111269440D01*
X165530000Y-111426123D01*
X165530000Y-111585877D01*
X165498834Y-111742560D01*
X165437699Y-111890153D01*
X165348945Y-112022982D01*
X165235982Y-112135945D01*
X165103153Y-112224699D01*
X165103152Y-112224700D01*
X165103151Y-112224700D01*
X164955560Y-112285834D01*
X164798878Y-112317000D01*
X164639122Y-112317000D01*
X164482440Y-112285834D01*
X164334849Y-112224700D01*
X164334848Y-112224700D01*
X164334847Y-112224699D01*
X164202018Y-112135945D01*
X164089055Y-112022982D01*
X164000301Y-111890153D01*
X163939166Y-111742560D01*
X163908000Y-111585877D01*
X163908000Y-111426123D01*
X163939166Y-111269440D01*
X164000301Y-111121847D01*
X164089055Y-110989018D01*
X164202018Y-110876055D01*
X164334847Y-110787301D01*
X164482440Y-110726166D01*
X164639122Y-110695000D01*
X164798878Y-110695000D01*
X164955560Y-110726166D01*
X164955560Y-110726166D01*
G37*
G36*
X148445560Y-108186166D02*
G01*
X148593153Y-108247301D01*
X148725982Y-108336055D01*
X148838945Y-108449018D01*
X148927699Y-108581847D01*
X148988834Y-108729440D01*
X149020000Y-108886123D01*
X149020000Y-109045877D01*
X148988834Y-109202560D01*
X148927699Y-109350153D01*
X148838945Y-109482982D01*
X148725982Y-109595945D01*
X148593153Y-109684699D01*
X148593152Y-109684700D01*
X148593151Y-109684700D01*
X148445560Y-109745834D01*
X148288878Y-109777000D01*
X148129122Y-109777000D01*
X147972440Y-109745834D01*
X147824849Y-109684700D01*
X147824848Y-109684700D01*
X147824847Y-109684699D01*
X147692018Y-109595945D01*
X147579055Y-109482982D01*
X147490301Y-109350153D01*
X147429166Y-109202560D01*
X147398000Y-109045877D01*
X147398000Y-108886123D01*
X147429166Y-108729440D01*
X147490301Y-108581847D01*
X147579055Y-108449018D01*
X147692018Y-108336055D01*
X147824847Y-108247301D01*
X147972440Y-108186166D01*
X148129122Y-108155000D01*
X148288878Y-108155000D01*
X148445560Y-108186166D01*
X148445560Y-108186166D01*
G37*
G36*
X164955560Y-108186166D02*
G01*
X165103153Y-108247301D01*
X165235982Y-108336055D01*
X165348945Y-108449018D01*
X165437699Y-108581847D01*
X165498834Y-108729440D01*
X165530000Y-108886123D01*
X165530000Y-109045877D01*
X165498834Y-109202560D01*
X165437699Y-109350153D01*
X165348945Y-109482982D01*
X165235982Y-109595945D01*
X165103153Y-109684699D01*
X165103152Y-109684700D01*
X165103151Y-109684700D01*
X164955560Y-109745834D01*
X164798878Y-109777000D01*
X164639122Y-109777000D01*
X164482440Y-109745834D01*
X164334849Y-109684700D01*
X164334848Y-109684700D01*
X164334847Y-109684699D01*
X164202018Y-109595945D01*
X164089055Y-109482982D01*
X164000301Y-109350153D01*
X163939166Y-109202560D01*
X163908000Y-109045877D01*
X163908000Y-108886123D01*
X163939166Y-108729440D01*
X164000301Y-108581847D01*
X164089055Y-108449018D01*
X164202018Y-108336055D01*
X164334847Y-108247301D01*
X164482440Y-108186166D01*
X164639122Y-108155000D01*
X164798878Y-108155000D01*
X164955560Y-108186166D01*
X164955560Y-108186166D01*
G37*
G36*
X164955560Y-105646166D02*
G01*
X165103153Y-105707301D01*
X165235982Y-105796055D01*
X165348945Y-105909018D01*
X165437699Y-106041847D01*
X165498834Y-106189440D01*
X165530000Y-106346123D01*
X165530000Y-106505877D01*
X165498834Y-106662560D01*
X165437699Y-106810153D01*
X165348945Y-106942982D01*
X165235982Y-107055945D01*
X165103153Y-107144699D01*
X165103152Y-107144700D01*
X165103151Y-107144700D01*
X164955560Y-107205834D01*
X164798878Y-107237000D01*
X164639122Y-107237000D01*
X164482440Y-107205834D01*
X164334849Y-107144700D01*
X164334848Y-107144700D01*
X164334847Y-107144699D01*
X164202018Y-107055945D01*
X164089055Y-106942982D01*
X164000301Y-106810153D01*
X163939166Y-106662560D01*
X163908000Y-106505877D01*
X163908000Y-106346123D01*
X163939166Y-106189440D01*
X164000301Y-106041847D01*
X164089055Y-105909018D01*
X164202018Y-105796055D01*
X164334847Y-105707301D01*
X164482440Y-105646166D01*
X164639122Y-105615000D01*
X164798878Y-105615000D01*
X164955560Y-105646166D01*
X164955560Y-105646166D01*
G37*
G36*
X148445560Y-105646166D02*
G01*
X148593153Y-105707301D01*
X148725982Y-105796055D01*
X148838945Y-105909018D01*
X148927699Y-106041847D01*
X148988834Y-106189440D01*
X149020000Y-106346123D01*
X149020000Y-106505877D01*
X148988834Y-106662560D01*
X148927699Y-106810153D01*
X148838945Y-106942982D01*
X148725982Y-107055945D01*
X148593153Y-107144699D01*
X148593152Y-107144700D01*
X148593151Y-107144700D01*
X148445560Y-107205834D01*
X148288878Y-107237000D01*
X148129122Y-107237000D01*
X147972440Y-107205834D01*
X147824849Y-107144700D01*
X147824848Y-107144700D01*
X147824847Y-107144699D01*
X147692018Y-107055945D01*
X147579055Y-106942982D01*
X147490301Y-106810153D01*
X147429166Y-106662560D01*
X147398000Y-106505877D01*
X147398000Y-106346123D01*
X147429166Y-106189440D01*
X147490301Y-106041847D01*
X147579055Y-105909018D01*
X147692018Y-105796055D01*
X147824847Y-105707301D01*
X147972440Y-105646166D01*
X148129122Y-105615000D01*
X148288878Y-105615000D01*
X148445560Y-105646166D01*
X148445560Y-105646166D01*
G37*
G36*
X148445560Y-103106166D02*
G01*
X148593153Y-103167301D01*
X148725982Y-103256055D01*
X148838945Y-103369018D01*
X148927699Y-103501847D01*
X148988834Y-103649440D01*
X149020000Y-103806123D01*
X149020000Y-103965877D01*
X148988834Y-104122560D01*
X148927699Y-104270153D01*
X148838945Y-104402982D01*
X148725982Y-104515945D01*
X148593153Y-104604699D01*
X148593152Y-104604700D01*
X148593151Y-104604700D01*
X148445560Y-104665834D01*
X148288878Y-104697000D01*
X148129122Y-104697000D01*
X147972440Y-104665834D01*
X147824849Y-104604700D01*
X147824848Y-104604700D01*
X147824847Y-104604699D01*
X147692018Y-104515945D01*
X147579055Y-104402982D01*
X147490301Y-104270153D01*
X147429166Y-104122560D01*
X147398000Y-103965877D01*
X147398000Y-103806123D01*
X147429166Y-103649440D01*
X147490301Y-103501847D01*
X147579055Y-103369018D01*
X147692018Y-103256055D01*
X147824847Y-103167301D01*
X147972440Y-103106166D01*
X148129122Y-103075000D01*
X148288878Y-103075000D01*
X148445560Y-103106166D01*
X148445560Y-103106166D01*
G37*
G36*
X164955560Y-103106166D02*
G01*
X165103153Y-103167301D01*
X165235982Y-103256055D01*
X165348945Y-103369018D01*
X165437699Y-103501847D01*
X165498834Y-103649440D01*
X165530000Y-103806123D01*
X165530000Y-103965877D01*
X165498834Y-104122560D01*
X165437699Y-104270153D01*
X165348945Y-104402982D01*
X165235982Y-104515945D01*
X165103153Y-104604699D01*
X165103152Y-104604700D01*
X165103151Y-104604700D01*
X164955560Y-104665834D01*
X164798878Y-104697000D01*
X164639122Y-104697000D01*
X164482440Y-104665834D01*
X164334849Y-104604700D01*
X164334848Y-104604700D01*
X164334847Y-104604699D01*
X164202018Y-104515945D01*
X164089055Y-104402982D01*
X164000301Y-104270153D01*
X163939166Y-104122560D01*
X163908000Y-103965877D01*
X163908000Y-103806123D01*
X163939166Y-103649440D01*
X164000301Y-103501847D01*
X164089055Y-103369018D01*
X164202018Y-103256055D01*
X164334847Y-103167301D01*
X164482440Y-103106166D01*
X164639122Y-103075000D01*
X164798878Y-103075000D01*
X164955560Y-103106166D01*
X164955560Y-103106166D01*
G37*
G36*
X148445560Y-100566166D02*
G01*
X148593153Y-100627301D01*
X148725982Y-100716055D01*
X148838945Y-100829018D01*
X148927699Y-100961847D01*
X148988834Y-101109440D01*
X149020000Y-101266123D01*
X149020000Y-101425877D01*
X148988834Y-101582560D01*
X148927699Y-101730153D01*
X148838945Y-101862982D01*
X148725982Y-101975945D01*
X148593153Y-102064699D01*
X148593152Y-102064700D01*
X148593151Y-102064700D01*
X148445560Y-102125834D01*
X148288878Y-102157000D01*
X148129122Y-102157000D01*
X147972440Y-102125834D01*
X147824849Y-102064700D01*
X147824848Y-102064700D01*
X147824847Y-102064699D01*
X147692018Y-101975945D01*
X147579055Y-101862982D01*
X147490301Y-101730153D01*
X147429166Y-101582560D01*
X147398000Y-101425877D01*
X147398000Y-101266123D01*
X147429166Y-101109440D01*
X147490301Y-100961847D01*
X147579055Y-100829018D01*
X147692018Y-100716055D01*
X147824847Y-100627301D01*
X147972440Y-100566166D01*
X148129122Y-100535000D01*
X148288878Y-100535000D01*
X148445560Y-100566166D01*
X148445560Y-100566166D01*
G37*
G36*
X164955560Y-100566166D02*
G01*
X165103153Y-100627301D01*
X165235982Y-100716055D01*
X165348945Y-100829018D01*
X165437699Y-100961847D01*
X165498834Y-101109440D01*
X165530000Y-101266123D01*
X165530000Y-101425877D01*
X165498834Y-101582560D01*
X165437699Y-101730153D01*
X165348945Y-101862982D01*
X165235982Y-101975945D01*
X165103153Y-102064699D01*
X165103152Y-102064700D01*
X165103151Y-102064700D01*
X164955560Y-102125834D01*
X164798878Y-102157000D01*
X164639122Y-102157000D01*
X164482440Y-102125834D01*
X164334849Y-102064700D01*
X164334848Y-102064700D01*
X164334847Y-102064699D01*
X164202018Y-101975945D01*
X164089055Y-101862982D01*
X164000301Y-101730153D01*
X163939166Y-101582560D01*
X163908000Y-101425877D01*
X163908000Y-101266123D01*
X163939166Y-101109440D01*
X164000301Y-100961847D01*
X164089055Y-100829018D01*
X164202018Y-100716055D01*
X164334847Y-100627301D01*
X164482440Y-100566166D01*
X164639122Y-100535000D01*
X164798878Y-100535000D01*
X164955560Y-100566166D01*
X164955560Y-100566166D01*
G37*
G36*
X148445560Y-98026166D02*
G01*
X148593153Y-98087301D01*
X148725982Y-98176055D01*
X148838945Y-98289018D01*
X148927699Y-98421847D01*
X148988834Y-98569440D01*
X149020000Y-98726123D01*
X149020000Y-98885877D01*
X148988834Y-99042560D01*
X148927699Y-99190153D01*
X148838945Y-99322982D01*
X148725982Y-99435945D01*
X148593153Y-99524699D01*
X148593152Y-99524700D01*
X148593151Y-99524700D01*
X148445560Y-99585834D01*
X148288878Y-99617000D01*
X148129122Y-99617000D01*
X147972440Y-99585834D01*
X147824849Y-99524700D01*
X147824848Y-99524700D01*
X147824847Y-99524699D01*
X147692018Y-99435945D01*
X147579055Y-99322982D01*
X147490301Y-99190153D01*
X147429166Y-99042560D01*
X147398000Y-98885877D01*
X147398000Y-98726123D01*
X147429166Y-98569440D01*
X147490301Y-98421847D01*
X147579055Y-98289018D01*
X147692018Y-98176055D01*
X147824847Y-98087301D01*
X147972440Y-98026166D01*
X148129122Y-97995000D01*
X148288878Y-97995000D01*
X148445560Y-98026166D01*
X148445560Y-98026166D01*
G37*
G36*
X164955560Y-98026166D02*
G01*
X165103153Y-98087301D01*
X165235982Y-98176055D01*
X165348945Y-98289018D01*
X165437699Y-98421847D01*
X165498834Y-98569440D01*
X165530000Y-98726123D01*
X165530000Y-98885877D01*
X165498834Y-99042560D01*
X165437699Y-99190153D01*
X165348945Y-99322982D01*
X165235982Y-99435945D01*
X165103153Y-99524699D01*
X165103152Y-99524700D01*
X165103151Y-99524700D01*
X164955560Y-99585834D01*
X164798878Y-99617000D01*
X164639122Y-99617000D01*
X164482440Y-99585834D01*
X164334849Y-99524700D01*
X164334848Y-99524700D01*
X164334847Y-99524699D01*
X164202018Y-99435945D01*
X164089055Y-99322982D01*
X164000301Y-99190153D01*
X163939166Y-99042560D01*
X163908000Y-98885877D01*
X163908000Y-98726123D01*
X163939166Y-98569440D01*
X164000301Y-98421847D01*
X164089055Y-98289018D01*
X164202018Y-98176055D01*
X164334847Y-98087301D01*
X164482440Y-98026166D01*
X164639122Y-97995000D01*
X164798878Y-97995000D01*
X164955560Y-98026166D01*
X164955560Y-98026166D01*
G37*
G36*
X164955560Y-95486166D02*
G01*
X165103153Y-95547301D01*
X165235982Y-95636055D01*
X165348945Y-95749018D01*
X165437699Y-95881847D01*
X165498834Y-96029440D01*
X165530000Y-96186123D01*
X165530000Y-96345877D01*
X165498834Y-96502560D01*
X165437699Y-96650153D01*
X165348945Y-96782982D01*
X165235982Y-96895945D01*
X165103153Y-96984699D01*
X165103152Y-96984700D01*
X165103151Y-96984700D01*
X164955560Y-97045834D01*
X164798878Y-97077000D01*
X164639122Y-97077000D01*
X164482440Y-97045834D01*
X164334849Y-96984700D01*
X164334848Y-96984700D01*
X164334847Y-96984699D01*
X164202018Y-96895945D01*
X164089055Y-96782982D01*
X164000301Y-96650153D01*
X163939166Y-96502560D01*
X163908000Y-96345877D01*
X163908000Y-96186123D01*
X163939166Y-96029440D01*
X164000301Y-95881847D01*
X164089055Y-95749018D01*
X164202018Y-95636055D01*
X164334847Y-95547301D01*
X164482440Y-95486166D01*
X164639122Y-95455000D01*
X164798878Y-95455000D01*
X164955560Y-95486166D01*
X164955560Y-95486166D01*
G37*
G36*
X148445560Y-95486166D02*
G01*
X148593153Y-95547301D01*
X148725982Y-95636055D01*
X148838945Y-95749018D01*
X148927699Y-95881847D01*
X148988834Y-96029440D01*
X149020000Y-96186123D01*
X149020000Y-96345877D01*
X148988834Y-96502560D01*
X148927699Y-96650153D01*
X148838945Y-96782982D01*
X148725982Y-96895945D01*
X148593153Y-96984699D01*
X148593152Y-96984700D01*
X148593151Y-96984700D01*
X148445560Y-97045834D01*
X148288878Y-97077000D01*
X148129122Y-97077000D01*
X147972440Y-97045834D01*
X147824849Y-96984700D01*
X147824848Y-96984700D01*
X147824847Y-96984699D01*
X147692018Y-96895945D01*
X147579055Y-96782982D01*
X147490301Y-96650153D01*
X147429166Y-96502560D01*
X147398000Y-96345877D01*
X147398000Y-96186123D01*
X147429166Y-96029440D01*
X147490301Y-95881847D01*
X147579055Y-95749018D01*
X147692018Y-95636055D01*
X147824847Y-95547301D01*
X147972440Y-95486166D01*
X148129122Y-95455000D01*
X148288878Y-95455000D01*
X148445560Y-95486166D01*
X148445560Y-95486166D01*
G37*
G36*
X148445560Y-92946166D02*
G01*
X148593153Y-93007301D01*
X148725982Y-93096055D01*
X148838945Y-93209018D01*
X148898451Y-93298074D01*
X148927700Y-93341849D01*
X148988834Y-93489440D01*
X149011443Y-93603101D01*
X149020000Y-93646123D01*
X149020000Y-93805877D01*
X148988834Y-93962560D01*
X148927699Y-94110153D01*
X148838945Y-94242982D01*
X148725982Y-94355945D01*
X148593153Y-94444699D01*
X148593152Y-94444700D01*
X148593151Y-94444700D01*
X148445560Y-94505834D01*
X148288878Y-94537000D01*
X148129122Y-94537000D01*
X147972440Y-94505834D01*
X147824849Y-94444700D01*
X147824848Y-94444700D01*
X147824847Y-94444699D01*
X147692018Y-94355945D01*
X147579055Y-94242982D01*
X147490301Y-94110153D01*
X147429166Y-93962560D01*
X147398000Y-93805877D01*
X147398000Y-93646123D01*
X147406558Y-93603101D01*
X147429166Y-93489440D01*
X147490300Y-93341849D01*
X147519550Y-93298074D01*
X147579055Y-93209018D01*
X147692018Y-93096055D01*
X147824847Y-93007301D01*
X147972440Y-92946166D01*
X148129122Y-92915000D01*
X148288878Y-92915000D01*
X148445560Y-92946166D01*
X148445560Y-92946166D01*
G37*
G36*
X164955560Y-92946166D02*
G01*
X165103153Y-93007301D01*
X165235982Y-93096055D01*
X165348945Y-93209018D01*
X165408451Y-93298074D01*
X165437700Y-93341849D01*
X165498834Y-93489440D01*
X165521443Y-93603101D01*
X165530000Y-93646123D01*
X165530000Y-93805877D01*
X165498834Y-93962560D01*
X165437699Y-94110153D01*
X165348945Y-94242982D01*
X165235982Y-94355945D01*
X165103153Y-94444699D01*
X165103152Y-94444700D01*
X165103151Y-94444700D01*
X164955560Y-94505834D01*
X164798878Y-94537000D01*
X164639122Y-94537000D01*
X164482440Y-94505834D01*
X164334849Y-94444700D01*
X164334848Y-94444700D01*
X164334847Y-94444699D01*
X164202018Y-94355945D01*
X164089055Y-94242982D01*
X164000301Y-94110153D01*
X163939166Y-93962560D01*
X163908000Y-93805877D01*
X163908000Y-93646123D01*
X163916558Y-93603101D01*
X163939166Y-93489440D01*
X164000300Y-93341849D01*
X164029550Y-93298074D01*
X164089055Y-93209018D01*
X164202018Y-93096055D01*
X164334847Y-93007301D01*
X164482440Y-92946166D01*
X164639122Y-92915000D01*
X164798878Y-92915000D01*
X164955560Y-92946166D01*
X164955560Y-92946166D01*
G37*
G36*
X157717142Y-92436242D02*
G01*
X157865101Y-92497529D01*
X157998255Y-92586499D01*
X158111501Y-92699745D01*
X158200471Y-92832899D01*
X158261758Y-92980858D01*
X158293000Y-93137925D01*
X158293000Y-93298075D01*
X158261758Y-93455142D01*
X158200471Y-93603101D01*
X158111501Y-93736255D01*
X157998255Y-93849501D01*
X157865101Y-93938471D01*
X157717142Y-93999758D01*
X157560075Y-94031000D01*
X157399925Y-94031000D01*
X157242858Y-93999758D01*
X157094899Y-93938471D01*
X156961745Y-93849501D01*
X156848499Y-93736255D01*
X156759529Y-93603101D01*
X156698242Y-93455142D01*
X156667000Y-93298075D01*
X156667000Y-93137925D01*
X156698242Y-92980858D01*
X156759529Y-92832899D01*
X156848499Y-92699745D01*
X156961745Y-92586499D01*
X157094899Y-92497529D01*
X157242858Y-92436242D01*
X157399925Y-92405000D01*
X157560075Y-92405000D01*
X157717142Y-92436242D01*
X157717142Y-92436242D01*
G37*
G36*
X155177142Y-92436242D02*
G01*
X155325101Y-92497529D01*
X155458255Y-92586499D01*
X155571501Y-92699745D01*
X155660471Y-92832899D01*
X155721758Y-92980858D01*
X155753000Y-93137925D01*
X155753000Y-93298075D01*
X155721758Y-93455142D01*
X155660471Y-93603101D01*
X155571501Y-93736255D01*
X155458255Y-93849501D01*
X155325101Y-93938471D01*
X155177142Y-93999758D01*
X155020075Y-94031000D01*
X154859925Y-94031000D01*
X154702858Y-93999758D01*
X154554899Y-93938471D01*
X154421745Y-93849501D01*
X154308499Y-93736255D01*
X154219529Y-93603101D01*
X154158242Y-93455142D01*
X154127000Y-93298075D01*
X154127000Y-93137925D01*
X154158242Y-92980858D01*
X154219529Y-92832899D01*
X154308499Y-92699745D01*
X154421745Y-92586499D01*
X154554899Y-92497529D01*
X154702858Y-92436242D01*
X154859925Y-92405000D01*
X155020075Y-92405000D01*
X155177142Y-92436242D01*
X155177142Y-92436242D01*
G37*
G36*
X148445560Y-90406166D02*
G01*
X148593153Y-90467301D01*
X148725982Y-90556055D01*
X148838945Y-90669018D01*
X148927699Y-90801847D01*
X148988834Y-90949440D01*
X149020000Y-91106123D01*
X149020000Y-91265877D01*
X148988834Y-91422560D01*
X148927699Y-91570153D01*
X148838945Y-91702982D01*
X148725982Y-91815945D01*
X148593153Y-91904699D01*
X148593152Y-91904700D01*
X148593151Y-91904700D01*
X148445560Y-91965834D01*
X148288878Y-91997000D01*
X148129122Y-91997000D01*
X147972440Y-91965834D01*
X147824849Y-91904700D01*
X147824848Y-91904700D01*
X147824847Y-91904699D01*
X147692018Y-91815945D01*
X147579055Y-91702982D01*
X147490301Y-91570153D01*
X147429166Y-91422560D01*
X147398000Y-91265877D01*
X147398000Y-91106123D01*
X147429166Y-90949440D01*
X147490301Y-90801847D01*
X147579055Y-90669018D01*
X147692018Y-90556055D01*
X147824847Y-90467301D01*
X147972440Y-90406166D01*
X148129122Y-90375000D01*
X148288878Y-90375000D01*
X148445560Y-90406166D01*
X148445560Y-90406166D01*
G37*
G36*
X164955560Y-90406166D02*
G01*
X165103153Y-90467301D01*
X165235982Y-90556055D01*
X165348945Y-90669018D01*
X165437699Y-90801847D01*
X165498834Y-90949440D01*
X165530000Y-91106123D01*
X165530000Y-91265877D01*
X165498834Y-91422560D01*
X165437699Y-91570153D01*
X165348945Y-91702982D01*
X165235982Y-91815945D01*
X165103153Y-91904699D01*
X165103152Y-91904700D01*
X165103151Y-91904700D01*
X164955560Y-91965834D01*
X164798878Y-91997000D01*
X164639122Y-91997000D01*
X164482440Y-91965834D01*
X164334849Y-91904700D01*
X164334848Y-91904700D01*
X164334847Y-91904699D01*
X164202018Y-91815945D01*
X164089055Y-91702982D01*
X164000301Y-91570153D01*
X163939166Y-91422560D01*
X163908000Y-91265877D01*
X163908000Y-91106123D01*
X163939166Y-90949440D01*
X164000301Y-90801847D01*
X164089055Y-90669018D01*
X164202018Y-90556055D01*
X164334847Y-90467301D01*
X164482440Y-90406166D01*
X164639122Y-90375000D01*
X164798878Y-90375000D01*
X164955560Y-90406166D01*
X164955560Y-90406166D01*
G37*
G36*
X159141039Y-82874250D02*
G01*
X159330372Y-82952675D01*
X159464251Y-83008129D01*
X159755134Y-83202491D01*
X160002509Y-83449866D01*
X160196871Y-83740749D01*
X160196871Y-83740750D01*
X160330750Y-84063961D01*
X160399000Y-84407078D01*
X160399000Y-84756922D01*
X160330750Y-85100039D01*
X160252325Y-85289372D01*
X160196871Y-85423251D01*
X160002509Y-85714134D01*
X159755134Y-85961509D01*
X159464251Y-86155871D01*
X159330372Y-86211325D01*
X159141039Y-86289750D01*
X158797922Y-86358000D01*
X158448078Y-86358000D01*
X158104961Y-86289750D01*
X157915628Y-86211325D01*
X157781749Y-86155871D01*
X157490866Y-85961509D01*
X157243491Y-85714134D01*
X157049129Y-85423251D01*
X156993675Y-85289372D01*
X156915250Y-85100039D01*
X156847000Y-84756922D01*
X156847000Y-84407078D01*
X156915250Y-84063961D01*
X157049129Y-83740750D01*
X157049129Y-83740749D01*
X157243491Y-83449866D01*
X157490866Y-83202491D01*
X157781749Y-83008129D01*
X157915628Y-82952675D01*
X158104961Y-82874250D01*
X158448078Y-82806000D01*
X158797922Y-82806000D01*
X159141039Y-82874250D01*
X159141039Y-82874250D01*
G37*
G36*
X154313039Y-82870250D02*
G01*
X154502372Y-82948675D01*
X154636251Y-83004129D01*
X154927134Y-83198491D01*
X155174509Y-83445866D01*
X155368871Y-83736749D01*
X155370528Y-83740750D01*
X155502750Y-84059961D01*
X155571000Y-84403078D01*
X155571000Y-84752922D01*
X155502750Y-85096039D01*
X155424325Y-85285372D01*
X155368871Y-85419251D01*
X155174509Y-85710134D01*
X154927134Y-85957509D01*
X154636251Y-86151871D01*
X154502372Y-86207325D01*
X154313039Y-86285750D01*
X153969922Y-86354000D01*
X153620078Y-86354000D01*
X153276961Y-86285750D01*
X153087628Y-86207325D01*
X152953749Y-86151871D01*
X152662866Y-85957509D01*
X152415491Y-85710134D01*
X152221129Y-85419251D01*
X152165675Y-85285372D01*
X152087250Y-85096039D01*
X152019000Y-84752922D01*
X152019000Y-84403078D01*
X152087250Y-84059961D01*
X152219472Y-83740750D01*
X152221129Y-83736749D01*
X152415491Y-83445866D01*
X152662866Y-83198491D01*
X152953749Y-83004129D01*
X153087628Y-82948675D01*
X153276961Y-82870250D01*
X153620078Y-82802000D01*
X153969922Y-82802000D01*
X154313039Y-82870250D01*
X154313039Y-82870250D01*
G37*
M02*
